<?xml version="1.0" encoding="utf-8"?>
<!-- Generator: Adobe Illustrator 25.2.1, SVG Export Plug-In . SVG Version: 6.00 Build 0)  -->
<svg version="1.1" id="Layer_1" xmlns="http://www.w3.org/2000/svg" xmlns:xlink="http://www.w3.org/1999/xlink" x="0px" y="0px"
	 viewBox="0 0 341.8 319" style="enable-background:new 0 0 341.8 319;" xml:space="preserve">
<style type="text/css">
	.st0{fill:#FFFFFF;}
	.st1{clip-path:url(#SVGID_2_);}
	.st2{clip-path:url(#SVGID_4_);fill:#EC2D3B;}
	.st3{clip-path:url(#SVGID_4_);fill:#EB2B3A;}
	.st4{clip-path:url(#SVGID_4_);fill:#FCCC12;}
	.st5{fill:#FCCC12;}
	.st6{fill:#EC2D3B;}
</style>
<g>
	<g>
		<path class="st0" d="M4.8,25.4c-0.1,0.3-0.1,0.7-0.1,1.1c0,0.5-0.1,0.8-0.1,1.1c0,1.9,0.5,3.4,1.6,4.5s2.5,1.7,4.4,1.7
			c1.5,0,2.8-0.4,3.8-1.1s1.6-1.8,1.9-3h1.6c0,0,0,0.1,0,0.2s0,0.2-0.1,0.3c-0.2,1.1-0.7,2-1.4,2.7c-0.7,0.8-1.6,1.4-2.6,1.8
			c-1,0.4-2.2,0.6-3.4,0.6c-1.5,0-2.9-0.3-4-0.9s-2-1.5-2.6-2.7C3.3,30.7,3,29.3,3,27.8c0-0.4,0-0.8,0-1.3c0-0.4,0.1-0.8,0.1-1.1
			l0.7-3.8c0.3-1.6,0.8-2.9,1.5-4.1c0.7-1.2,1.7-2.1,2.8-2.7c1.1-0.7,2.4-1,3.9-1c1.2,0,2.2,0.2,3.1,0.5c0.9,0.3,1.6,0.8,2.2,1.4
			s1.1,1.2,1.4,1.9s0.5,1.4,0.5,2.1c0,0.1,0,0.3,0,0.4s0,0.2,0,0.3h-1.6c0-0.1,0-0.2,0-0.3c0-0.1,0-0.2,0-0.3c0-0.5-0.2-1-0.4-1.6
			s-0.6-1-1.1-1.5s-1-0.8-1.7-1.1c-0.7-0.3-1.5-0.4-2.4-0.4c-1.2,0-2.2,0.3-3.1,0.8c-0.9,0.5-1.6,1.3-2.2,2.3c-0.6,1-1,2.1-1.2,3.4
			L4.8,25.4z"/>
		<path class="st0" d="M25.5,13.2h1.6l-1.6,8.7h0.1c0.4-0.8,1-1.6,1.8-2.1c0.8-0.6,1.9-0.8,3.1-0.8c1,0,1.9,0.2,2.7,0.6
			s1.3,1,1.7,1.8c0.4,0.7,0.6,1.6,0.6,2.5c0,0.3,0,0.7-0.1,1s-0.1,0.7-0.2,1L33.8,35h-1.6l1.6-9.2c0-0.2,0.1-0.4,0.1-0.8
			c0-0.3,0.1-0.6,0.1-0.9c0-1.1-0.3-2-1-2.7c-0.6-0.7-1.6-1.1-2.8-1.1c-1,0-1.8,0.2-2.6,0.7c-0.7,0.5-1.3,1.1-1.7,1.8
			c-0.4,0.7-0.7,1.5-0.9,2.4L23.3,35h-1.6L25.5,13.2z"/>
		<path class="st0" d="M41.7,34.7c-0.7-0.3-1.3-0.8-1.7-1.5c-0.4-0.6-0.7-1.4-0.7-2.3c0-0.1,0-0.2,0-0.3c0-0.1,0-0.2,0-0.3
			c0.1-0.9,0.4-1.7,0.9-2.3c0.5-0.6,1.2-1.1,2.1-1.5c0.9-0.3,2-0.5,3.2-0.5h4.6l0.2-1.3c0-0.1,0.1-0.3,0.1-0.5c0-0.2,0-0.4,0-0.6
			c0-0.7-0.1-1.2-0.4-1.7c-0.3-0.5-0.7-0.9-1.3-1.1c-0.6-0.3-1.3-0.4-2.1-0.4c-0.8,0-1.4,0.1-2,0.3c-0.5,0.2-1,0.5-1.3,0.8
			s-0.5,0.7-0.6,1h-1.6c0.1-0.7,0.4-1.3,0.9-1.8c0.5-0.5,1.1-1,1.9-1.3s1.7-0.5,2.8-0.5c1.1,0,2,0.2,2.8,0.5
			c0.8,0.3,1.4,0.9,1.8,1.5c0.4,0.7,0.7,1.5,0.7,2.5c0,0.4,0,0.7-0.1,1.1c0,0.4-0.1,0.7-0.2,1L50.2,35h-1.6l0.4-2.2h-0.1
			c-0.2,0.3-0.4,0.7-0.8,1.1c-0.4,0.4-0.9,0.7-1.6,1c-0.6,0.3-1.4,0.4-2.3,0.4S42.4,35,41.7,34.7z M41.4,32.4c0.3,0.5,0.7,0.8,1.2,1
			c0.5,0.2,1.1,0.4,1.8,0.4c1.2,0,2.3-0.4,3.3-1.1c0.9-0.7,1.5-1.7,1.7-2.9l0.5-2.5h-4.4c-1.4,0-2.5,0.3-3.3,0.9
			c-0.8,0.6-1.2,1.4-1.2,2.5C41,31.4,41.1,31.9,41.4,32.4z"/>
		<path class="st0" d="M60,13.2h1.6L57.8,35h-1.6L60,13.2z"/>
		<path class="st0" d="M68,13.2h1.6L65.8,35h-1.6L68,13.2z"/>
		<path class="st0" d="M75,34.5c-0.9-0.4-1.6-1.1-2.1-2s-0.8-2-0.8-3.2c0-0.4,0-0.8,0.1-1.2c0.1-0.4,0.1-0.7,0.1-1l0.3-2
			c0.2-1.2,0.6-2.3,1.2-3.2c0.6-0.9,1.3-1.7,2.2-2.2s2-0.8,3.3-0.8c1,0,1.9,0.2,2.6,0.5c0.7,0.3,1.3,0.8,1.8,1.4
			c0.5,0.6,0.8,1.2,1,2c0.2,0.8,0.3,1.5,0.2,2.4c0,0.3-0.1,0.6-0.1,0.9c-0.1,0.3-0.1,0.7-0.2,1.2H73.8c-0.1,0.3-0.1,0.6-0.1,0.9
			s0,0.6,0,0.9c0,0.9,0.2,1.6,0.5,2.3s0.8,1.3,1.4,1.7c0.7,0.4,1.5,0.6,2.5,0.6c0.8,0,1.5-0.1,2.1-0.4s1.1-0.6,1.4-0.9
			c0.4-0.4,0.6-0.8,0.7-1.2h1.6c-0.1,0.6-0.4,1.2-0.9,1.8c-0.5,0.6-1.1,1.1-2,1.5c-0.8,0.4-1.8,0.6-3,0.6C76.9,35.2,75.8,35,75,34.5
			z M83.3,25.6c0-0.2,0-0.3,0-0.5c0.1-0.9,0-1.7-0.3-2.5s-0.7-1.3-1.4-1.7s-1.4-0.6-2.4-0.6c-0.8,0-1.6,0.2-2.3,0.6
			c-0.7,0.4-1.2,0.9-1.7,1.6c-0.5,0.7-0.8,1.5-1,2.5c0,0.2-0.1,0.3-0.1,0.5c0,0.2-0.1,0.3-0.1,0.5h9.1
			C83.3,25.9,83.3,25.7,83.3,25.6z"/>
		<path class="st0" d="M91,19.2h1.6l-0.5,2.7h0.1c0.4-0.9,1-1.6,1.9-2.1c0.8-0.5,1.8-0.8,3-0.8c1,0,1.9,0.2,2.7,0.7
			c0.7,0.4,1.3,1,1.7,1.8c0.4,0.7,0.6,1.6,0.6,2.5c0,0.3,0,0.7-0.1,1.1s-0.1,0.7-0.2,1l-1.6,9.1h-1.6l1.6-9.2c0-0.2,0.1-0.4,0.1-0.7
			c0-0.3,0.1-0.6,0.1-0.9c0-1.1-0.3-2-0.9-2.7c-0.6-0.7-1.6-1.1-2.8-1.1c-1,0-1.8,0.2-2.5,0.7c-0.7,0.5-1.3,1.1-1.7,1.8
			c-0.4,0.7-0.7,1.5-0.9,2.4L89.8,35h-1.6L91,19.2z"/>
		<path class="st0" d="M115.7,19.5c0.7,0.4,1.2,0.8,1.7,1.4c0.4,0.6,0.7,1.1,0.8,1.6h0.1l0.6-3.3h1.6l-2.7,15.6
			c-0.2,1.4-0.7,2.5-1.3,3.3c-0.6,0.9-1.4,1.5-2.3,1.9c-0.9,0.4-2,0.6-3.1,0.6c-1.1,0-2.1-0.2-3-0.6s-1.5-0.9-2-1.6
			c-0.5-0.6-0.7-1.4-0.7-2.2c0-0.1,0-0.1,0-0.2c0-0.1,0-0.1,0-0.2h1.6c0,0.1,0,0.1,0,0.2c0,0.1,0,0.1,0,0.2c0,0.8,0.4,1.4,1.1,2
			c0.7,0.6,1.8,0.9,3.1,0.9c0.9,0,1.6-0.1,2.3-0.4c0.7-0.3,1.3-0.8,1.8-1.4c0.5-0.7,0.8-1.6,1-2.7l0.5-2.8h-0.1
			c-0.2,0.4-0.5,0.9-0.9,1.3c-0.4,0.4-0.9,0.8-1.6,1.1c-0.6,0.3-1.4,0.4-2.3,0.4c-1,0-1.9-0.2-2.8-0.7s-1.5-1.1-2-2
			c-0.5-0.9-0.8-1.9-0.8-3c0-0.3,0-0.6,0-1s0.1-0.8,0.1-1.1l0.3-1.8c0.3-1.4,0.7-2.5,1.3-3.4c0.6-0.9,1.4-1.5,2.3-1.9
			c0.9-0.4,1.8-0.6,2.8-0.6C114.2,18.9,115,19.1,115.7,19.5z M117.2,22.6c-0.4-0.7-0.9-1.3-1.6-1.7c-0.7-0.4-1.5-0.6-2.3-0.6
			c-0.8,0-1.5,0.2-2.2,0.5c-0.7,0.4-1.3,0.9-1.7,1.6s-0.8,1.7-1,2.8l-0.3,1.5c0,0.2-0.1,0.5-0.1,0.9c0,0.3-0.1,0.6-0.1,0.8
			c0,1.5,0.4,2.6,1.2,3.5s1.9,1.2,3.2,1.2c0.9,0,1.7-0.2,2.4-0.6s1.3-1,1.7-1.7c0.5-0.7,0.8-1.5,0.9-2.3l0.4-2.1
			c0.1-0.3,0.1-0.6,0.1-0.9c0-0.2,0-0.4,0-0.5C117.8,24.1,117.6,23.3,117.2,22.6z"/>
		<path class="st0" d="M126.7,34.5c-0.9-0.4-1.6-1.1-2.1-2s-0.8-2-0.8-3.2c0-0.4,0-0.8,0.1-1.2c0.1-0.4,0.1-0.7,0.1-1l0.3-2
			c0.2-1.2,0.6-2.3,1.2-3.2c0.6-0.9,1.3-1.7,2.2-2.2s2-0.8,3.3-0.8c1,0,1.9,0.2,2.6,0.5c0.7,0.3,1.3,0.8,1.8,1.4
			c0.5,0.6,0.8,1.2,1,2c0.2,0.8,0.3,1.5,0.2,2.4c0,0.3-0.1,0.6-0.1,0.9c-0.1,0.3-0.1,0.7-0.2,1.2h-10.7c-0.1,0.3-0.1,0.6-0.1,0.9
			s0,0.6,0,0.9c0,0.9,0.2,1.6,0.5,2.3s0.8,1.3,1.4,1.7c0.7,0.4,1.5,0.6,2.5,0.6c0.8,0,1.5-0.1,2.1-0.4s1.1-0.6,1.4-0.9
			c0.4-0.4,0.6-0.8,0.7-1.2h1.6c-0.1,0.6-0.4,1.2-0.9,1.8c-0.5,0.6-1.1,1.1-2,1.5c-0.8,0.4-1.8,0.6-3,0.6
			C128.6,35.2,127.6,35,126.7,34.5z M135,25.6c0-0.2,0-0.3,0-0.5c0.1-0.9,0-1.7-0.3-2.5s-0.7-1.3-1.4-1.7s-1.4-0.6-2.4-0.6
			c-0.8,0-1.6,0.2-2.3,0.6c-0.7,0.4-1.2,0.9-1.7,1.6c-0.5,0.7-0.8,1.5-1,2.5c0,0.2-0.1,0.3-0.1,0.5c0,0.2-0.1,0.3-0.1,0.5h9.1
			C135,25.9,135,25.7,135,25.6z"/>
		<path class="st0" d="M147.2,35l3.6-20.7h6.7c1.9,0,3.3,0.5,4.2,1.4s1.4,2.2,1.4,3.6c0,0.2,0,0.5,0,0.7c0,0.2-0.1,0.5-0.1,0.7
			c-0.3,1.4-0.9,2.6-1.8,3.4c-1,0.8-2.1,1.4-3.4,1.6l3.1,9.1h-1.8l-2.9-8.9c-0.2,0-0.4,0-0.6,0c-0.2,0-0.4,0-0.6,0h-4.6l-1.5,8.8
			H147.2z M152.3,15.7l-1.6,8.9h4.7c1.2,0,2.2-0.2,3-0.5s1.5-0.8,2-1.4c0.5-0.6,0.8-1.3,1-2.2c0-0.2,0.1-0.3,0.1-0.5
			c0-0.2,0-0.4,0-0.6c0-0.7-0.1-1.3-0.4-1.8c-0.3-0.6-0.7-1-1.4-1.3c-0.6-0.3-1.5-0.5-2.5-0.5H152.3z"/>
		<path class="st0" d="M177.9,35H166l3.6-20.7h11.8l-0.2,1.5H171l-1.4,7.8h9.7l-0.3,1.5h-9.7l-1.5,8.4h10.2L177.9,35z"/>
		<path class="st0" d="M192,14.3c1.8,0,3.3,0.3,4.5,1c1.2,0.6,2.1,1.5,2.6,2.7c0.6,1.1,0.9,2.5,0.9,4c0,0.3,0,0.6,0,1
			s-0.1,0.8-0.1,1.2c-0.1,0.4-0.1,0.8-0.2,1.2c-0.1,0.4-0.1,0.7-0.2,1.1c-0.4,1.9-1,3.5-1.9,4.8c-0.9,1.3-2.1,2.2-3.7,2.8
			c-1.5,0.6-3.4,0.9-5.6,0.9H183l3.6-20.7H192z M184.9,33.5h3.5c2.7,0,4.8-0.6,6.4-1.8s2.6-3,3.1-5.5c0.1-0.3,0.1-0.6,0.2-1
			c0.1-0.3,0.1-0.7,0.2-1.1c0-0.3,0.1-0.7,0.1-1.1c0-0.4,0-0.7,0-0.9c0-1.3-0.2-2.5-0.7-3.4s-1.2-1.7-2.2-2.2
			c-1-0.5-2.3-0.8-3.8-0.8H188L184.9,33.5z"/>
		<path class="st0" d="M207,14.3h6.6c1.3,0,2.4,0.2,3.2,0.7c0.8,0.4,1.4,1,1.8,1.7c0.4,0.7,0.6,1.5,0.6,2.3c0,1-0.2,1.8-0.7,2.5
			c-0.4,0.7-1,1.3-1.7,1.8c-0.7,0.5-1.4,0.7-2.1,0.9l0,0.1c0.8,0.1,1.5,0.4,2.1,0.8c0.6,0.4,1.1,0.9,1.4,1.5s0.5,1.4,0.5,2.4
			c0,1.3-0.3,2.4-1,3.3s-1.6,1.6-2.8,2.1c-1.2,0.5-2.7,0.7-4.3,0.7h-7.1L207,14.3z M205.3,33.5h5.4c1.1,0,2.2-0.2,3.1-0.5
			c1-0.3,1.7-0.8,2.3-1.5c0.6-0.7,0.9-1.5,0.9-2.6c0-1.2-0.4-2.1-1.2-2.8c-0.8-0.7-2.1-1.1-3.9-1.1h-5.1L205.3,33.5z M207.1,23.6
			h4.8c1,0,1.9-0.2,2.7-0.5c0.8-0.3,1.5-0.8,2-1.5c0.5-0.6,0.8-1.5,0.8-2.5c0-1-0.3-1.9-1-2.5c-0.7-0.6-1.8-0.9-3.3-0.9h-4.7
			L207.1,23.6z"/>
		<path class="st0" d="M225.2,26.9c0,0.2-0.1,0.4-0.1,0.7c0,0.3,0,0.6,0,0.8c0,1.7,0.5,3,1.5,3.9c1,0.9,2.3,1.4,4,1.4
			c1.6,0,2.9-0.5,4-1.4c1.1-1,1.8-2.3,2.1-4.1l2.5-14.1h1.7l-2.5,14.2c-0.3,1.5-0.8,2.8-1.5,3.9c-0.7,1-1.6,1.8-2.7,2.3
			s-2.3,0.8-3.6,0.8c-1.4,0-2.6-0.3-3.7-0.8c-1.1-0.5-1.9-1.3-2.5-2.3c-0.6-1-0.9-2.2-0.9-3.6c0-0.3,0-0.7,0.1-1
			c0-0.3,0.1-0.7,0.1-0.9l2.2-12.5h1.7L225.2,26.9z"/>
		<path class="st0" d="M254.7,35h-11.7l3.6-20.7h1.6L245,33.5h10L254.7,35z"/>
		<path class="st0" d="M270.4,35h-11.7l3.6-20.7h1.6l-3.4,19.2h10L270.4,35z"/>
		<path class="st0" d="M284.8,35l-1.7-20.7h1.7l1.2,18.3h0.1l8.2-18.3h1.7l1.9,18.3h0.1l7.7-18.3h1.8L298.6,35h-1.8l-2-18h-0.1
			l-8.2,18H284.8z"/>
		<path class="st0" d="M309.7,29.2c0,0.1,0,0.2,0,0.3c0,0.1,0,0.2,0,0.3c0,0.7,0.2,1.4,0.7,2.1c0.5,0.6,1.1,1.1,1.9,1.5
			c0.8,0.4,1.8,0.6,3,0.6c1,0,2-0.2,2.8-0.5c0.8-0.3,1.4-0.8,1.9-1.5c0.5-0.7,0.7-1.4,0.7-2.3c0-0.8-0.2-1.5-0.6-2
			c-0.4-0.5-0.9-0.9-1.5-1.3c-0.6-0.3-1.3-0.6-2.1-0.9l-1.5-0.6c-0.9-0.3-1.7-0.7-2.4-1.2c-0.7-0.5-1.3-1.1-1.7-1.8
			c-0.4-0.7-0.7-1.5-0.7-2.5c0-1.2,0.3-2.1,0.9-3s1.4-1.5,2.4-1.9c1-0.4,2.2-0.7,3.5-0.7c1.2,0,2.3,0.2,3.3,0.7c1,0.4,1.8,1,2.3,1.8
			s0.9,1.7,0.9,2.7c0,0.1,0,0.2,0,0.3c0,0.1,0,0.2,0,0.3h-1.6c0,0,0-0.1,0-0.2c0-0.1,0-0.1,0-0.2c0-0.7-0.2-1.4-0.6-1.9
			c-0.4-0.6-1-1-1.7-1.4s-1.6-0.5-2.6-0.5c-0.9,0-1.7,0.1-2.5,0.4c-0.8,0.3-1.4,0.7-1.9,1.3c-0.5,0.6-0.7,1.3-0.7,2.2
			c0,1.1,0.4,1.9,1.1,2.5c0.7,0.6,1.6,1.1,2.7,1.6l1.6,0.6c0.9,0.4,1.8,0.7,2.5,1.2c0.8,0.4,1.4,1,1.8,1.6s0.7,1.5,0.7,2.6
			c0,1.2-0.3,2.3-0.9,3.2s-1.5,1.6-2.5,2.1s-2.3,0.7-3.7,0.7c-1.1,0-2.1-0.1-3-0.4c-0.9-0.3-1.6-0.7-2.2-1.2
			c-0.6-0.5-1.1-1.1-1.4-1.8c-0.3-0.7-0.5-1.4-0.5-2.1c0-0.1,0-0.3,0-0.4c0-0.1,0-0.2,0-0.3H309.7z"/>
		<path class="st0" d="M326.4,35l3.7-20.7h11.8l-0.3,1.5h-10.1l-1.4,8.1h9.3l-0.3,1.5h-9.3L328,35H326.4z"/>
	</g>
</g>
<g>
	
		<ellipse transform="matrix(0.2298 -0.9732 0.9732 0.2298 3.0958 273.4944)" class="st0" cx="174.3" cy="134.8" rx="50.9" ry="50.9"/>
	<g>
		<g>
			<defs>
				<rect id="SVGID_1_" x="52.3" width="246.5" height="319"/>
			</defs>
			<clipPath id="SVGID_2_">
				<use xlink:href="#SVGID_1_"  style="overflow:visible;"/>
			</clipPath>
			<g class="st1">
				<defs>
					<rect id="SVGID_3_" x="52.3" width="246.5" height="319"/>
				</defs>
				<clipPath id="SVGID_4_">
					<use xlink:href="#SVGID_3_"  style="overflow:visible;"/>
				</clipPath>
				<path class="st2" d="M171.4,160.3l-1.4-0.7c-2.5-1.4-3.5-4.2-5-6.4c-0.5-0.7-1.4-1.3-1.9-2c-1.8-4.8-3.2-9.6-3.7-15.1
					c-0.4-1.4-0.7-2.7-1.4-4.1c-2.3-3.7-5.1-6.9-7.9-10.3c-0.2-0.2-0.6-0.4-0.7-0.7l-9.7-8.2c-1.2-0.9-2.7-1.6-3.9-2.1
					c-2-0.9-4.8-0.6-6.8,0.2c-2.1,1.1-3.9,2.7-6.2,3.5c-3.2,1.4-6.8,1.6-9.6,4.2c-1.6,1.4-3,3.6-5.4,3.2c-2.7-0.2-5,0.9-7.1,2.5
					c-1.8,1.6-3.6,3.6-5.9,4.1c-2.1,0.9-4.6,0.5-6.7,1.2c-3.2,0.9-5.9,3.5-8.7,5.5c-2.9,1.6-5.5,3.5-9.1,3.4
					c-2.3-0.2-4.6-1.6-5.3-3.9c-0.6-2.7,0.2-5.3,2.1-6.9c2-2.5,5.4-3.9,7.1-6.8c0.9-1.4,0.9-3.9-0.4-5.4c-2.1-2.3-5.3-2.3-8.2-3
					c-1.8-0.5-3.2-1.9-5.1-3.6c-0.6,0.9-0.9,1.9-0.7,3.1c0.4,2.7,2.3,5,4.8,5.9c1.4,0.6,3.1,0.2,4.6,0.5c0.4,0.2,0.9,0.6,0.9,1.1
					c-0.2,0.4-0.2,0.9-0.5,1.1c-2.4,2-4.8,3.8-6.7,6.2c-2,2.3-2.3,6.2-1.2,8.9c1.2,3.2,4.6,5.4,7.8,5.7c2.4,0.4,4.4-0.2,6.6-0.7
					c0.2,0,0.4,0.4,0.5,0.5c0.2,1.9,0,3.6,0.4,5.3c0.4,1.6,0.9,2.7,1.4,4.3c0.2,0.6,0,1.2-0.4,1.6c-1.2,0.9-2.4,1.6-3.7,2.1
					l-3.2,0.2l-0.6,0.2c-1.2,1.4-1.2,2.9-1.9,4.4c-0.9,1.6-2.7,2.4-4.3,3.4c-0.5,0.9-0.9,1.6-1.6,2.3c-0.6,0.5-1.2,0.6-1.9,0.7
					c-1.2,1.3-1.4,3-1.6,4.8c1.8,0.2,3.7,1.1,5.5,0.2c1.6-0.7,1.8-2.7,3-3.7c0.9-0.9,2.3-0.2,3.4,0c1.6,0.2,2.7-0.9,4.1-1.6
					c0.9-0.6,1.8-1.6,2.7-2.3c1.9-0.9,4.6-0.4,6.4,0c1.6,0.4,3.2,0.2,4.6-0.5c1.3-0.7,2.5-1.6,3.9-2c1.2-0.7,1.8-2.1,2.4-3.4
					c0.5-1.1,1.6-1.9,1.4-3.2c-0.4-0.2-0.7-0.9-1.2-0.9c-0.6,0.9-1.1,1.8-1.8,2.7c-2.7,3.7-7.1,4.4-11.4,4.4
					c-4.6-0.2-8.5,1.2-11.6,4.6c-0.2,0.2-0.5,0-0.6-0.2c-0.2-0.5,0.2-0.9,0.5-1.2c2.9-3.9,7.1-4.8,11.6-4.9c2.5-0.2,4.9-0.6,6.9-1.6
					c2.3-1.2,3.9-3.6,4.9-5.9c0.6-2.7,0.7-5.4,1.4-7.9c0.2-0.2,0.4-0.4,0.6-0.2c0.2,0,0.5,0.2,0.5,0.5c-0.5,2.5-0.7,5.5,0.2,8
					c1.9,2.7,5.5,0.9,8.2,0.7c2.7-0.2,5.3,0.9,7.9,0.9c1.3-0.2,2.7,0.4,3.8-0.5c0.2-0.4,0-0.9-0.2-1.4c0-0.7-0.6-1.8,0.2-2.4
					c0.2-0.2,0.6-0.2,0.7,0.2c0.4,0.9,0.5,2,1.2,3c1.3,1.6,3.2,3,5,3.9c1.8,1.2,3.2,2.9,3.4,5c0,1.1-0.9,1.8-1.8,2.3
					c-1.4,0.7-2.9,1.2-4.6,1.1c-2.1-1.1-2.7-3.4-4.2-5c-0.7-0.7-1.9-0.9-3-0.9c-1.2,0.2-2.4,0.2-3.5,0.5c-0.4,0.2-0.4,0.6-0.4,0.9
					c0.7,1.4,1.6,2.7,2.4,4.1c0.9,0.6,2.3-0.4,3.1,0.7c0.7,1.1,1.2,2.3,2.3,3.1c1.1,0.9,2.7,1.3,3.9,0.7c3.1-0.9,6.1-1.9,8.9-3.5
					h0.4c1.2-0.2,2.4,0,3.2-0.9c0.9-1.3,1.6-2.5,2.4-3.9c0.7-0.9,0.4-2.3,0.2-3.4c-1.3-1.6-2.1-3.7-2.9-5.7
					c-0.7-0.2-1.4-0.6-2.1-0.6c-0.4,0.2-0.9,0.2-1.1,0.5l3.2,6.4c0.2,0.5,0.5,1.2,0.4,1.8c-0.5,1.4-1.2,2.7-2.3,3.7
					c-0.2,0.2-0.5,0.2-0.6,0c0.4-1.4,1.1-3,0.9-4.6l-3.1-5.7c-0.4-0.9-0.9-1.4-0.9-2.4c0-0.4,0.4-0.7,0.7-0.9
					c1.4-0.4,3.1-0.4,4.2-1.4c1.4-2.3,2.3-4.3,2.7-6.9c0.2-0.2,0.2-0.4,0.4-0.4c0.2,0,0.2,0.2,0.4,0.4c0.5,2.7-0.2,5.7-1.8,7.9
					c-0.2,0.2-0.2,0.6,0.2,0.9c1.6,0.5,3.2,0,4.6-0.7c1.6,0,3.2-0.4,4.8-0.6c0.2,0,0.4,0.2,0.4,0.4c-1.1,1.2-1.6,2.5-1.9,3.9
					c-1.2,1.2-3,2.4-3.1,4.2c0.2,0.9,1.1,0,1.6,0.2c0.2,0,0.4,0.2,0.4,0.5l-1.2,1.8c-0.6,1.1,0.2,2.3,0.2,3.4
					c0.4,0.9,1.3,1.2,2.1,1.2c1.8,0,3.5-0.7,5.1-1.3c1.8-0.7,3.9-0.7,6-0.4c1.9-0.2,3.4-1.3,4.8-2.7c0.9,0,1.6,0.5,2,1.1
					c2.3,2.4,5.1,3.5,8.4,3.4l0.2-0.2c0.2-0.2,0.2-0.6-0.2-0.7l-1.9-0.9c-1.3-0.9-3-1.9-3.5-3.5c-0.4-1.4-1.1-2.9-1.9-4.2
					c-0.2-0.6-0.9-1.1-1.2-1.8c0,0,0.2-0.2,0.2-0.2c2.1,0.9,3.5,2.9,4.4,4.8c1.6,2.1,3.8,3.9,6.8,3.5l0.2-0.2
					C171.4,160.6,171.4,160.4,171.4,160.3 M137,131.3L137,131.3l-0.1,0.2c-0.2,0.2-0.3,0.2-0.5,0.2s-0.3-0.1-0.5-0.2l-0.1-0.1v-0.2
					c-0.3-1.6-0.7-3.3-1.3-4.9c-0.1-0.2-0.3-0.5-0.5-0.9c-0.5-0.6-1-1.4-0.5-2.4l0.1-0.2c0.4-0.4,1-0.4,1.5-0.2h0.1l0.1,0.1
					c0.5,0.5,0.9,1.1,1.3,1.6l0.2,0.4C137.5,126.7,137.5,129.1,137,131.3 M152.6,158.7L152.6,158.7c-0.7,0.3-1.4,0.4-2,0.4
					c-0.2,0-0.5,0-0.8-0.1l-0.2-0.1c-0.2-0.1-0.9-0.4-0.5-1c0.4-1.1,1.5-2.4,2.9-2.7c0.8,0,1.2,0.2,1.3,0.8
					C153.5,156.6,153.5,158,152.6,158.7 M157.6,147.2l-0.1,0.2c-0.1,0.1-0.1,0.2-0.1,0.3c-0.1,0.3-0.2,0.9-0.9,1
					c-0.1,0-0.2,0.1-0.2,0.1c-0.2,0-0.2,0-0.4-0.1c-0.2-0.2-0.4-0.4-0.4-0.7c0-0.2,0-0.3-0.1-0.5c-0.1-0.9-0.2-1.7-0.5-2.4
					c-0.2-0.2-0.3-0.3-0.5-0.5c-0.5-0.6-1.2-1.3-1.8-1.4c-0.5,0.2-1,0.8-1.4,1.3c-0.1,0.1-0.2,0.2-0.2,0.2c-0.1,0.2-0.2,0.2-0.3,0.3
					c-0.2,0.1-0.5,0-0.6-0.2l-0.1-0.2c-0.4-1,0.1-2,0.5-2.7c0.2-0.2,0.3-0.5,0.4-0.7l0.1-0.2c0.2-0.2,0.3-0.5,0.5-0.9
					c0.2-0.5,0.5-1.2,1-1.4c0.3-0.2,0.7-0.2,1.2,0l0.1,0.1c0.7,0.5,1.1,1.2,1.4,1.7c0.2,0.4,0.4,0.7,0.6,0.9
					C156.9,143,158.3,144.8,157.6,147.2"/>
				<path class="st2" d="M180.3,160.7l0.2,0.2c3,0.5,5.3-1.3,6.8-3.5c0.9-1.9,2.3-3.9,4.4-4.8c0.1,0,0.2,0.2,0.2,0.2
					c-0.2,0.7-0.9,1.2-1.2,1.8c-0.8,1.3-1.5,2.7-1.9,4.2c-0.5,1.6-2.1,2.6-3.5,3.5l-1.9,0.9c-0.3,0.1-0.4,0.5-0.2,0.7l0.2,0.2
					c3.3,0.1,6.1-1,8.4-3.4c0.5-0.6,1.2-1.1,2-1.1c1.4,1.3,2.9,2.5,4.8,2.7c2-0.3,4.2-0.3,6,0.4c1.6,0.6,3.3,1.3,5.1,1.3
					c0.8,0,1.7-0.3,2.1-1.2c0-1.1,0.8-2.3,0.2-3.4l-1.2-1.8c0-0.2,0.2-0.5,0.4-0.5c0.5-0.2,1.3,0.7,1.6-0.2c-0.2-1.8-2-3-3.1-4.2
					c-0.2-1.4-0.8-2.7-1.9-3.9c0-0.2,0.2-0.4,0.4-0.4c1.6,0.2,3.1,0.6,4.8,0.6c1.3,0.7,3,1.2,4.6,0.7c0.4-0.2,0.3-0.6,0.2-0.9
					c-1.6-2.3-2.3-5.2-1.8-7.9c0.2-0.2,0.2-0.4,0.4-0.4c0.2,0,0.2,0.2,0.4,0.4c0.4,2.6,1.3,4.6,2.7,6.9c1,1,2.7,1,4.2,1.4
					c0.3,0.2,0.7,0.5,0.7,0.9c0,0.9-0.5,1.5-0.9,2.4l-3.1,5.7c-0.2,1.6,0.5,3.1,0.9,4.6c-0.2,0.2-0.4,0.2-0.6,0
					c-1.1-0.9-1.8-2.3-2.3-3.7c-0.1-0.6,0.2-1.3,0.4-1.8l3.2-6.4c-0.2-0.3-0.7-0.3-1.1-0.5c-0.7,0-1.4,0.4-2.1,0.6
					c-0.8,2-1.6,4-2.9,5.7c-0.2,1.1-0.5,2.5,0.2,3.4c0.7,1.4,1.4,2.6,2.4,3.9c0.9,0.9,2,0.7,3.2,0.9h0.4c2.8,1.6,5.8,2.5,8.9,3.5
					c1.3,0.6,2.8,0.2,3.9-0.7c1.1-0.9,1.6-2,2.3-3.1c0.9-1.1,2.2-0.1,3.1-0.7c0.8-1.3,1.6-2.7,2.4-4.1c0-0.3,0-0.7-0.4-0.9
					c-1.1-0.3-2.3-0.3-3.5-0.5c-1.1-0.1-2.3,0.2-3,0.9c-1.4,1.6-2,3.9-4.2,5c-1.6,0.1-3.1-0.4-4.6-1.1c-0.9-0.5-1.8-1.2-1.8-2.3
					c0.2-2.1,1.6-3.8,3.4-5c1.8-0.9,3.7-2.3,5-3.9c0.7-0.9,0.8-2,1.2-3c0.1-0.3,0.5-0.3,0.7-0.2c0.8,0.5,0.2,1.6,0.2,2.4
					c-0.2,0.5-0.4,1-0.2,1.4c1.1,0.9,2.5,0.3,3.8,0.5c2.7-0.1,5.2-1.2,7.9-0.9c2.7,0.2,6.3,2,8.2-0.7c0.9-2.5,0.7-5.5,0.2-8
					c0-0.2,0.2-0.5,0.5-0.5c0.2-0.2,0.5,0,0.6,0.2c0.7,2.5,0.8,5.3,1.4,7.9c0.9,2.3,2.6,4.7,4.9,5.9c2,1,4.4,1.4,6.9,1.6
					c4.6,0.1,8.7,0.9,11.6,4.9c0.2,0.3,0.6,0.7,0.5,1.2c-0.2,0.2-0.5,0.3-0.6,0.2c-3.1-3.5-7.1-4.9-11.6-4.6
					c-4.3,0-8.6-0.7-11.4-4.4c-0.7-0.9-1.2-1.7-1.8-2.7c-0.5,0-0.8,0.6-1.2,0.9c-0.2,1.3,0.9,2.1,1.4,3.2c0.5,1.3,1.2,2.7,2.4,3.4
					c1.4,0.4,2.6,1.3,3.9,2c1.3,0.6,3,0.9,4.6,0.5c1.9-0.4,4.6-0.9,6.4,0c0.9,0.6,1.8,1.6,2.7,2.3c1.3,0.6,2.5,1.7,4.1,1.6
					c1.1-0.2,2.4-0.9,3.4,0c1.2,1,1.4,3,3,3.7c1.8,0.9,3.7,0,5.5-0.2c-0.2-1.8-0.5-3.5-1.6-4.8c-0.7-0.1-1.3-0.2-1.9-0.7
					c-0.7-0.6-1.2-1.4-1.6-2.3c-1.6-1-3.4-1.7-4.3-3.4c-0.7-1.5-0.7-3-1.9-4.4l-0.6-0.2l-3.2-0.2c-1.3-0.5-2.5-1.2-3.7-2.1
					c-0.4-0.4-0.5-0.9-0.4-1.6c0.5-1.6,1-2.7,1.4-4.3c0.4-1.6,0.2-3.4,0.4-5.3c0.1-0.1,0.2-0.5,0.5-0.5c2.2,0.5,4.2,1.1,6.6,0.7
					c3.2-0.3,6.6-2.5,7.8-5.7c1.1-2.7,0.9-6.7-1.2-8.9c-1.9-2.4-4.3-4.2-6.7-6.2c-0.3-0.2-0.3-0.7-0.5-1.1c0-0.5,0.5-0.9,0.9-1.1
					c1.4-0.3,3.1,0.2,4.6-0.5c2.5-0.9,4.4-3.2,4.8-5.9c0.2-1.3-0.1-2.2-0.7-3.1c-1.9,1.7-3.3,3.1-5.1,3.6c-2.9,0.7-6,0.7-8.2,3
					c-1.3,1.5-1.3,4-0.4,5.4c1.6,2.9,5,4.3,7.1,6.8c2,1.6,2.7,4.2,2.1,6.9c-0.7,2.3-3,3.8-5.3,3.9c-3.6,0.1-6.2-1.7-9.1-3.4
					c-2.8-2-5.5-4.6-8.7-5.5c-2.1-0.7-4.6-0.3-6.7-1.2c-2.3-0.5-4.1-2.4-5.9-4.1c-2-1.6-4.4-2.7-7.1-2.5c-2.4,0.4-3.8-1.8-5.4-3.2
					c-2.7-2.5-6.4-2.7-9.6-4.2c-2.3-0.7-4.1-2.4-6.2-3.5c-2-0.9-4.8-1.1-6.8-0.2c-1.3,0.5-2.7,1.2-3.9,2.1l-9.7,8.2
					c-0.1,0.3-0.5,0.5-0.7,0.7c-2.8,3.4-5.7,6.6-7.9,10.3c-0.7,1.3-1,2.7-1.4,4.1c-0.5,5.5-1.9,10.3-3.7,15.1
					c-0.5,0.7-1.4,1.3-1.9,2c-1.6,2.2-2.5,4.9-5,6.4l-1.4,0.7C180.5,160.4,180.5,160.6,180.3,160.7 M215.2,124.8l0.2-0.4
					c0.4-0.5,0.7-1.1,1.3-1.6l0.1-0.1h0.1c0.5-0.2,1.1-0.2,1.5,0.2l0.1,0.2c0.5,0.9-0.1,1.7-0.5,2.4c-0.2,0.3-0.4,0.6-0.5,0.9
					c-0.6,1.6-1,3.3-1.3,4.9v0.2l-0.1,0.1c-0.2,0.2-0.3,0.2-0.5,0.2c-0.2,0-0.3-0.1-0.5-0.2l-0.1-0.1v-0.1
					C214.4,129.1,214.5,126.7,215.2,124.8 M198.6,156c0.2-0.5,0.5-0.8,1.3-0.8c1.4,0.3,2.5,1.6,2.9,2.7c0.3,0.6-0.3,0.9-0.5,1
					l-0.2,0.1c-0.2,0.1-0.5,0.1-0.8,0.1c-0.6,0-1.3-0.1-2-0.3l-0.1-0.1C198.4,158,198.4,156.6,198.6,156 M196.2,141.6
					c0.2-0.2,0.4-0.5,0.6-0.9c0.3-0.5,0.7-1.3,1.4-1.7l0.1-0.1c0.5-0.2,0.9-0.2,1.2,0c0.5,0.2,0.8,0.9,1,1.4
					c0.2,0.3,0.3,0.7,0.5,0.9l0.1,0.2c0.1,0.2,0.2,0.5,0.4,0.7c0.4,0.7,0.9,1.6,0.5,2.7l-0.1,0.2c-0.2,0.2-0.4,0.2-0.6,0.2
					c-0.2-0.1-0.2-0.2-0.3-0.3c0-0.1-0.1-0.2-0.2-0.2c-0.4-0.5-0.9-1.2-1.4-1.3c-0.6,0.1-1.3,0.8-1.8,1.4c-0.2,0.2-0.4,0.4-0.5,0.5
					c-0.4,0.6-0.5,1.5-0.5,2.4c-0.1,0.2-0.1,0.4-0.1,0.5c0,0.3-0.2,0.5-0.4,0.7c-0.2,0.1-0.2,0.1-0.4,0.1c-0.1,0-0.2-0.1-0.2-0.1
					c-0.6-0.2-0.8-0.7-0.9-1c0-0.2,0-0.2-0.1-0.3l-0.1-0.2C193.7,144.8,195,143,196.2,141.6"/>
				<path class="st2" d="M248.7,171c1,0,1.9,0.3,2.5,1.1c0.7,0.7,1,1.6,1,2.5c0,1-0.3,1.9-1,2.5c-0.7,0.8-1.5,1.1-2.5,1.1
					s-1.9-0.3-2.5-1.1c-0.7-0.7-1-1.6-1-2.5c0-1,0.3-1.9,1-2.5C246.9,171.4,247.7,171,248.7,171 M252.9,174.5c0-1.1-0.4-2.1-1.2-2.9
					c-0.8-0.8-1.8-1.3-2.9-1.3c-1.2,0-2.1,0.4-2.9,1.3c-0.8,0.8-1.2,1.8-1.2,2.9c0,1.2,0.4,2.1,1.2,2.9c0.8,0.8,1.8,1.3,2.9,1.3
					c1.2,0,2.1-0.4,2.9-1.3C252.4,176.7,252.9,175.7,252.9,174.5 M249.8,173.7c0,0.3-0.2,0.6-0.5,0.8c-0.2,0.1-0.4,0.1-0.8,0.1h-0.8
					v-1.7h0.7c0.4,0,0.8,0.1,1,0.2C249.7,173.2,249.8,173.4,249.8,173.7 M247.1,172.3v4.5h0.8V175h0.6c0.4,0,0.8,0.1,0.8,0.2
					c0.3,0.2,0.4,0.5,0.4,1.1v0.6h0.8l-0.1-0.1c0-0.1-0.1-0.1-0.1-0.3v-0.7c0-0.3-0.1-0.4-0.3-0.8c-0.2-0.3-0.4-0.4-0.8-0.4
					c0.3-0.1,0.5-0.1,0.7-0.3c0.3-0.2,0.4-0.5,0.4-0.9c0-0.6-0.3-0.9-0.8-1.2c-0.3-0.1-0.7-0.2-1.3-0.2L247.1,172.3L247.1,172.3z"/>
				<path class="st3" d="M211.3,186.3h-5.6v10.9c0,3.6,3.8,6.7,8.5,6.7c4.7,0,8.8-3.1,8.8-6.7v-10.9h-5.6v9.9c0,1.6-1.3,2.9-3,2.9
					c-1.7,0-3.1-1.3-3.1-2.9V186.3z"/>
				<path class="st3" d="M117.2,180.2V203h-5.7v-27.5h10.4c4.5,0,8.2,3.7,8.2,8.2c0,3.8-2.7,7-6.2,7.8l8,11.5h-6.9l-5.7-9v-6.6h1.3
					c2.1,0,3.9-1.6,3.9-3.6c0-2-1.6-3.6-3.8-3.6L117.2,180.2L117.2,180.2z"/>
				<path class="st3" d="M164.8,174.2v13.6c-1.4-1.4-3.3-2.2-5.4-2.2c-4.5,0-8.2,4-8.2,8.9c0,5,3.6,8.9,8.2,8.9
					c2.1,0,4.1-0.8,5.4-2.4v1.9h5.5v-28.8H164.8z M161,198.8c-2.2,0-4-2-4-4.4c0-2.4,1.8-4.4,4-4.4c2.2,0,4,2,4,4.4
					C164.9,196.8,163.2,198.8,161,198.8"/>
				<path class="st3" d="M199.1,188.1c1.5-1.4,2.4-3.3,2.4-5.3c0-1.9-0.8-3.6-1.9-5c-1.3-1.4-3.6-2.3-6.7-2.3h-9.3V203h12
					c4.5-0.1,8.3-3.6,8.3-7.9C203.9,192,202.8,189.7,199.1,188.1 M194.5,198.3h-5.2v-17.8h3.6c1.6,0,2.9,1.2,2.9,2.9
					s-1.3,2.9-2.9,2.9h-1.9v5h3.5c1.9,0,3.4,1.6,3.4,3.5C197.9,196.7,196.6,198.2,194.5,198.3"/>
				<rect x="225.7" y="174.2" class="st2" width="5.5" height="28.8"/>
				<rect x="234.9" y="174.2" class="st2" width="5.5" height="28.8"/>
				<path class="st2" d="M140,185.3c-5,0-9,4.1-9,9.2s4,9.2,9,9.2c3.8,0,6.7-1.8,8.3-4.5l-4.4-2c-0.6,1.2-1.9,2.1-3.5,2.1
					c-2,0-3.7-1.6-3.7-3.6h12c0-0.4,0.1-0.8,0.1-1.2C148.8,188.5,145,185.3,140,185.3 M136.6,192.4c0-1.9,1.5-3.4,3.3-3.4
					c1.9,0,3.3,1.5,3.3,3.4H136.6z"/>
				<path class="st4" d="M210,167.3c-2.2,0-4.1-0.7-5.8-1.4l-0.4-0.2c-0.7-0.3-1.4-0.4-2.3-0.4c-0.6,0-1.3,0.1-2,0.2
					c-0.2,0-0.3,0-0.5,0c-0.1,0-0.2,0-0.3,0c-1.9-0.2-3.5-0.9-4.8-1.9c-2.7,2.5-6,3.7-9.8,3.7c-0.1,0-0.3,0-0.4,0
					c-0.6,0-1.2-0.2-1.7-0.5l-0.2-0.2c-0.2-0.1-0.3-0.3-0.5-0.4c-0.6-0.6-0.9-1.3-1-2.1c0,0,0,0-0.1,0c-0.7-0.1-1.3-0.4-1.8-0.9
					L178,163c-0.7-0.7-1.1-1.8-0.9-2.8c0.1-0.5,0.3-0.9,0.5-1.3c0.1-0.3,0.3-0.6,0.6-0.9c0.2-0.2,0.5-0.5,0.8-0.6l1.3-0.7
					c1-0.6,1.7-1.8,2.5-3.1c0.4-0.7,0.9-1.5,1.4-2.2c0.4-0.6,1-1.1,1.4-1.5c0.1-0.1,0.2-0.2,0.3-0.3c1.9-5.2,2.9-9.3,3.3-13.7
					c0-0.2,0.1-0.4,0.1-0.6l0.1-0.5c0.4-1.3,0.7-2.7,1.5-4.2c0-0.1,0.1-0.1,0.1-0.2c2.1-3.4,4.7-6.5,7.2-9.4c0.3-0.4,0.7-0.8,1-1.2
					c0.2-0.2,0.4-0.4,0.6-0.5c0.2-0.2,0.3-0.4,0.5-0.6l9.7-8.2c0,0,0,0,0.1-0.1c1.5-1.2,3.1-1.9,4.5-2.5c0,0,0.2-0.1,0.2-0.1
					c1.2-0.5,2.5-0.8,4-0.8c-9-14.2-24.8-23.7-42.9-23.7c-18.1,0-33.9,9.5-42.9,23.7c1.4,0,2.8,0.3,4,0.8c0,0,0.2,0.1,0.2,0.1
					c1.3,0.6,3,1.3,4.5,2.5c0,0,0,0,0.1,0.1l9.7,8.2c0.2,0.2,0.4,0.4,0.5,0.6c0.2,0.2,0.4,0.3,0.6,0.5c0.3,0.4,0.7,0.8,1,1.2
					c2.5,2.9,5,6,7.2,9.4c0,0.1,0.1,0.1,0.1,0.2c0.8,1.5,1.2,2.9,1.5,4.2l0.1,0.5c0.1,0.2,0.1,0.4,0.1,0.6c0.4,4.3,1.4,8.5,3.3,13.7
					c0.1,0.1,0.2,0.2,0.3,0.3c0.4,0.4,0.9,0.9,1.4,1.5c0.5,0.7,1,1.5,1.4,2.2c0.8,1.4,1.5,2.6,2.5,3.1l1.3,0.7
					c0.3,0.2,0.6,0.4,0.8,0.6c0.3,0.3,0.5,0.6,0.6,0.9c0.3,0.4,0.4,0.8,0.5,1.3c0.2,1-0.2,2.1-0.9,2.8l-0.2,0.2
					c-0.5,0.5-1.1,0.8-1.8,0.9c0,0,0,0-0.1,0c-0.1,0.8-0.5,1.5-1.1,2.1c-0.2,0.2-0.3,0.3-0.5,0.4l-0.2,0.2c-0.5,0.3-1.1,0.5-1.7,0.5
					c-0.1,0-0.3,0-0.4,0c-3.8,0-7.1-1.3-9.8-3.7c-1.3,1-2.9,1.8-4.8,1.9c-0.1,0-0.2,0-0.3,0c-0.2,0-0.3,0-0.5,0
					c-0.7-0.1-1.4-0.2-2-0.2c-0.9,0-1.7,0.1-2.3,0.4l-0.5,0.2c-1.7,0.6-3.6,1.4-5.8,1.4c-2.1,0-3.9-1-4.8-2.6
					c-0.2,0.3-0.4,0.7-0.7,1c6.6,8.2,15.6,14.3,26,17.1v-11h10.2v12.7c1.1,0.1,2.2,0.1,3.4,0.1c1.8,0,3.6-0.1,5.4-0.3v-11.2H193
					c3.6,0,6.5,1,8.4,3l0.1,0.1c0.3,0.3,0.6,0.7,0.8,1.1c5.1-3.1,9.6-7,13.3-11.6c-0.2-0.3-0.5-0.7-0.7-1
					C213.9,166.3,212.1,167.3,210,167.3"/>
			</g>
		</g>
	</g>
</g>
<g id="event_x5F_know_x5F_more_3_">
	<rect id="event_x5F_know_x5F_more_x5F_button_3_" x="77.7" y="253.9" class="st5" width="190.5" height="44.3"/>
	<g>
		<path class="st6" d="M111.9,280.1c0,0.4,0.1,0.7,0.3,1s0.4,0.5,0.7,0.6c0.3,0.2,0.6,0.2,1,0.2c0.7,0,1.2-0.2,1.6-0.6
			c0.4-0.4,0.5-1,0.5-1.7v-9.8h2.3v9.7c0,1.5-0.4,2.6-1.2,3.4c-0.8,0.8-1.9,1.2-3.3,1.2c-0.7,0-1.3-0.1-1.8-0.3
			c-0.5-0.2-1-0.5-1.3-0.8c-0.4-0.4-0.6-0.8-0.8-1.2c-0.2-0.5-0.3-1-0.3-1.5H111.9z"/>
		<path class="st6" d="M123.6,283.4c-0.7-0.4-1.3-0.9-1.7-1.7c-0.4-0.7-0.6-1.6-0.6-2.6v-1.5c0-1,0.2-1.9,0.6-2.6
			c0.4-0.7,1-1.3,1.7-1.7c0.7-0.4,1.5-0.6,2.4-0.6c0.9,0,1.7,0.2,2.4,0.6c0.7,0.4,1.2,1,1.6,1.7c0.4,0.7,0.6,1.6,0.6,2.6v1.3h-7v0.5
			c0,0.8,0.2,1.4,0.7,1.9c0.4,0.5,1.1,0.8,1.9,0.8c0.4,0,0.7-0.1,1.1-0.2c0.3-0.1,0.6-0.3,0.7-0.4s0.3-0.4,0.4-0.6h2.2
			c0,0.3-0.1,0.6-0.3,1s-0.5,0.7-0.8,1c-0.4,0.3-0.8,0.6-1.3,0.8c-0.5,0.2-1.2,0.3-1.9,0.3C125.1,284,124.3,283.8,123.6,283.4z
			 M128.4,277.4C128.4,277.4,128.4,277.4,128.4,277.4c0-0.1,0-0.1,0-0.1c0-0.5-0.1-1-0.3-1.4s-0.5-0.7-0.8-0.9
			c-0.4-0.2-0.8-0.3-1.3-0.3s-0.9,0.1-1.3,0.3c-0.4,0.2-0.6,0.5-0.8,0.9s-0.3,0.9-0.3,1.4c0,0,0,0.1,0,0.1c0,0,0,0,0,0.1H128.4z"/>
		<path class="st6" d="M138.1,273h2.2v1.8h0.1c0.1-0.3,0.2-0.5,0.4-0.8c0.2-0.3,0.5-0.5,0.9-0.8c0.4-0.2,0.9-0.3,1.6-0.3
			c0.5,0,1,0.1,1.4,0.3c0.4,0.2,0.7,0.4,1,0.7c0.3,0.3,0.4,0.7,0.6,1h0.1c0.1-0.3,0.3-0.7,0.6-1c0.3-0.3,0.6-0.6,1.1-0.8
			c0.4-0.2,1-0.3,1.6-0.3c1.1,0,2,0.3,2.6,0.9c0.6,0.6,0.9,1.4,0.9,2.5v7.6H151v-6.9c0-0.5-0.1-0.8-0.2-1.2s-0.4-0.6-0.7-0.7
			c-0.3-0.2-0.7-0.3-1.1-0.3c-0.4,0-0.8,0.1-1.1,0.3c-0.3,0.2-0.6,0.5-0.8,0.8s-0.3,0.8-0.3,1.2v6.7h-2.2v-6.8
			c0-0.5-0.1-0.9-0.3-1.2c-0.2-0.3-0.4-0.6-0.7-0.8c-0.3-0.2-0.7-0.3-1.1-0.3c-0.4,0-0.8,0.1-1.1,0.3c-0.3,0.2-0.6,0.5-0.8,0.8
			s-0.3,0.8-0.3,1.2v6.7h-2.3V273z"/>
		<path class="st6" d="M156.4,275.9l0.8-6.1h2.5l-1.4,6.1H156.4z"/>
		<path class="st6" d="M163.3,268.7c0.3-0.3,0.6-0.4,1.1-0.4c0.5,0,0.8,0.1,1.1,0.4c0.3,0.3,0.4,0.6,0.4,1c0,0.4-0.1,0.7-0.4,1
			c-0.3,0.3-0.6,0.4-1.1,0.4c-0.4,0-0.8-0.1-1.1-0.4c-0.3-0.3-0.4-0.6-0.4-1C162.9,269.3,163,269,163.3,268.7z M163.3,273h2.3v10.8
			h-2.3V273z"/>
		<path class="st6" d="M169.2,273h2.2v1.9h0.1c0.1-0.3,0.3-0.6,0.5-0.9c0.2-0.3,0.6-0.6,1-0.8c0.4-0.2,1-0.3,1.8-0.3
			c1.1,0,2,0.3,2.6,0.9c0.7,0.6,1,1.5,1,2.8v7.3h-2.3v-6.6c0-0.6-0.1-1-0.3-1.4c-0.2-0.4-0.4-0.6-0.8-0.8c-0.3-0.2-0.7-0.3-1.1-0.3
			c-0.6,0-1,0.1-1.4,0.4c-0.4,0.3-0.7,0.6-0.9,1.1c-0.2,0.5-0.3,1-0.3,1.6v6h-2.3V273z"/>
		<path class="st6" d="M181.9,274.2c0.4-0.5,0.9-0.8,1.5-1.1c0.6-0.2,1.3-0.3,2.1-0.3c0.8,0,1.5,0.1,2.1,0.4s1.1,0.6,1.4,1.1
			c0.3,0.5,0.5,1,0.5,1.7h-2c0-0.2-0.1-0.5-0.3-0.7c-0.2-0.2-0.4-0.4-0.7-0.5c-0.3-0.1-0.7-0.2-1.1-0.2c-0.6,0-1,0.1-1.4,0.4
			c-0.4,0.3-0.5,0.6-0.5,1.1c0,0.3,0.1,0.5,0.3,0.7c0.2,0.2,0.4,0.3,0.7,0.4s0.6,0.2,0.9,0.2c0.3,0.1,0.6,0.1,0.9,0.2
			c0.7,0.1,1.3,0.3,1.8,0.5c0.5,0.2,1,0.5,1.3,0.9c0.3,0.4,0.5,0.9,0.5,1.6c0,0.7-0.2,1.4-0.5,1.9c-0.4,0.5-0.9,0.9-1.5,1.2
			s-1.5,0.4-2.4,0.4c-0.9,0-1.6-0.1-2.2-0.4c-0.6-0.2-1.1-0.6-1.5-1.1s-0.5-1-0.5-1.7h2.2c0,0.3,0.1,0.5,0.3,0.8
			c0.2,0.2,0.4,0.4,0.7,0.5c0.3,0.1,0.7,0.2,1.1,0.2c0.5,0,0.9-0.1,1.2-0.2c0.3-0.1,0.5-0.3,0.7-0.6c0.1-0.2,0.2-0.5,0.2-0.8
			c0-0.4-0.1-0.7-0.4-0.9s-0.6-0.3-1-0.4c-0.4-0.1-0.9-0.2-1.3-0.3c-0.7-0.1-1.3-0.3-1.8-0.5c-0.5-0.2-1-0.5-1.3-0.9
			c-0.3-0.4-0.5-1-0.5-1.7C181.3,275.3,181.5,274.7,181.9,274.2z"/>
		<path class="st6" d="M192.1,277.6c0-1,0.2-1.8,0.6-2.5s0.9-1.3,1.6-1.7s1.5-0.6,2.5-0.6c0.9,0,1.7,0.2,2.3,0.5
			c0.6,0.3,1.1,0.8,1.4,1.3c0.3,0.5,0.5,1.1,0.5,1.7h-2.1c0-0.2-0.1-0.5-0.3-0.7c-0.1-0.3-0.4-0.5-0.6-0.6c-0.3-0.2-0.7-0.3-1.2-0.3
			c-0.8,0-1.4,0.3-1.8,0.8c-0.4,0.5-0.6,1.2-0.6,2.1v1.5c0,0.9,0.2,1.6,0.6,2.2c0.4,0.5,1,0.8,1.8,0.8c0.5,0,0.9-0.1,1.2-0.2
			s0.5-0.3,0.7-0.6s0.3-0.5,0.3-0.8h2.1c0,0.6-0.2,1.2-0.5,1.7c-0.3,0.5-0.8,0.9-1.4,1.3c-0.6,0.3-1.4,0.5-2.4,0.5
			c-1,0-1.8-0.2-2.5-0.6c-0.7-0.4-1.2-0.9-1.6-1.7c-0.4-0.7-0.6-1.6-0.6-2.6V277.6z"/>
		<path class="st6" d="M204,273h2.3v1.7h0.1c0.1-0.2,0.2-0.5,0.4-0.8c0.2-0.3,0.5-0.5,0.9-0.7c0.4-0.2,0.9-0.3,1.5-0.3
			c0.1,0,0.3,0,0.4,0c0.1,0,0.2,0,0.4,0v2c-0.1,0-0.2,0-0.4-0.1s-0.4,0-0.6,0c-0.6,0-1.1,0.1-1.5,0.3s-0.7,0.5-0.9,0.9
			c-0.2,0.4-0.3,0.8-0.3,1.3v6.4H204V273z"/>
		<path class="st6" d="M212.6,268.7c0.3-0.3,0.6-0.4,1.1-0.4c0.5,0,0.8,0.1,1.1,0.4c0.3,0.3,0.4,0.6,0.4,1c0,0.4-0.1,0.7-0.4,1
			c-0.3,0.3-0.6,0.4-1.1,0.4c-0.4,0-0.8-0.1-1.1-0.4s-0.4-0.6-0.4-1C212.2,269.3,212.4,269,212.6,268.7z M212.6,273h2.3v10.8h-2.3
			V273z"/>
		<path class="st6" d="M218.6,274.2c0.4-0.5,0.9-0.8,1.5-1.1c0.6-0.2,1.3-0.3,2.1-0.3c0.8,0,1.5,0.1,2.1,0.4s1.1,0.6,1.4,1.1
			c0.3,0.5,0.5,1,0.5,1.7h-2c0-0.2-0.1-0.5-0.3-0.7c-0.2-0.2-0.4-0.4-0.7-0.5c-0.3-0.1-0.7-0.2-1.1-0.2c-0.6,0-1,0.1-1.4,0.4
			c-0.4,0.3-0.5,0.6-0.5,1.1c0,0.3,0.1,0.5,0.3,0.7c0.2,0.2,0.4,0.3,0.7,0.4c0.3,0.1,0.6,0.2,0.9,0.2c0.3,0.1,0.6,0.1,0.9,0.2
			c0.7,0.1,1.3,0.3,1.8,0.5c0.5,0.2,1,0.5,1.3,0.9c0.3,0.4,0.5,0.9,0.5,1.6c0,0.7-0.2,1.4-0.5,1.9c-0.4,0.5-0.9,0.9-1.5,1.2
			c-0.7,0.3-1.5,0.4-2.4,0.4c-0.9,0-1.6-0.1-2.2-0.4s-1.1-0.6-1.5-1.1c-0.3-0.5-0.5-1-0.5-1.7h2.2c0,0.3,0.1,0.5,0.3,0.8
			c0.2,0.2,0.4,0.4,0.7,0.5c0.3,0.1,0.7,0.2,1.1,0.2c0.5,0,0.9-0.1,1.2-0.2c0.3-0.1,0.5-0.3,0.7-0.6c0.1-0.2,0.2-0.5,0.2-0.8
			c0-0.4-0.1-0.7-0.4-0.9c-0.2-0.2-0.6-0.3-1-0.4c-0.4-0.1-0.9-0.2-1.3-0.3c-0.7-0.1-1.3-0.3-1.8-0.5s-1-0.5-1.3-0.9
			c-0.3-0.4-0.5-1-0.5-1.7C218,275.3,218.2,274.7,218.6,274.2z"/>
		<path class="st6" d="M229.5,281.4c0.3-0.3,0.7-0.4,1.2-0.4c0.5,0,0.9,0.1,1.2,0.4c0.3,0.3,0.5,0.6,0.5,1.1c0,0.4-0.2,0.8-0.5,1.1
			c-0.3,0.3-0.7,0.4-1.2,0.4c-0.5,0-0.9-0.1-1.2-0.4c-0.3-0.3-0.5-0.6-0.5-1.1C229,282,229.2,281.7,229.5,281.4z M231.9,269.8
			l-0.3,9.1h-2l-0.3-9.1H231.9z"/>
	</g>
</g>
</svg>
