<?xml version="1.0" encoding="utf-8"?>
<!-- Generator: Adobe Illustrator 25.2.1, SVG Export Plug-In . SVG Version: 6.00 Build 0)  -->
<svg version="1.1" id="Layer_1" xmlns="http://www.w3.org/2000/svg" xmlns:xlink="http://www.w3.org/1999/xlink" x="0px" y="0px"
	 viewBox="0 0 225.1 60.35" style="enable-background:new 0 0 225.1 60.35;" xml:space="preserve">
<style type="text/css">
	.st0{fill:#FFFFFF;}
	.st1{fill:#00AEEF;}
</style>
<g id="footer_x5F_logo_x5F_wsf_3_">
	<g>
		<path class="st0" d="M30.03,60.35c15.08,0,27.57-11.06,29.81-25.51c-2.35-0.92-6.26-1.84-10.86-0.48
			c-7.52,2.22-9.33,8.28-20.07,9.42c-10.74,1.14-16.79-5.23-22.03-7.3c-2.18-0.86-4.39-0.34-6.24,0.56
			C3.76,50.39,15.73,60.35,30.03,60.35z"/>
		<g>
			<path class="st1" d="M30.03,0C14.29,0,1.38,12.06,0,27.45c0.99-0.04,2.45-0.14,3.69-0.52c0,0-0.01,0,0-0.01
				c9.85-3.19,13.85-17.2,26.91-17.2c11.42,0,14.06,5.52,14.61,7.51c0.1,0.36-0.22,0.52-0.56,0.67c-0.99,0.43-2.25,0.63-4.9,2.79
				c-4.25,3.48-4.77,11.62,1.34,9.41c0.27-0.12,0.53-0.23,0.8-0.35c3.45-1.45,5.8-4.36,8.55-5.33c4.27-1.51,7.45-0.74,9.52,0.21
				C57.28,10.73,44.73,0,30.03,0z"/>
		</g>
	</g>
	<g>
		<path class="st0" d="M125.26,36.18h0.11l9.09-25.37h13l-17.43,41.04h-13.23l-0.53-23.83h-0.11l-8.87,23.83H94.05l-2.98-41.04h13
			l0.15,25.37h0.11l9.37-25.37h11.12L125.26,36.18z"/>
		<path class="st1" d="M171.07,22.72c0.02-1.42-0.57-2.28-1.45-2.79c-0.88-0.51-2.04-0.74-3.35-0.74c-2.96,0-4.43,0.86-4.69,2.34
			c-1.08,6.16,23.19,2.34,20.56,17.27c-1.68,9.52-10.41,14.14-21.7,14.14c-10.83,0-16.79-6.33-15.76-13.74h12.88
			c0.02,1.48,0.63,2.57,1.65,3.25c0.96,0.68,2.33,1.03,3.64,1.03c3.36,0,5.78-1.08,6.12-3.02c1.09-6.21-23.26-1.94-20.5-17.62
			c1.54-8.72,9.83-13.11,20.1-13.11c11.4,0,15.56,5.81,15.27,13H171.07z"/>
		<path class="st0" d="M185.95,51.85l7.23-41.04h31.92l-1.69,9.58h-18.47l-1.32,7.47h14.71l-1.69,9.58h-14.71l-2.54,14.42H185.95z"
			/>
	</g>
</g>
</svg>
