<?xml version="1.0" encoding="utf-8"?>
<!-- Generator: Adobe Illustrator 25.2.1, SVG Export Plug-In . SVG Version: 6.00 Build 0)  -->
<svg version="1.1" id="Layer_1" xmlns="http://www.w3.org/2000/svg" xmlns:xlink="http://www.w3.org/1999/xlink" x="0px" y="0px"
	 viewBox="0 0 173.2 107.5" style="enable-background:new 0 0 173.2 107.5;" xml:space="preserve">
<style type="text/css">
	.st0{fill:#212570;}
	.st1{fill:url(#SVGID_1_);}
	.st2{fill:url(#SVGID_2_);}
	.st3{fill:url(#SVGID_3_);}
	.st4{fill:url(#SVGID_4_);}
	.st5{fill:url(#SVGID_5_);}
	.st6{fill:url(#SVGID_6_);}
	.st7{fill:#395EB4;}
	.st8{fill:#4C8BD8;}
	.st9{fill:#A9160F;}
	.st10{fill:#26387E;}
</style>
<g>
	<path class="st0" d="M27.3,63.5c0.2-0.1,0.1-0.3,0.2-0.4c0.5-4.2,0.9-8.3,1.4-12.5c0.2-1.8,0.7-3.6,1.5-5.2c1.1-2.1,2.9-3,5.2-3.1
		c4,0,8,0,12,0c0.5,0,0.6,0.1,0.6,0.6c-0.3,2.2-0.5,4.3-0.7,6.5c0,0.5-0.2,0.7-0.7,0.7c-3.4,0-6.8,0-10.2,0c-0.6,0-0.9,0.1-1,0.8
		c-0.1,1.9-0.4,3.8-0.6,5.7c-0.1,0.6,0.3,0.5,0.6,0.5c3.4,0,6.8,0,10.3,0c0.7,0,0.8,0.2,0.7,0.8c-0.2,2.1-0.5,4.3-0.6,6.4
		c0,0.5-0.3,0.6-0.8,0.6c-3.4,0-6.8,0-10.3,0c-0.6,0-0.8,0.2-0.8,0.7c-0.4,4.2-0.8,8.5-1.3,12.7c-0.1,1.3-0.1,1.4-1.4,1.4
		c-1.3,0-2.7,0-4,0C27.3,74.3,27.3,68.9,27.3,63.5z"/>
	<path class="st0" d="M63.2,42.4c2,0,4.1,0,6.1,0c0.5,0,0.7,0.1,0.6,0.6c-0.3,2.2-0.5,4.4-0.7,6.6c0,0.5-0.2,0.6-0.7,0.6
		c-3.5,0-6.9,0-10.4,0c-0.6,0-0.8,0.2-0.8,0.7c-0.2,1.9-0.4,3.8-0.6,5.6c-0.1,0.6,0.1,0.7,0.6,0.7c3.5,0,6.9,0,10.4,0
		c0.5,0,0.7,0,0.6,0.6c-0.3,2.2-0.5,4.3-0.7,6.5c0,0.5-0.2,0.6-0.7,0.6c-3.5,0-6.9,0-10.4,0c-0.6,0-0.8,0.1-0.8,0.7
		c-0.4,4.5-0.9,9-1.3,13.4c0,0.4-0.1,0.6-0.6,0.6c-1.9,0-3.8,0-5.7,0c-0.4,0-0.5-0.1-0.5-0.5c0.9-8.4,1.8-16.8,2.6-25.2
		c0.2-2.4,0.5-4.7,1.2-7c0.3-1,0.8-1.9,1.5-2.7c1.2-1.4,2.8-1.9,4.6-1.9C59.4,42.4,61.3,42.4,63.2,42.4z"/>
	<g>
		<linearGradient id="SVGID_1_" gradientUnits="userSpaceOnUse" x1="155.2612" y1="78.3176" x2="68.0943" y2="58.8918">
			<stop  offset="0" style="stop-color:#5FBAF8"/>
			<stop  offset="1" style="stop-color:#324BA8"/>
		</linearGradient>
		<path class="st1" d="M102.5,52.9c-1.5,0.2-2.9,0.9-4,1.9c-0.4,0.4-0.7,0.8-0.8,1.3c-0.8,4-1.9,7.8-3.4,11.6
			c-0.4,0.9-0.6,1.8-0.5,2.8c0.1,2.1,0.4,4.2,1.3,6.1c1.2,2.3,2.9,3.6,5.6,3.6c0.7,0.2,1.3,0,1.9-0.1c2.9-0.6,4.9-2.5,6.2-5.1
			c1.8-3.4,2.3-7.2,2.4-11c0.1-2.3-0.1-4.6-0.9-6.8C109,53.8,105.8,52.1,102.5,52.9z M105.2,64.3c-0.1,2.3-0.4,4.5-1.1,6.8
			c-0.2,0.7-0.5,1.4-0.9,2.1c-0.6,1-1.3,1.4-2.4,1.2c-0.9-0.6-1.1-1.5-1.2-2.5c-0.2-3.6,0.1-7.1,1.2-10.5c0.3-1.1,0.9-2.1,1.9-2.7
			c1.5-0.1,1.9,0.2,2.3,1.7C105.4,61.7,105.3,63,105.2,64.3z"/>
		<linearGradient id="SVGID_2_" gradientUnits="userSpaceOnUse" x1="157.0767" y1="70.171" x2="69.9101" y2="50.7452">
			<stop  offset="0" style="stop-color:#5FBAF8"/>
			<stop  offset="1" style="stop-color:#324BA8"/>
		</linearGradient>
		<path class="st2" d="M148.1,57.4c-0.5-2.7-2.1-4.3-4.7-4.6c-3.4-0.4-6.5,1.4-8.3,4.5c-0.2,0.3-0.4,0.6-0.6,0.9
			c-2.1,4.1-2.8,8.4-2.5,12.9c0.1,1.9,0.5,3.8,1.3,5.5c0.5,0.9,1,1.8,1.9,2.4c0.2,0.2,0.4,0.4,0.6,0.5c1.6,0.9,3.3,1.1,5.1,0.8
			c0.1,0,0.2,0,0.3-0.1c0,0,0.1,0,0.1,0l0.1,0c1.3-0.1,2.5-0.7,3.6-1.3c0.4-0.2,0.6-0.5,0.6-1c0-0.6,0.2-1.3,0.2-1.9
			c0.1-1.3,0.2-2.5,0.4-4c-1.6,1.3-3.2,2.1-5,2.4c-0.3,0-0.5,0-0.8,0c0,0-0.1,0-0.1,0c-1.7-0.5-2.9-2.5-2.6-4.3
			c0.1-0.3,0.3-0.3,0.5-0.3c1.8-0.3,3.6-0.6,5.2-1.5c2.4-1.1,3.8-3,4.5-5.6c0.1-0.3,0-0.7,0.3-1c0-1.3,0-2.5,0-3.8
			C148.1,57.8,148.1,57.6,148.1,57.4z M143.1,61.2c-0.7,2.2-2.4,3.1-4.4,3.6c-0.7,0.2-0.8,0-0.6-0.7c0.3-1.1,0.5-2.3,1-3.4
			c0.3-0.7,0.8-1.3,1.4-1.8c0.9-0.7,1.6-0.7,2.5,0.1C143.2,59.8,143.1,60.5,143.1,61.2z"/>
		<linearGradient id="SVGID_3_" gradientUnits="userSpaceOnUse" x1="156.6588" y1="72.0473" x2="69.4918" y2="52.6215">
			<stop  offset="0" style="stop-color:#5FBAF8"/>
			<stop  offset="1" style="stop-color:#324BA8"/>
		</linearGradient>
		<path class="st3" d="M78,79.9c-1,0.1-2,0.2-3,0.3c-0.3,0.1-0.7-0.1-1.1,0.2c-0.7,0-1.3,0-2,0c0.4-1,1.3-1.7,1.9-2.6
			c0.2-0.3,0.4-0.7,0.8-0.9c2.6-3.5,5-7.1,7-11c1.1-2,2.1-4.1,2.9-6.3c0.1-0.2,0.2-0.3,0.3-0.5c0.8-2,1.5-4,2.3-6c0-0.1,0-0.2,0-0.4
			c-0.1-0.4-0.1-0.8-0.2-1.2c-0.2-2.1-0.5-4.2-0.9-6.3c-0.2-1.8-0.7-3.5-1-5.3c-0.2-1.4-0.6-2.7-1-4.1c-0.3-1.4-0.8-2.8-1.2-4.2
			c-0.4-1.4-0.9-2.8-1.5-4.2c-0.5-1.4-1.2-2.7-1.8-4.1c-2.5-5.4-5.7-10.3-10.4-14.3c0,0.4,0.1,0.5,0.1,0.6c0.9,3.5,1.6,7,2.2,10.6
			c0.3,2,0.7,4.1,1,6.1c-0.1,0.5,0.1,1,0.2,1.5c0.2,1.3,0.2,2.7,0.6,4c0,1.5,0.3,3.1,0.4,4.6c0,0.1,0,0.2,0,0.4c0,0,0,0,0,0
			c0,0,0,0.1,0.1,0.1c0.1,1.2,0.1,2.4,0.2,3.6c0.1,1.5,0.2,2.9,0.3,4.4c0,2,0.1,3.9,0.1,5.9c-0.1,1.5,0,2.9-0.1,4.4c0,0,0,0.1,0,0.1
			c0,0.4,0,0.8,0,1.2c0,0,0,0.1,0,0.1c0,0.3,0,0.5,0,0.8c-0.1,2.3-0.2,4.6-0.3,7c0,0.2-0.1,0.4-0.1,0.7c-0.2,3.2-0.5,6.3-0.9,9.5
			c-0.2,1.9-0.5,3.8-0.8,5.8c-0.2,1-0.4,2-0.5,3c-0.1,0.1-0.1,0.2-0.1,0.4c0,0.2,0,0.3-0.1,0.5c-0.4,1.8-0.7,3.6-1.1,5.4
			c0,0.1-0.1,0.1-0.1,0.2c0,0.1,0,0.2,0,0.3c-0.5,1.8-0.9,3.6-1.4,5.6c1.1-0.8,2.1-1.4,3-2.1c1-0.7,2-1.3,2.9-2.2
			c0.9-0.7,1.8-1.4,2.6-2.2c1.2-1,2.4-2,3.4-3.3c0.9-0.8,1.8-1.7,2.5-2.8c0,0,0.1-0.1,0.1-0.1c0-0.1,0.1-0.1,0.1-0.2
			c0.2-0.2,0.4-0.4,0.6-0.7c1.4-1.8,2.7-3.6,3.8-5.5c-2,0.9-4,1.7-6.1,2.4C80.3,79.4,79.1,79.7,78,79.9z"/>
		<linearGradient id="SVGID_4_" gradientUnits="userSpaceOnUse" x1="157.5823" y1="67.9015" x2="70.4157" y2="48.4758">
			<stop  offset="0" style="stop-color:#5FBAF8"/>
			<stop  offset="1" style="stop-color:#324BA8"/>
		</linearGradient>
		<path class="st4" d="M131,74.2c-0.1-0.5-0.2-0.6-0.7-0.4c-0.7,0.3-1.3,0.2-1.8-0.4c-0.1-0.2-0.1-0.4-0.2-0.6
			c0-0.1-0.1-0.2-0.1-0.3c-0.1-1.2,0.2-2.4,0.2-3.7c0.1-0.1,0.1-0.2,0.1-0.4c0-0.5,0.1-0.9,0.1-1.4c0,0,0-0.1,0-0.1
			c0-0.1,0-0.1,0-0.2c0.2-1.4,0.3-2.8,0.5-4.2c0.3-3.2,0.7-6.3,1-9.5c0.3-3.4,0.7-6.7,1-10.1c0-0.3-0.1-0.5-0.4-0.5
			c-0.9,0-1.7-0.1-2.6,0.1c-0.9-0.1-1.8-0.1-2.7,0l-0.1,0l0,0.1c-0.1,0.6-0.2,1.2-0.2,1.8c0,0.3-0.1,0.5-0.1,0.8c0,0.1,0,0.2,0,0.3
			c0,0.4-0.1,0.7-0.1,1.1c0,0.1,0,0.3,0,0.4c-0.1,0.9-0.2,1.8-0.3,2.7c-0.2,1.7-0.3,3.4-0.5,5.1c-0.2,2.2-0.5,4.4-0.7,6.6
			c-0.2,2.3-0.4,4.6-0.7,6.9c-0.3,2.6-0.6,5.2-0.2,7.8c0.3,1.8,0.9,3.5,3,4.1c1,0.3,2,0.3,3,0.1c1.3-0.2,2.4-0.6,3.5-1.3
			c0.3-0.2,0.4-0.4,0.2-0.8C131.6,76.9,131.2,75.6,131,74.2z"/>
		<linearGradient id="SVGID_5_" gradientUnits="userSpaceOnUse" x1="155.9164" y1="75.3777" x2="68.7494" y2="55.9519">
			<stop  offset="0" style="stop-color:#5FBAF8"/>
			<stop  offset="1" style="stop-color:#324BA8"/>
		</linearGradient>
		<path class="st5" d="M120.8,74.2c0-0.2,0-0.4-0.3-0.4c-1.7,0.1-2-0.2-2.1-1.9c0-2,0.3-4,0.5-6c0.4-3.9,0.8-7.8,1.2-11.8
			c0-0.3-0.1-0.5-0.4-0.4c-0.7,0-1.3,0-2,0c-1,0-2,0-2.9,0c-0.4,0-0.5,0.1-0.6,0.5c-0.1,1.4-0.3,2.7-0.4,4.1
			c-0.4,3.6-0.8,7.3-1.1,10.9c-0.2,2.4-0.5,4.8-0.1,7.2c0.5,2.5,1.9,3.9,4.1,3.9c0.1,0.1,0.1,0.1,0.2,0c0.3,0.1,0.7,0.1,1,0
			c1.2,0,2.2-0.4,3.3-0.8c0.2-0.1,0.4-0.2,0.3-0.5C121,77.4,120.9,75.8,120.8,74.2z"/>
		<linearGradient id="SVGID_6_" gradientUnits="userSpaceOnUse" x1="160.208" y1="56.1196" x2="73.0415" y2="36.6938">
			<stop  offset="0" style="stop-color:#5FBAF8"/>
			<stop  offset="1" style="stop-color:#324BA8"/>
		</linearGradient>
		<path class="st6" d="M117,50.7c1.3,0.3,2.3-0.3,3.1-1.3c0.7-1,1-2.1,1-3.3c0-0.3,0-0.6-0.1-0.9c-0.2-1.2-0.7-2.2-2-2.6
			c-1.1-0.3-2.4,0.2-3.2,1.3c-1,1.3-1.2,2.8-0.9,4.4C115.1,49.5,115.7,50.5,117,50.7z"/>
	</g>
	<path class="st7" d="M82.9,83.2c0-0.1,0.1-0.1,0.1-0.2C83,83.1,83,83.1,82.9,83.2z"/>
	<path class="st8" d="M70.1,89.6c0,0.1-0.1,0.1-0.1,0.2C70,89.7,70.1,89.6,70.1,89.6z"/>
	<path class="st9" d="M97.1,43.3c0-1.1-0.1-2.2-0.2-3.2c-0.5-4.8-1.8-9.3-4.2-13.6c-0.4-0.8-0.8-1.5-1.4-2.2c0,0.7,0,1.4,0,2.1
		c0.1,3.7-0.4,7.5-0.7,11.2c-0.1,0.9-0.3,1.9-0.4,2.8c-0.3,1.8-0.7,3.6-1,5.4c-0.6,2-1.1,4.1-1.7,6.1c-0.1,0.3-0.3,0.7-0.4,1
		c0,0.1,0,0.2,0,0.4c0.5,3.7,0.6,7.5,0.7,11.3c0.1,4,0,8-0.1,12.1c1.6-2.5,3-5.1,4.1-7.8c1.4-3.2,2.6-6.4,3.4-9.8
		c0.6-2,1-4.1,1.3-6.2C97.1,49.6,97.2,46.5,97.1,43.3z"/>
	<path class="st10" d="M87.8,64.5c-0.1-3.8-0.3-7.5-0.7-11.3c-0.8,2-1.5,4-2.3,6c-0.1,0.2-0.2,0.4-0.3,0.5c-0.8,2.2-1.8,4.2-2.9,6.3
		c-2,3.8-4.4,7.5-7,11c0,0,0,0,0,0c-0.4,0.2-0.6,0.6-0.8,0.9c-0.6,0.9-1.5,1.5-1.9,2.6c0.7,0,1.3,0,2,0c0.3-0.2,0.7-0.1,1.1-0.2
		c1-0.1,2-0.2,3-0.3c1.2-0.3,2.3-0.5,3.5-0.8c2.1-0.7,4.1-1.4,6.1-2.4c0-0.1,0.1-0.2,0.1-0.2C87.8,72.6,87.9,68.5,87.8,64.5z"/>
</g>
</svg>
