<?xml version="1.0" encoding="utf-8"?>
<!-- Generator: Adobe Illustrator 25.2.1, SVG Export Plug-In . SVG Version: 6.00 Build 0)  -->
<svg version="1.1" id="Layer_1" xmlns="http://www.w3.org/2000/svg" xmlns:xlink="http://www.w3.org/1999/xlink" x="0px" y="0px"
	 viewBox="0 0 33.58 33.79" style="enable-background:new 0 0 33.58 33.79;" xml:space="preserve">
<style type="text/css">
	.st0{fill:#FFFFFF;}
	.st1{fill:#00AEEF;}
</style>
<g id="header_x5F_logo_x5F_WSF_x5F_sigle">
	<path class="st0" d="M16.82,33.79c8.44,0,15.44-6.19,16.69-14.29c-1.32-0.51-3.5-1.03-6.08-0.27c-4.21,1.24-5.22,4.64-11.24,5.27
		c-6.01,0.64-9.4-2.93-12.34-4.09c-1.22-0.48-2.46-0.19-3.49,0.31C2.11,28.22,8.81,33.79,16.82,33.79z"/>
	<g>
		<path class="st1" d="M16.82,0C8,0,0.77,6.76,0,15.37c0.55-0.02,1.37-0.08,2.06-0.29c0,0,0,0,0,0c5.52-1.79,7.75-9.63,15.07-9.63
			c6.39,0,7.87,3.09,8.18,4.21c0.06,0.2-0.12,0.29-0.31,0.37c-0.55,0.24-1.26,0.35-2.74,1.56c-2.38,1.95-2.67,6.51,0.75,5.27
			c0.15-0.07,0.3-0.13,0.45-0.19c1.93-0.81,3.25-2.44,4.79-2.99c2.39-0.84,4.17-0.42,5.33,0.12C32.08,6.01,25.04,0,16.82,0z"/>
	</g>
</g>
</svg>
