<?xml version="1.0" encoding="utf-8"?>
<!-- Generator: Adobe Illustrator 25.2.1, SVG Export Plug-In . SVG Version: 6.00 Build 0)  -->
<svg version="1.1" id="Layer_1" xmlns="http://www.w3.org/2000/svg" xmlns:xlink="http://www.w3.org/1999/xlink" x="0px" y="0px"
	 viewBox="0 0 33.6 17.1" style="enable-background:new 0 0 33.6 17.1;" xml:space="preserve">
<style type="text/css">
	.st0{fill:#00AEEF;}
</style>
<g id="header_x5F_logo_x5F_WSF_x5F_sigle">
	<g>
		<path class="st0" d="M16.8,0C8,0,0.8,6.8,0,15.4c0.6,0,1.4-0.1,2.1-0.3l0,0c5.5-1.8,7.7-9.6,15.1-9.6c6.4,0,7.9,3.1,8.2,4.2
			c0.1,0.2-0.1,0.3-0.3,0.4c-0.5,0.2-1.3,0.4-2.7,1.6c-2.4,1.9-2.7,6.5,0.8,5.3c0.1-0.1,0.3-0.1,0.5-0.2c1.9-0.8,3.2-2.4,4.8-3
			c2.4-0.8,4.2-0.4,5.3,0.1C32.1,6,25,0,16.8,0z"/>
	</g>
</g>
</svg>
