<?xml version="1.0" encoding="utf-8"?>
<!-- Generator: Adobe Illustrator 25.2.1, SVG Export Plug-In . SVG Version: 6.00 Build 0)  -->
<svg version="1.1" id="Layer_1" xmlns="http://www.w3.org/2000/svg" xmlns:xlink="http://www.w3.org/1999/xlink" x="0px" y="0px"
	 viewBox="0 0 1569.9 1110" style="enable-background:new 0 0 1569.9 1110;" xml:space="preserve">
<style type="text/css">
	.st0{fill:#FEFEFE;}
	.st1{fill:#1D0C81;}
	.st2{fill:#E1150F;}
	.st3{fill:#090909;}
	.st4{fill:#0B0A0A;}
	.st5{fill:#0A0909;}
	.st6{fill:#0C0C0B;}
	.st7{fill:#121212;}
	.st8{fill:#111111;}
	.st9{fill:#E7E6F0;}
	.st10{fill:#0F0F0F;}
	.st11{fill:#181818;}
	.st12{fill:#ABAAAA;}
	.st13{fill:#46449C;}
	.st14{fill:#484747;}
	.st15{fill:#9593C4;}
	.st16{fill:#E1E1DF;}
	.st17{fill:#FBFBFA;}
	.st18{fill:#F4F3F2;}
	.st19{fill:#EEEDEC;}
</style>
<g id="FrmAkf.tif">
	<g>
		<path class="st0" d="M816.4,1007.7c-159.8,0-319.5,0-479.3,0.1c-3.2,0-4.1-0.6-4.1-4c0.1-296.4,0.1-592.8,0-889.2
			c0-3.7,1-4.2,4.4-4.2c319.7,0.1,639.4,0.1,959.1,0c3.5,0,4.3,0.6,4.3,4.2c-0.1,296.3-0.1,592.5,0,888.8c0,3.9-1.1,4.4-4.6,4.4
			C1136.2,1007.7,976.3,1007.7,816.4,1007.7z M611.8,803.1l-0.1,0.1c-0.3,0.2-0.7,0.4-1,0.7c-0.2-1.1-0.8-2.3-0.4-3.1
			c2.6-6.8,5.5-13.5,8.1-20.3c0.5-1.3,0.7-3.6-0.1-4.3c-0.8-0.8-3.2-0.8-4.4-0.2c-2.6,1.4-5.2,3.2-7.4,5.2c-1.3,1.2-1.7,3.2-2.6,4.8
			c1.3-0.9,2.6-1.9,3.9-2.7c1-0.6,2-1,3-1.5c-0.1,1.1,0,2.2-0.4,3.2c-2.6,6.8-5.3,13.6-7.8,20.4c-0.4,1.2-0.5,3.2,0.1,3.9
			c0.8,0.7,3,1,3.9,0.4c3-1.9,5.6-4.3,8.4-6.6c0.5-1.3,0.9-2.6,1.4-3.8c-0.8,0.7-1.6,1.3-2.3,2l0,0c-0.3,0.3-0.6,0.6-0.9,0.9
			c-0.3,0.1-0.5,0.3-0.7,0.5C612.3,802.7,612.1,802.9,611.8,803.1z M672.9,858.3c-0.2,0.2-0.5,0.4-0.7,0.6l-0.3,0l-0.1,0.3l-0.3,0
			l-0.1,0.3c-0.2,0.2-0.4,0.4-0.6,0.5l-0.3,0l0,0.3c-1.1,1-2.1,2-3.2,2.9c-0.8,0.7-1.7,1.3-2.6,1.9c-0.1-1-0.2-1.9-0.4-2.9
			c-0.4-1.8-0.3-4.2-1.4-5.3c-1-1-3.6-1.2-5.2-0.7c-1,0.3-2.2,3.5-1.9,3.7c4.3,3.5,2.6,7.3,0.9,11.1c-2.2,4.9-4.7,9.7-6.8,14.7
			c-0.4,1.1,0.7,2.9,1.2,4.4c1.6-0.6,3.9-0.8,4.5-1.9c1.8-3.2,3.1-6.6,4.1-10.1c1.9-7.1,6.1-12.1,12.5-15.4c1.4,0,2.7,0,4.1,0
			c-0.3,1.3-0.4,2.8-1,4c-3,6.1-6.3,12.2-9.2,18.3c-0.6,1.2-0.5,3.3,0.2,4.4c0.5,0.8,3,1.1,3.9,0.6c3.1-1.9,6-4.3,8.9-6.5
			c0.5-0.5,1.1-1,1.3-1.7c0.3-0.7,0.1-1.5,0.2-2.2c-0.6,0.4-1.2,0.7-1.7,1.2c-0.4,0.4-0.7,0.9-1,1.4c-0.3,0-0.5,0.1-0.5,0.4
			c-0.3-0.1-0.5,0.1-0.5,0.4c-0.6,0.2-1.1,0.5-1.7,0.7c-0.3-0.4-0.6-0.8-0.9-1.2c0.9-2,1.8-3.9,2.8-5.9c1.8-3.6,3.7-7.2,5.4-10.9
			c1.3-2.9,2.6-6.3-0.4-8.9c-3.1-2.7-6.2-0.8-9.1,1.1c-0.1,0.1-0.2,0.2-0.3,0.3C672.7,858.2,672.9,858.3,672.9,858.3z M637.7,857.5
			c-0.2-0.3-0.4-0.6-0.6-0.9c-1.9-2.5-4-1.5-5.6,0.1c-1.8,1.9-3.2,4.1-4.6,6.3c-0.5,0.8-0.6,1.8-0.8,2.8c0.7-0.5,1.5-1.1,2.3-1.5
			c1.2-0.7,2.4-1.2,3.6-1.8c0.2,1.5,0.8,3.1,0.5,4.5c-0.3,1.8-1.3,3.5-2.1,5.3c-1.9,4.3-4.1,8.4-5.7,12.8c-0.5,1.3,0.6,3.2,1,4.8
			c1.6-0.8,4.1-1.2,4.7-2.4c2.3-4.9,3.9-10,5.8-15.1c0.1-0.2,0.2-0.5,0.3-0.7c0.2-0.4,0.3-0.9,0.5-1.3l0.3-0.1l-0.2-0.1
			c0.3-0.4,0.5-0.9,0.8-1.3c2.9-2.1,4.1-6.6,8.9-5.9c1.1,0.1,3.4-1,3.3-1.3c-0.1-1.9-0.5-4-1.6-5.4c-0.4-0.6-3.4,0.1-4.5,1
			c-1.4,1.3-2.1,3.4-3.3,5c-0.5,0.7-1.5,1-2.2,1.5c0-0.9,0-1.9-0.1-2.8c-0.2-1-0.4-2-0.6-3l0.1-0.3L637.7,857.5z M666.9,770.1
			c0.2-0.2,0.5-0.4,0.7-0.6c2.3-2.1,4.8-4.2,7-6.5c1-1,1.7-2.4,2.5-3.6c-1.6-0.1-3.1-0.5-4.7-0.3c-0.9,0.1-2,1-2.6,1.8
			c-1.7,2.5-3.1,5.2-4.6,7.8c-0.5,1.1-1,2.1-1.4,3.2c0.9-0.5,1.9-1.1,2.8-1.6L666.9,770.1z M750.6,880.6c-0.3,0.2-0.5,0.5-0.8,0.7
			c-0.6,0.4-1.1,1.1-1.8,1.2c-2.2,0.4-5.4,1.5-6.3,0.5c-1.5-1.6-1.7-4.6-2.1-7.1c-0.4-2.7,1.7-3.2,3.8-3.8c3.9-1.2,7.8-2.3,11.6-4
			c1.4-0.6,3.4-2.4,3.3-3.7c0-2.5-0.5-5.7-2.1-7.4c-2.4-2.6-5.9-1.8-8.9-0.2c-7.9,4.2-14.7,18-13.4,27c0.9,5.9,5.3,8.5,10.5,5.5
			c3-1.8,5.3-4.9,7.9-7.3c0.6-1.3,1.1-2.5,1.7-3.8c-1.1,0.7-2.1,1.4-3.2,2.2L750.6,880.6z M516.6,702.6c0.3-0.2,0.6-0.5,0.9-0.7
			c0.8-0.3,1.6-0.5,2.4-0.8c-0.1,0.8,0,1.7-0.3,2.4c-2.7,7.1-5.5,14.2-8.1,21.3c-0.4,1.2-0.6,3.2,0.1,4c0.7,0.8,2.9,0.9,3.9,0.4
			c2.5-1.3,5-2.9,7.1-4.9c1.4-1.3,2-3.4,3-5.2c-1.4,1-2.8,2-4.3,2.9c-0.8,0.5-1.8,0.9-2.7,1.3c0.1-1.1,0.1-2.2,0.5-3.2
			c2.7-6.8,5.5-13.5,8.1-20.4c0.5-1.2,0.7-3.5,0.1-3.9c-1.1-0.8-3.2-1.1-4.3-0.5c-2.9,1.6-5.4,3.8-8,5.7c-0.8,1.4-1.5,2.9-2.3,4.3
			c1.3-0.9,2.5-1.8,3.8-2.7L516.6,702.6z M526.2,868.8l0.2-0.2c2.9-2.8,5-7.2,10.4-5.8c0.5,0.1,2-1.5,1.9-2c-0.3-1.7-1.2-3.3-1.9-5
			c-1.9,1-4.1,1.6-5.7,3c-1.5,1.4-2.3,3.6-3.4,5.4c-0.4-1.9-0.8-3.8-1.2-5.8c-2-3.7-4.1-4.3-6.9-1.6c-1.4,1.4-2.4,3.3-3.5,4.9
			c-0.5,1.4-1,2.9-1.6,4.3c0.9-0.8,1.7-1.6,2.6-2.4c0.3-0.1,0.5-0.3,0.6-0.5c0.2-0.2,0.5-0.4,0.7-0.5c4.9-0.3,2.9,3.1,2.2,4.9
			c-2.2,5.7-4.9,11.2-7.4,16.8c-0.9,2.1-1.9,4.4,1,5.6c2.6,1,4.1-0.5,4.9-2.9c2.1-5.7,4.3-11.5,6.5-17.2
			C525.7,869.5,525.9,869.1,526.2,868.8z M608.1,707.1c2.7-2.8,5-6.1,9.7-5.1c0.5,0.1,2-1.4,1.9-2c-0.3-1.7-1.2-3.3-1.8-4.9
			c-1.7,0.7-3.8,1.1-5.1,2.2c-1.6,1.3-2.5,3.3-3.7,5c-0.6-1.8-1.2-3.6-1.9-5.5c-1.4-3.3-3.9-3.1-5.9-1.1c-2.1,2.1-3.7,4.8-5.4,7.4
			c-0.3,0.5-0.2,1.3-0.3,2c0.6-0.3,1.1-0.6,1.7-0.9c1.4-0.8,2.8-1.6,4.2-2.4c0.1,1.8,0.6,3.7,0.2,5.3c-0.6,2.4-1.9,4.6-2.9,6.8
			c-1.6,3.6-3.5,7.1-4.7,10.8c-0.4,1.2,0.8,2.9,1.3,4.3c1.5-0.6,3.2-0.8,4.4-1.8c0.9-0.7,1.1-2.3,1.6-3.6
			C603.5,718.1,605.8,712.6,608.1,707.1z M695.7,862.4c0.4,0.2,0.8,0.5,1.2,0.7c-0.2,0.7-0.3,1.4-0.5,2.1
			c-2.6,6.8-5.3,13.6-7.9,20.5c-0.4,1.2-0.6,3.3,0.1,4c0.7,0.8,2.9,0.9,4,0.4c2.6-1.4,5.2-3.2,7.4-5.2c1.3-1.2,1.7-3.2,2.5-4.8
			c-1.3,0.9-2.5,1.9-3.9,2.7c-0.9,0.5-2,0.8-3,1.2c0.2-0.9,0.2-1.9,0.5-2.8c2.7-6.8,5.5-13.5,8.1-20.4c0.5-1.2,0.7-3.5,0.1-4
			c-1-0.8-3.3-1.1-4.3-0.4c-3.1,1.8-5.9,4.1-8.6,6.5c-0.9,0.8-1,2.3-1.5,3.4c1-0.6,2-1.2,2.9-1.8C693.7,863.7,694.7,863,695.7,862.4
			z M615.1,880.3c0.3-0.6,0.6-1.1,0.9-1.7c-0.6,0-1.1,0-1.7,0.1c-1.9,1.5-3.7,3.4-5.9,4.5c-2.7,1.4-5.5,1.4-6.9-2.1
			c-1.6-3.8-0.3-7.6,2.7-8.6c3.9-1.3,7.7-2.9,11.7-3.8c4.5-1.1,4.8-4.3,4.3-7.7c-0.5-3.6-3.1-5.5-6.5-5.1c-2.5,0.3-5.3,1.2-7.1,2.8
			c-7.5,6.4-11.4,14.7-11,24.7c0.3,6.3,5.3,9.3,10.7,5.9C609.8,887,612.3,883.3,615.1,880.3z M667.8,799.4c0.2-0.5,0.3-1,0.5-1.4
			c-0.7,0.2-1.4,0.4-2.1,0.7c-1.6,1.3-3,2.8-4.7,3.9c-3.2,1.9-6.3,1.1-7.4-1.7c-1.5-3.9-0.2-7.9,3-9c4-1.3,8.1-2.4,12.1-4
			c1.4-0.5,3.3-2.2,3.2-3.3c-0.1-2.7-0.3-6-1.9-7.8c-2.3-2.6-5.9-1.9-8.9-0.3c-8,4.2-14.9,18.3-13.3,27.4c0.9,5.4,5.3,8.2,9.9,5.2
			C661.9,806.7,664.6,802.7,667.8,799.4z M579.4,884.1c-0.3-0.2-0.6-0.5-0.9-0.7c1.7-5,3.6-9.9,5.1-14.9c1.5-4.9,3-9.2,9.6-7.7
			c0.7,0.2,1.8-1.4,2.6-2.1c-0.8-0.5-1.6-1.3-2.4-1.4c-5.5-0.4-5.5-0.4-3.7-5.7c0.1-0.4,0.4-0.8,0.4-1.2c0.1-0.7,0-1.3-0.1-2
			c-0.8,0.1-1.9-0.2-2.4,0.2c-0.9,0.7-1.5,1.8-2.1,2.8c-2.2,3.6-4.3,7-9.4,6.5c-0.6-0.1-1.4,0.8-2.1,1.2c0.8,0.4,1.6,1.3,2.3,1.2
			c3.8-0.3,3.6,1.3,2.6,4.1c-2.7,6.9-5.3,13.9-7.8,21c-1.3,3.9,0.4,5.7,4.4,4.8c5.9-1.3,10.2-4.8,13.5-9.8c0.3-0.4,0.3-1.1,0.5-1.6
			c-0.6,0.1-1.4,0.1-1.9,0.4C584.8,880.7,582.1,882.4,579.4,884.1z M563.3,334.6c-0.5-0.5-1.1-1-1.6-1.5c1-4.2,3.7-6.7,7.6-8.1
			c2.3-0.8,4.8-1.3,7.2-1.9c3.1-0.5,6.5-0.4,9.4-1.6c4.1-1.7,7.8-4.2,11.5-6.5c0.6-0.4,0.7-1.7,1-2.6c-0.7,0.4-1.5,0.8-2.1,1.3
			c-5.9,5.3-12.7,8-20.7,7.6c-0.2-4.4,3.5-5.2,6.3-6.8c6.3-3.5,11.4-7.8,12.7-15.3c0.1-0.7,0.1-1.4,0.1-2.1
			c-0.6,0.3-1.2,0.6-1.9,0.8c-3.8,0.7-8.7,3.2-11.1,1.7c-6.4-3.9-13.2-5.1-20.2-6.4c1.7-0.6,3.5-1.1,5.1-1.8c2.2-1,4.2-2.2,6.3-3.4
			c1.2,0.2,2.4,0.4,3.7,0.6c0.5,0.1,1.1,0.2,1.6,0.3c1.5,0.4,3.4,0.4,4.4,1.3c3.2,3,5.9,1.5,8.6-0.5c0.5-0.1,0.9-0.2,1.4-0.3
			c1.5,0.4,3,0.7,4.4,1.1c-0.6-1.4-1.3-2.7-1.9-4.1c-0.1-0.1-0.2-0.2-0.3-0.4c-6.9-8.2-5.6-18.4-6.9-27.9c-0.2-1.5,1-3.4,2-4.8
			c3-4.3,6.5-8.3,9.1-12.8c2.5-4.4,5.7-7.7,10.4-9.6c1-0.4,2-1,3-1.5c-1.1-0.2-2.1-0.5-3.2-0.5c-47.3,0-94.6,0-141.9-0.1
			c-3.1,0-3.9,0.9-3.9,3.9c0.1,36.2,0.1,72.3,0,108.5c0,3.4,0.9,4.4,4.4,4.4c29.1-0.1,58.3-0.3,87.4,0.1c9.6,0.1,18-1.8,26.8-5.7
			c10.5-4.7,17.8-12.5,25.5-20.3c0.6-0.6,0.7-1.8,1-2.7c-1,0-2.1-0.2-2.8,0.2c-3.7,1.9-7.2,4.2-11,6c-2.9,1.4-5.9,2.9-9,3.1
			C577.4,327,569.6,328.4,563.3,334.6z M723.4,228.5c-6.3,0-12.6,0-18.9,0c-13.5,0-26.9,0-40.4,0c-0.8,0-1.6,0.3-2.4,0.5
			c0.6,0.5,1.2,1.1,1.9,1.6c0.6,0.4,1.3,0.7,1.8,1.2c4.3,3.4,4.1,6.7-0.5,9.5c-0.3,0.2-0.4,0.8-0.6,1.2c3.1,1.2,4.2,5.8,8.6,4.9
			c0.3-0.1,1.4,2.6,1.4,2.6c-4.2,2.6-1.3,5.5-0.6,8.3c1,3.7,2.8,7.5,2.4,11.1c-0.8,6.7,2,11.5,5.6,16.4c0.4,0.6,0.8,1.2,1.1,1.9
			c1.4,2.5,1,4.3-1.9,5.5c-1,0.4-2.2,1.8-2.3,2.8c-0.2,3,0.1,6.1,0.1,9.2c0,0.5-0.7,0.9-0.9,1.5c-0.4,1.1-1,2.3-0.8,3.5
			c0.5,5-2,8.2-7.2,8.3c-2.7,0-5.5-0.5-8.3-1c-9.7-1.8-12.9,0-16.1,9.3c-2.9,8.6-2,10.7,6.2,13.7c4.8,1.7,9.6,4.5,14.4,4.5
			c38.5,0.4,77,0.2,115.5,0.3c3.3,0,4.5-0.7,4.5-4.3c-0.1-36.2-0.1-72.3,0-108.5c0-3.4-1.1-4.1-4.3-4.1
			C762.4,228.6,742.9,228.5,723.4,228.5z M548.4,447.5c0-13.2-0.1-26.4,0.1-39.5c0-2.9-0.8-3.8-3.7-3.7c-4.8,0.2-9.7,0.2-14.5,0
			c-2.7-0.1-4.2,0.8-5.5,3.1c-5.4,9.5-11.2,18.9-16.6,28.4c-2,3.6-2.8,2.8-4.5-0.1c-5.4-9.5-11-19-16.7-28.4
			c-0.8-1.3-2.7-2.8-4.2-2.9c-5.4-0.3-10.8,0-16.2-0.2c-2.3-0.1-3,0.7-3,3c0.1,26.3,0.1,52.7,0,79c0,2.4,0.9,3,3.1,2.9
			c3.4-0.2,6.8-0.3,10.1,0c3.7,0.4,4.6-1,4.6-4.6c-0.2-17.1-0.1-34.3-0.1-51.4c0-0.9,0.4-1.9,0.6-2.8c0.6,0.7,1.4,1.3,1.9,2.1
			c4.8,7.9,9.6,15.8,14.3,23.7c3.4,5.6,13,5.5,16.4-0.1c4.7-7.8,9.4-15.5,14.1-23.3c0.6-0.9,1.4-1.6,2.2-2.4
			c0.2,1.1,0.5,2.2,0.5,3.3c0,14.2,0,28.4,0,42.6c0,4.2-1.4,10.3,0.7,12.2c2.5,2.2,8.2,0.7,12.6,1.1c3.1,0.3,4-0.8,3.9-3.9
			C548.3,473,548.4,460.2,548.4,447.5z M612.8,447c0,13,0.1,26.1-0.1,39.1c0,2.6,0.6,3.7,3.4,3.5c3.2-0.2,6.5-0.3,9.7,0
			c3.5,0.3,4.4-0.9,4.4-4.3c-0.2-17.3-0.1-34.5-0.1-51.8c0-1.1,0.4-2.1,0.7-3.2c0.6,0.8,1.4,1.4,1.9,2.3
			c8.6,13.8,17.1,27.6,25.7,41.4c3.2,5.2,5.6,12.2,10.3,14.8c4.8,2.6,12,0.7,18.1,0.8c0.1,0,0.3,0,0.4,0c2.2,0.3,3.1-0.5,3.1-2.9
			c-0.1-26.5-0.1-53,0-79.5c0-2.5-1-3-3.1-2.9c-3.4,0.1-6.8,0.2-10.1,0c-3.2-0.3-4.2,0.6-4.2,4c0.2,17.3,0.1,34.5,0.1,51.8
			c0,1.2-0.4,2.4-0.6,3.6c-0.7-0.9-1.5-1.7-2.1-2.7c-11.1-17.7-22.2-35.5-33.1-53.3c-1.6-2.6-3.3-3.6-6.3-3.5c-4.7,0.2-9.4,0.3-14,0
			c-3.2-0.2-4.3,0.7-4.2,4.1C612.9,421.2,612.8,434.1,612.8,447z M868,575.9c0,25.8,19.6,45.3,45.3,45.2
			c25.3-0.1,44.8-19.9,44.7-45.4c-0.1-25.6-19.5-45.2-44.9-45.2C887.4,530.6,867.9,550.1,868,575.9z M463.6,575.4
			c0,12.9,0,25.7,0,38.6c0,2.1,0.1,3.6,2.9,3.5c11.4-0.2,22.8,0,34.2-0.2c8.2-0.2,15.8-2.6,22.7-7.2c14.7-9.7,21.7-27.7,17.6-44.9
			c-4.2-17.4-18-30.2-36.4-31.8c-12.3-1.1-24.8-0.5-37.2-0.9c-3.1-0.1-3.9,0.8-3.9,3.9C463.7,549.4,463.6,562.4,463.6,575.4z
			 M971.4,446.8c0,12.9,0.1,25.8-0.1,38.7c0,2.7,0.5,4,3.6,3.8c3.3-0.3,6.7-0.2,10.1,0c2.8,0.2,3.8-0.6,3.7-3.6
			c-0.2-9.1-0.1-18.2,0-27.2c0-1.1,0.1-2.6,0.8-3.2c1.6-1.4,8.5,0.1,9.8,2.1c4.1,6.1,8.1,12.2,12.1,18.3c3,4.5,5.2,10.7,9.4,12.9
			c4.4,2.3,10.8,0.7,16.4,0.7c0.9,0,1.9-0.3,2.8-0.4c-0.4-0.9-0.8-1.8-1.3-2.6c-7.5-10.5-14.9-21-22.5-31.4c-1.7-2.3-1.6-3.4,0.9-5
			c5.9-3.7,9.4-9.1,10.3-16.1c1.8-15.6-7.5-27.3-23.7-28.8c-9.4-0.9-19-0.3-28.5-0.6c-3.1-0.1-4,0.8-3.9,3.9
			C971.5,421.1,971.4,433.9,971.4,446.8z M975.2,574.6c0,12.7,0.1,25.5-0.1,38.2c-0.1,3.5,0.5,5.2,4.4,4.7c2.6-0.3,5.3-0.3,7.9,0
			c3.7,0.4,5.1-0.6,4.9-4.7c-0.4-8.8-0.1-17.6-0.1-26.4c0-1,0.3-2.5,0.9-3c2.5-1.6,8.6,0.3,10.3,2.8c4,6,7.9,12,11.9,17.9
			c2.9,4.4,5.1,10.3,9.2,12.5c4.1,2.2,10.3,0.7,15.5,0.7c1.1,0,2.2-0.2,3.4-0.4c-0.5-1.1-0.9-2.4-1.6-3.4c-7.1-10-14.2-20.1-21.5-30
			c-1.8-2.5-2.6-3.9,0.8-6c5-3,8.3-7.8,9.6-13.6c3.4-15.3-5.9-28.8-22.1-30.7c-10.3-1.2-20.8-0.6-31.1-0.9c-3-0.1-2.4,1.8-2.4,3.5
			C975.2,548.8,975.2,561.7,975.2,574.6z M1149.1,620.1c2.6-0.3,5.3-0.4,7.8-0.9c10.9-2.1,19-9.5,20.9-19.4
			c2.1-11.1-1.7-19.9-11.2-26c-2.7-1.7-5.5-3.3-8.4-4.8c-4.6-2.5-9.4-4.7-14-7.3c-3.8-2.2-5.4-5.7-4.3-10.1c1-3.9,4.3-6,9-6.2
			c6.8-0.3,11.1,3.9,15.2,8.4c1.5,1.7,2.5,2,4.2,0.4c2.8-2.6,5.8-5,8.5-7.6c0.6-0.6,0.9-2.4,0.5-2.9c-11.4-12.8-27.4-16-40.6-10.4
			c-18.2,7.8-20.7,32-4.2,42.1c2.5,1.5,4.9,3.2,7.5,4.5c4.8,2.5,9.7,4.8,14.5,7.4c5,2.7,6.7,6.5,5.4,11.7c-1,4.2-4.6,7.1-10.1,6.6
			c-4.1-0.4-8.2-1.9-11.9-3.7c-3.1-1.4-6-5.8-8.4-5.4c-3,0.5-5.4,4.5-8.1,7c-0.3,0.3-0.6,0.6-1,0.9c-2.1,1.5-1.8,2.7-0.1,4.4
			C1128.4,616.7,1138.2,619.7,1149.1,620.1z M753.8,620.1c2.5-0.2,5-0.4,7.4-0.8c10.9-1.8,19.4-9.5,21.5-19.4
			c2.3-10.8-1.5-19.8-11.6-26.2c-5.8-3.7-12.1-6.6-18.1-9.9c-2-1.1-4.2-2.2-5.9-3.7c-2.7-2.3-3.7-5.8-2.1-8.8c1.3-2.4,4-4.9,6.5-5.6
			c4.3-1.3,8.7-0.1,12.3,3c2.5,2.2,5.4,6.4,7.7,6.1c3.1-0.4,5.6-4.3,8.4-6.7c0.7-0.6,1.6-1,1.9-1.8c0.4-0.9,0.7-2.4,0.2-3
			c-8.8-11.2-25.8-16-39-10.8c-8.9,3.5-15,9.7-16.3,19.5c-1.3,9.8,2.1,17.7,10.6,22.9c7,4.3,14.3,7.9,21.5,11.8
			c5.5,3,7.4,6.8,5.9,12.2c-1.2,4.4-5.2,6.7-11.1,6.5c-6.8-0.3-11.9-3.7-16.3-8.5c-1.6-1.8-2.6-1.8-4.1-0.1c-2.6,2.6-5.3,5.1-8,7.5
			c-1.9,1.6-1.5,2.6,0.1,4.2C733,616.6,742.8,619.8,753.8,620.1z M778.9,492.2c5.3-1.5,10.9-2.3,15.8-4.6
			c16.5-7.8,17.3-31.4,4.7-39.9c-4.6-3.1-9.4-5.9-14.2-8.7c-3.8-2.2-7.9-3.8-11.7-6.1c-4-2.4-5.2-6.1-4-10.2c1.3-4.3,4.6-6.3,8.7-6
			c3.5,0.3,7,1.7,10.1,3.4c2.9,1.6,5.5,6.3,7.8,6c3-0.4,5.6-4.3,8.4-6.6c0.6-0.5,1.1-1,1.7-1.4c2.1-1.4,1.7-2.5,0.1-4.1
			c-8.9-8.9-19.4-13.4-32.1-11.8c-11,1.4-20,9.2-22.5,19.4c-2.4,9.9,1.6,19,11.2,25.5c3,2,6.3,3.7,9.5,5.4c4.3,2.3,8.7,4.3,12.8,6.7
			c3.9,2.2,5.2,5.8,4.4,10.1c-0.8,4.3-3.6,6.6-7.7,7.3c-5.3,0.9-10.1-0.5-14.5-3.5c-2.8-2-5.9-5.8-8.3-5.4c-3,0.5-5.4,4.5-8.1,7
			c-0.2,0.2-0.4,0.4-0.6,0.6c-2.5,1.6-2.1,3.1-0.1,5C758.2,487.9,767.8,491.2,778.9,492.2z M652.3,621c5.5-1.7,11.4-2.6,16.5-5.2
			c15.8-8.1,16.1-30.8,4.6-38.9c-4.3-3-8.7-5.8-13.3-8.5c-4.3-2.5-8.9-4.4-13.2-6.9c-3.9-2.3-5.2-6.2-4-10.2
			c1.3-4.2,4.5-6.4,8.7-5.8c3.5,0.4,7.1,1.6,10.1,3.3c2.9,1.6,5.5,6.3,7.8,6c3-0.4,5.6-4.3,8.4-6.6c0.7-0.6,1.6-1,1.9-1.8
			c0.4-0.9,0.8-2.4,0.3-3c-8.7-11.2-26.2-16.1-39.4-10.7c-8.7,3.5-14.6,9.7-16,19.3c-1.4,10,2.4,17.8,10.7,23.3
			c3.3,2.2,6.7,4.1,10.2,6c4,2.1,8.2,4,12.1,6.1c4.6,2.5,6.1,6.2,5,11c-1,4.4-4,7.3-9.2,6.9c-4.5-0.4-8.9-2.1-13.1-3.9
			c-2.9-1.3-5.7-5.5-8-5.1c-2.9,0.5-5.2,4.3-7.8,6.7c-0.4,0.4-0.8,0.9-1.3,1.2c-2.1,1.4-1.9,2.7-0.1,4.4
			C631.2,616.7,641,619.7,652.3,621z M1051.5,447.2c0,13,0.1,26-0.1,39.1c0,3.1,0.9,3.9,3.9,3.9c11.6-0.2,23.1-0.1,34.7-0.1
			c11,0,10.9,0,10.9-10.9c0-3.1-0.8-4-3.9-3.9c-8.5,0.2-17,0-25.5,0.1c-2.3,0-3.1-0.7-3-3c0.2-5.3,0.2-10.5,0-15.8
			c-0.1-2.5,1-2.9,3.1-2.9c4.5,0.1,9.1,0,13.6,0c11.5,0,11.4,0,11.1-11.6c-0.1-2.6-1-3.2-3.3-3.1c-7,0.1-14.1-0.1-21.1,0.1
			c-2.8,0.1-3.5-0.8-3.4-3.5c0.2-4.4,0.2-8.8,0-13.2c-0.1-2.6,0.6-3.6,3.4-3.5c6,0.2,12,0.1,18,0.1c11.2,0,11.1,0,11-11.2
			c0-3.1-1.1-3.6-3.8-3.6c-13.9,0.1-27.8,0.2-41.7,0c-3.5-0.1-4,1.2-4,4.3C1051.6,421.4,1051.5,434.3,1051.5,447.2z M801.1,575
			c0,13,0.1,26.1-0.1,39.1c0,3.2,0.9,4,3.9,3.8c3.2-0.3,6.4-0.2,9.7,0c2.8,0.2,3.8-0.6,3.7-3.6c-0.2-8.5,0.1-17-0.2-25.5
			c-0.2-4.1,0.7-5.8,5.2-5.4c3.6,0.4,7.3,0.1,11-0.2c11.8-0.8,21.4-7.9,24.3-17.8c4.5-15.6-5-30.2-22-32.1
			c-10.4-1.2-21-0.5-31.5-0.9c-3.2-0.1-3.9,0.9-3.8,3.9C801.2,549.3,801.1,562.1,801.1,575z M901.7,447c0,13,0.1,26-0.1,39.1
			c0,3,0.7,4,3.9,4c11.4-0.2,22.8-0.1,34.2-0.1c11.7,0,11.7,0,11.4-11.7c-0.1-2.5-0.8-3.2-3.3-3.1c-8.5,0.1-17,0-25.5,0.1
			c-2.6,0-3.6-0.6-3.5-3.4c0.2-4.8,0.2-9.7,0-14.5c-0.1-2.8,0.6-3.9,3.6-3.8c4.4,0.2,8.8,0.1,13.2,0.1c11.1,0,11,0,11-11.3
			c0-2.7-0.8-3.5-3.4-3.4c-6.9,0.2-13.8-0.1-20.6,0.1c-2.9,0.1-3.8-0.9-3.7-3.7c0.2-4.5,0.2-9.1,0-13.6c-0.1-2.1,0.7-2.8,2.8-2.7
			c6.1,0.1,12.3,0,18.4,0c11.3,0,11.2,0,11-11.5c-0.1-2.5-0.7-3.3-3.2-3.2c-14.2,0.1-28.4,0.1-42.6,0c-2.9,0-3.7,0.8-3.7,3.7
			C901.8,421,901.7,434,901.7,447z M558.8,575.3c0,13,0.1,26.1-0.1,39.1c0,3.1,0.8,4,3.9,3.9c11.4-0.2,22.8-0.1,34.3-0.1
			c11.5,0,11.4,0,11.3-11.4c0-2.7-0.8-3.5-3.5-3.4c-8.5,0.2-17,0-25.5,0.1c-2.3,0-3.4-0.3-3.3-3c0.2-5.3-0.1-10.5,0.2-15.8
			c0-1,1.7-2.6,2.6-2.6c4.5-0.3,9.1-0.1,13.6-0.1c11.7,0,11.6,0,11.4-11.7c0-2.7-1.1-3-3.3-3c-7,0.1-14.1,0-21.1,0.1
			c-2.4,0-3.5-0.5-3.4-3.1c0.2-4.5,0.2-9.1,0-13.6c-0.1-2.8,1-3.5,3.6-3.4c5.9,0.2,11.7,0.1,17.6,0.1c11.3,0,11.2,0,11.1-11.2
			c0-3-0.9-3.7-3.7-3.7c-14.1,0.1-28.1,0.1-42.2,0c-3,0-3.6,0.9-3.6,3.7C558.9,549.2,558.8,562.3,558.8,575.3z M1077.8,533
			c-7.6,0-15.2,0-22.8,0c-3.9,0-9.7-1.2-11.2,0.8c-2,2.5-0.6,7.8-0.8,11.8c-0.1,2.3,0.6,3,2.9,3c6-0.1,12,0.2,18-0.1
			c3.9-0.2,5.1,0.8,5,4.9c-0.2,20.2,0,40.4-0.2,60.6c0,3.1,0.8,4.1,3.9,3.8c2.9-0.3,5.9-0.3,8.8,0c3.7,0.4,5-0.6,4.9-4.7
			c-0.3-16.7-0.1-33.4-0.1-50.1c0-4.7,0.2-9.3,0.3-14c4.8-0.2,9.5-0.5,14.3-0.6c12.1-0.1,12,0,11.8-12.3c0-2.8-0.9-3.4-3.5-3.4
			C1098.6,533.1,1088.2,533,1077.8,533z M842.7,454.5c0,10.4,0.1,20.8-0.1,31.2c0,2.6,0.6,3.7,3.4,3.5c3.1-0.2,6.2-0.3,9.2,0
			c4,0.5,4.8-1,4.8-4.8c-0.2-20.2,0-40.4-0.2-60.6c0-3.4,0.9-4.3,4.1-4.1c3.6,0.3,7.3,0.1,11,0.1c3.6,0,8.9,1.2,10.5-0.6
			c1.9-2.2,0.6-7.2,1-10.9c0.4-3.5-1.1-4.1-4.2-4.1c-17.8,0.1-35.7,0.1-53.6,0.1c-12.4,0-12.3,0-12.1,12.3c0,2.9,1.1,3.4,3.6,3.3
			c5.6-0.2,11.1-0.1,16.7,0c6.8,0.1,5.9-1,5.9,5.7C842.7,435.2,842.7,444.9,842.7,454.5z M572.1,446.6c0,13.2,0.1,26.3-0.1,39.5
			c0,2.7,0.7,3.7,3.4,3.5c3.2-0.2,6.5-0.3,9.6,0c3.6,0.4,4.3-1.1,4.3-4.4c-0.1-22.5,0-45-0.1-67.6c0-4.3,1.3-10.4-1-12.5
			c-2.3-2.2-8.3-0.6-12.6-0.9c-2.9-0.2-3.7,0.9-3.6,3.8C572.1,420.9,572.1,433.8,572.1,446.6z M714.4,447.1c0,13,0.1,26-0.1,39.1
			c0,2.7,0.7,3.7,3.4,3.5c3.2-0.2,6.5-0.3,9.6,0c3.6,0.4,4.4-1,4.3-4.4c-0.1-22.5,0-45.1-0.1-67.6c0-4.3,1.2-10.4-1-12.5
			c-2.4-2.2-8.3-0.6-12.6-0.9c-2.9-0.2-3.7,0.9-3.6,3.7C714.5,421,714.4,434.1,714.4,447.1z M483.5,808.1c5.6,0,11.1,0.1,16.7-0.1
			c1.3,0,3-0.6,3.7-1.5c1.9-2.4,3.4-5.1,5-7.7c0.3-0.4,0.3-1,0.4-1.6c-0.7,0-1.5-0.3-2,0c-1.1,0.6-2.1,1.5-3.2,2.4
			c-5.9,4.7-12.7,6.3-20.2,5.4c-3-0.4-3.8-1.7-2.8-4.4c1.5-4.4,3-8.9,4.7-13.2c0.4-0.9,1.4-2.2,2.2-2.2c2.7-0.2,5.6-0.2,8.3,0.2
			c2.3,0.4,4.6,1.3,4.2,4.6c-0.1,0.6,0.7,1.2,1.1,1.9c0.6-0.5,1.5-1,1.8-1.6c1.6-3.9,3-7.9,4.4-11.9c0.2-0.5-0.2-1.2-0.3-1.8
			c-0.6,0.2-1.7,0.3-1.9,0.8c-3.1,6.6-9.1,5.2-14.5,5.3c-2,0.1-2.7-0.5-1.9-2.6c1.5-3.8,2.5-7.8,4.3-11.5c0.8-1.5,2.8-2.9,4.5-3.4
			c2.2-0.6,4.6-0.4,7-0.4c3.7,0,6.7,0.9,6.9,5.5c0,0.6,0.9,1.3,1.3,1.9c0.5-0.6,1.2-1.2,1.4-1.9c0.6-2.1,1.1-4.3,1.3-6.4
			c0.1-0.7-1-2.1-1.6-2.1c-10.7-0.1-21.4-0.1-32.1,0c-0.5,0-1.1,0.7-1.6,1.1c0.5,0.4,0.9,1.1,1.5,1.2c4.6,0.9,4.6,3.7,3.2,7.2
			c-3.2,8.5-6.4,17-9.5,25.5c-1.8,4.8-4.3,8.7-10,9.1c-0.7,0.1-1.3,0.9-1.9,1.4c0.8,0.3,1.6,1,2.5,1
			C472.1,808.2,477.8,808.1,483.5,808.1z M520.9,824.6c6.7-0.3,12.9-1.7,17.8-6.5c4.3-4.1,3.5-8.3-1.9-10.7
			c-3.1-1.4-6.4-2.1-9.5-3.4c-3.2-1.3-3.5-3.3-0.7-5.3c1-0.7,2.4-1,3.6-1.3c6.2-1.7,11.5-7.2,11.3-13c-0.2-4.2,0.9-5.3,4.8-5
			c0.7,0.1,1.6-1.5,2.4-2.4c-0.4-0.4-0.8-1.1-1.3-1.2c-5.2-0.4-10.4-1.1-15.6-1c-5.6,0.1-10.8,4.6-12.4,10.2
			c-1.4,4.8-0.7,9,4.3,11.6c0.2,0.1,0.1,1.4-0.3,1.9c-1.3,1.7-4.3,3.8-3.9,4.7c1.8,5.1-2.3,4.8-4.8,6.2c-2,1.2-4.2,2.3-5.7,3.9
			c-3.3,3.5-2.2,7.8,2.4,9.3C514.5,823.8,517.7,824,520.9,824.6z M498.5,841.6c-5.3,0-10.5,0-15.8,0c-0.7,0-1.4,0.6-2.2,0.9
			c0.4,0.5,0.8,1.3,1.3,1.4c5.6,0.9,4.4,4.4,3.2,7.9c-2.9,7.8-5.9,15.6-8.7,23.4c-1.9,5.3-4.2,10-10.8,10.7c-0.6,0.1-1.1,1-1.6,1.6
			c0.6,0.2,1.2,0.7,1.9,0.7c7,0,14,0,21.1,0c0.6,0,1.2-0.4,1.8-0.6c-0.5-0.4-1-0.9-1.6-1.1c-6.2-2-6.4-2.4-4.4-8.6
			c0.4-1.1,0.8-2.2,1.1-3.3c2.9-8.4,2.9-8.4,11.9-7.9c2.8,0.1,4.5,0.9,4.3,4.1c0,0.6,0.6,1.3,1,2c0.6-0.5,1.6-0.9,1.8-1.5
			c1.6-3.9,3-7.9,4.4-11.9c0.2-0.6,0-1.3,0-1.9c-0.7,0.2-1.7,0.1-1.9,0.5c-3.1,6.4-8.9,5.5-14.4,5.6c-2.8,0.1-2.8-1.1-2-3.1
			c1.4-3.7,2.8-7.4,4.1-11.1c2.4-6.8,8.2-4.7,13-4.9c4.1-0.2,5.7,2.2,5.8,6c0,0.6,0.9,1.2,1.4,1.8c0.5-0.6,1.1-1.2,1.3-1.9
			c0.5-2,0.8-4,1.3-6c0.5-2.1-0.2-2.8-2.4-2.8C508.5,841.7,503.5,841.6,498.5,841.6z M563.5,701.9c-1.1-2.1-1.8-5.4-3.4-5.9
			c-2.2-0.7-5.1,0.4-7.6,1.2c-1.1,0.3-1.9,1.8-3,2.5c-0.6,0.4-1.4,0.5-2.1,0.8c0-0.7-0.1-1.4,0.1-2c1.7-4.5,3.5-9,5.1-13.5
			c0.9-2.5,1.5-5.1,2.3-7.7c-2.9,0.2-5.8,0.4-8.7,0.6c-0.3,0-0.7,0-0.8,0.1c-0.3,0.5-0.8,1.6-0.7,1.7c4.3,2.8,2,6.2,0.8,9.3
			c-4,10.6-8.3,21.2-12.4,31.8c-1.6,4.2-0.6,6.8,3.7,8.1c2,0.6,4.4,0.6,6.4-0.1C552.5,726,562.6,712,563.5,701.9z M481.6,728.1
			c1.9,0,3.8,0,5.7,0c12.3,0,12.4,0,18-11c0.4-0.7,0.4-1.5,0.6-2.3c-0.9,0.2-2.1,0.1-2.7,0.6c-1.9,1.6-3.3,3.9-5.4,5.1
			c-3.5,1.9-7.2,3.8-11.1,4.5c-5,0.8-6.2-1-4.6-5.8c2.1-6.7,4.4-13.3,6.9-19.9c2.5-6.8,3.6-15,13.4-15.8c0.4,0,0.7-0.8,1.1-1.2
			c-0.5-0.2-0.9-0.7-1.4-0.7c-6.7,0-13.5-0.1-20.2,0c-0.6,0-1.2,0.6-1.8,0.9c0.4,0.5,0.8,1.2,1.3,1.3c5.3,0.9,4.6,4.2,3.3,7.9
			c-2.8,7.8-5.6,15.7-8.3,23.5c-1.9,5.3-4.3,10-10.8,10.6c-0.6,0-1,1-1.5,1.6c0.6,0.2,1.2,0.7,1.8,0.7
			C471,728.1,476.3,728.1,481.6,728.1z M546,805.9c0.5,0.7,1.3,3.2,2.9,3.8c1.6,0.7,4.3,0,6-0.9c1.7-0.9,2.9-2.9,4.3-4.3
			c1.1-1.1,2.1-2.2,3.2-3.3c0.2,1.4,0.2,2.9,0.8,4.1c0.8,1.7,1.7,4.2,3.2,4.7c1.4,0.5,3.9-0.7,5.2-1.9c1.7-1.7,2.8-4,4.1-6.1
			c0.3-0.5,0.3-1.3,0.4-2c-0.7,0.4-1.3,0.8-2,1.1c-1.3,0.7-2.6,1.3-3.9,2c-0.2-1.5-0.5-3-0.4-4.5c0.1-1.1,0.7-2.2,1.2-3.3
			c2.5-6.3,5-12.5,7.4-18.8c0.3-0.7,0.1-1.5,0.1-2.3c-0.8,0.1-1.7,0.1-2.4,0.4c-2.2,0.8-4.4,2.1-6.7,2.6
			C557.6,779.6,546.3,792.7,546,805.9z M535.2,885.7c0.5,0.7,1.3,3.4,3,4.1c1.7,0.7,4.4-0.2,6.3-1.2c1.6-0.8,2.6-2.7,3.9-4.1
			c1-1.1,2.1-2.2,3.2-3.3c0.2,1.4,0.2,2.9,0.7,4.1c0.8,1.7,1.8,4.4,3.1,4.7c1.6,0.4,4-0.9,5.6-2.1c1.5-1.2,2.4-3.3,3.4-5
			c0.5-0.9,0.5-2,0.8-3.1c-0.7,0.6-1.4,1.3-2.2,1.8c-1,0.7-2.2,1.2-3.3,1.8c-0.3-1.3-0.9-2.7-0.8-4c0.2-1.6,0.9-3.1,1.5-4.6
			c2.5-6.1,5-12.2,7.5-18.2c0.3-0.7,0.3-1.6,0.5-2.3c-0.9,0.1-1.9,0.1-2.8,0.4c-2,0.7-3.8,2.1-5.8,2.4
			C547.8,858.8,535.9,871.8,535.2,885.7z M712.5,890.5c6.3-1.1,11.2-4.8,14.8-10.3c0.3-0.4,0.1-1,0.2-1.6c-0.5,0.1-1.1,0.1-1.5,0.4
			c-2.4,1.6-4.8,3.3-7.3,4.8c-0.5,0.3-1.1,0.3-1.7,0.4c0-0.7-0.3-1.4-0.1-2c1.6-4.7,3.6-9.3,5-14c1.4-4.8,2.9-8.9,9.3-7.5
			c0.7,0.2,1.9-1.6,2.8-2.4c-0.9-0.4-1.9-1-2.8-1.1c-5.3-0.3-5.3-0.2-3.6-5.1c0.2-0.5,0.6-1.1,0.6-1.6c0-0.7-0.2-1.5-0.3-2.3
			c-0.8,0.2-1.7,0.2-2.4,0.6c-0.6,0.3-0.9,1.1-1.3,1.7c-2.5,3.7-4.4,8.1-10.2,7.4c-0.5-0.1-1.1,1-1.7,1.5c0.7,0.3,1.5,1,2.1,0.9
			c3.7-0.4,3.7,1.1,2.6,4c-2.7,6.8-5.2,13.6-7.7,20.5C708.1,888.5,709.2,890.5,712.5,890.5z M584.1,810.5c3-2.3,6.2-4.5,9-7.1
			c1.1-1,1.3-3,1.9-4.5c-1.1,0.9-2.1,1.7-3.2,2.6c-0.6,0.5-1.1,1-1.8,1.3c-0.9,0.4-1.8,0.7-2.8,1c0.2-0.9,0.2-1.9,0.5-2.8
			c4.5-12.1,9.1-24.1,13.5-36.2c0.9-2.5,1.6-5.2,2.3-7.8c-2.9,0.1-5.7,0.2-8.6,0.5c-2.3,0.2-2.8,0.8-1,2.9c1,1.2,1.4,3.4,1.2,5
			c-0.4,2.4-1.5,4.7-2.4,7c-4,10.5-8.1,21-12,31.6C579.4,807.6,580.4,809.6,584.1,810.5z M623.1,729.6c6.2-1.2,11-4.7,14.5-10.1
			c0.3-0.4,0.3-1.1,0.5-1.6c-0.6,0.1-1.4,0-1.9,0.3c-1.8,1.2-3.5,2.7-5.4,3.8c-1,0.6-2.3,0.7-3.5,1c0.2-1.1,0.2-2.2,0.6-3.3
			c1.2-3.4,2.5-6.8,3.7-10.3c1.8-5.2,2.5-11.6,10.8-9.5c0.5,0.1,1.3-1.4,2-2.2c-0.7-0.5-1.3-1.2-2-1.3c-5.7-0.6-5.7-0.6-3.9-6.2
			c0.1-0.4,0.4-0.8,0.4-1.2c0-0.5,0-1.5-0.2-1.5c-0.6-0.2-1.6-0.3-2.1,0c-0.8,0.6-1.4,1.4-2,2.3c-2.4,3.3-3.9,7.8-9.3,7.2
			c-0.4,0-1,0.8-1.2,1.4c-0.1,0.2,0.7,1,1,1c4.7-0.3,3.1,2.4,2.3,4.7c-2.5,6.7-5,13.4-7.4,20.1C618.6,727.8,619.7,729.7,623.1,729.6
			z M564.4,720.9c1.5,2.6,2.4,6,4.6,7.8c2.9,2.4,6.6,0.8,9.2-1.5c2.6-2.3,4.7-5.2,6.9-7.8c0.3-0.4,0.3-1,0.5-1.6
			c-0.7,0.1-1.5,0-1.9,0.3c-1.8,1.3-3.2,3-5.1,4.1c-2.7,1.5-5.4,1.5-7-1.8c-1.6-3.5-0.4-7.8,2.5-8.8c4-1.4,8-3,12.1-3.9
			c4.1-1,4.3-3.9,4.2-7c-0.2-3.4-2.3-5.9-5.5-5.6c-3,0.2-6.4,1.3-8.7,3.1C569.3,703.8,566.1,711.6,564.4,720.9z M627,810
			c6.1-1.2,11-4.8,14.5-10.4c0.3-0.4,0.1-1,0.2-1.5c-0.5,0.1-1.1,0.1-1.5,0.4c-1.9,1.3-3.7,2.8-5.7,4c-1,0.6-2.4,0.7-3.6,1.1
			c0.2-1.1,0.4-2.2,0.7-3.2c1.5-4.4,3.4-8.7,4.7-13.2c1.3-4.7,3.2-8,8.9-6.9c0.8,0.2,2-1.4,3-2.2c-1-0.5-1.9-1.3-2.9-1.3
			c-5.2-0.3-5.2-0.2-3.4-5.1c0.1-0.4,0.4-0.8,0.5-1.2c0.1-0.8,0-1.7,0-2.6c-0.9,0.2-2.1,0.2-2.8,0.7c-0.9,0.7-1.5,1.8-2,2.8
			c-2,3.7-4.5,6.4-9.1,6.1c-0.6,0-1.3,0.8-1.9,1.2c0.7,0.5,1.5,1.4,2.2,1.3c3.8-0.4,3.6,1.3,2.5,4c-2.7,6.9-5.3,13.9-7.8,21
			C622.3,808.3,623.4,810.1,627,810z M643.4,719.5c-0.2,8.4,4.6,12.5,10.6,9c3.7-2.2,6.3-6.2,9.4-9.4c0.3-0.3,0-1,0-1.5
			c-0.5,0.2-1.2,0.2-1.6,0.5c-1.8,1.4-3.5,3.2-5.5,4.3c-2.6,1.4-5.2,1.2-6.6-1.9c-1.6-3.6-0.4-7.9,2.4-8.9c4-1.4,8-2.9,12.1-3.9
			c4.1-1,4.3-3.9,4.2-7c-0.1-3.4-2.3-5.9-5.5-5.7c-3.1,0.3-6.7,1.4-9,3.4C647.2,704,644.1,711.7,643.4,719.5z M913.5,380.3
			c-3.1,0-5.2,0-7.2,0c-0.8,0-1.6,0.3-2.4,0.5c0.4,0.6,0.7,1.2,1.1,1.7c3.9,4.2,7.8,8.3,11.8,12.4c0.8,0.9,2.2,1.7,3.3,1.7
			c3.8,0.2,7.6,0.1,11.4,0c0.3,0,1.1-1.6,0.9-1.9c-2.1-2.8-4.7-5.3-6.6-8.2C922.6,381.7,918.7,378.6,913.5,380.3z M667.4,268.7
			c-1.3,0.3-3.3,0.7-5.3,1.3c-0.5,0.1-0.8,0.7-1.2,1.1c0.4,0.1,0.9,0.2,1.3,0.2c1,0,2.1-0.1,3.1,0.1c0.9,0.2,1.7,0.7,2.6,1.1
			c-0.5,0.7-0.9,1.4-1.5,2c-0.6,0.6-1.3,1.2-2,1.7c-2.4,1.8-3.8,2.8,0.4,4.6c3,1.3,3.7,1.5,4.2-1.8c0.3-1.9,1.3-3.8,2.1-5.6
			C672.5,270,671.8,268.8,667.4,268.7z M673.4,679.4c-0.4-0.4-0.8-0.9-1-0.9c-2.2,0.6-5.1,0.5-6.5,2c-2.3,2.5-3.8,5.9-5.5,8.9
			c-0.3,0.6-0.3,1.3-0.5,1.9c0.6-0.2,1.4-0.3,1.8-0.7c3.6-3.2,7.1-6.5,10.6-9.8C672.7,680.5,673,680,673.4,679.4z M763.8,840.3
			c-0.5-0.3-0.8-0.7-1.1-0.7c-2.5,0.1-5.2-1.2-6.9,2.1c-1.5,3-3.4,5.8-5.1,8.7c-0.3,0.5-0.3,1.3-0.5,1.9c0.6-0.2,1.4-0.3,1.8-0.7
			c3.6-3.2,7.1-6.5,10.6-9.8C763.1,841.4,763.4,840.9,763.8,840.3z M513.9,749.3c-0.5-0.3-0.9-0.7-1.2-0.7c-2.7,0.3-5.9-1.4-7.8,2.1
			c-1.1,1.9-2.5,3.6-3.7,5.4c-0.4,0.6-0.5,1.5-0.8,2.2c0.7-0.2,1.5-0.1,2-0.5c3.4-2.3,6.7-4.7,10.1-7
			C512.9,750.6,513.2,750.1,513.9,749.3z M706.8,836.5c-2.1,2.7-4.3,4.3-4.1,5.5c0.3,1.6,2.3,3.6,3.9,4.1c0.9,0.3,3.6-2.2,3.7-3.5
			C710.4,841,708.5,839.3,706.8,836.5z M534.2,682.2c0-0.6-0.1-1.3-0.1-1.9c-1.7-1-3.4-2.8-5-2.6c-1.3,0.1-3.4,2.6-3.4,3.9
			c0,1.3,2.3,3.6,3.7,3.6C531,685.2,532.6,683.3,534.2,682.2z M621.1,767.8c1.7-2.9,3.5-4.7,3.3-6.3c-0.1-1.3-2.8-3.6-3.9-3.3
			c-1.5,0.4-3.4,2.6-3.6,4.1C616.9,763.6,619,765.2,621.1,767.8z"/>
		<path class="st1" d="M576.6,288.6c-1.2-0.2-2.4-0.4-3.7-0.6c-1.2-0.2-2.3-0.3-3.5-0.5c-2.4,0-4.8,0-7.2,0.1
			c-1.4,0.4-2.7,0.9-4.1,1.3c-0.9,0.8-1.8,1.6-2.7,2.4c-1.5,1.5-3.3,2.9-4.5,4.7c-0.8,1.2-2.2,2-0.8,4.7c2.2,4.1-0.2,8.1-3.9,11
			c-1.3,1-2.6,2-3.6,3.1c-0.6,0.7-0.8,1.8-1.2,2.7c0.9-0.2,1.9-0.3,2.7-0.7c3.8-1.5,7.4-3.5,11.3-4.5c6.3-1.6,12.7-2.4,19-3.8
			c1.4-0.3,2.6-1.5,4-2.2c-1.2-0.8-2.2-1.9-3.5-2.4c-4.8-2-9.8-3.7-14.6-5.8c-2-0.9-5.4-2.9-5.2-3.6c1.1-3.7,4.2-0.1,6.3-1.2
			c6.9,1.4,13.8,2.5,20.2,6.4c2.4,1.5,7.3-1,11.1-1.7c0.6-0.1,1.3-0.5,1.9-0.8c0,0.7,0,1.4-0.1,2.1c-1.4,7.5-6.5,11.8-12.7,15.3
			c-2.7,1.5-6.5,2.4-6.3,6.8c0.3,0.6,0.6,1.1,0.9,1.7c-2.4,0.6-4.8,1.1-7.2,1.9c-3.9,1.3-6.6,3.9-7.6,8.1c-0.8,1.4-1.5,2.8-2.2,4.2
			c1.3-0.9,2.6-1.8,3.8-2.6c6.3-6.1,14.2-7.6,22.5-8.1c3.1-0.2,6.1-1.7,9-3.1c3.8-1.8,7.3-4.1,11-6c0.8-0.4,1.9-0.1,2.8-0.2
			c-0.3,0.9-0.4,2-1,2.7c-7.6,7.8-14.9,15.6-25.5,20.3c-8.8,3.9-17.3,5.9-26.8,5.7c-29.1-0.4-58.3-0.2-87.4-0.1
			c-3.5,0-4.4-0.9-4.4-4.4c0.1-36.2,0.1-72.3,0-108.5c0-3,0.7-3.9,3.9-3.9c47.3,0.1,94.6,0.1,141.9,0.1c1.1,0,2.1,0.3,3.2,0.5
			c-1,0.5-1.9,1.1-3,1.5c-4.7,1.9-7.8,5.2-10.4,9.6c-2.6,4.5-6.1,8.5-9.1,12.8c-1,1.4-2.2,3.3-2,4.8c1.2,9.5,0,19.7,6.9,27.9
			c0.1,0.1,0.2,0.2,0.3,0.4c0.7,1.4,1.3,2.7,1.9,4.1c-1.5-0.4-3-0.7-4.4-1.1c-0.3-0.3-0.6-0.5-0.9-0.8c-0.3-0.1-0.7-0.2-1-0.4
			c0.1,0.4,0.2,0.7,0.3,1.1c-0.1,0.2,0,0.4,0.3,0.4c-2.7,2-5.4,3.5-8.6,0.5c-1-0.9-2.9-0.9-4.4-1.3
			C577.7,288.8,577.1,288.7,576.6,288.6z M555.4,326c0.6-0.1,1.1-0.1,1.7-0.2c0.9-0.2,1.8-0.3,2.7-0.5c-0.9-0.1-1.8-0.2-2.8-0.2
			c-0.5,0-1.1,0-1.6,0c-0.9,0.3-1.8,0.5-2.7,0.8c-3.8,1-7.7,1.8-8.8,6.5c-0.1,0.4-0.3,0.8-0.4,1.1c0.4,0,0.8,0.1,1.1-0.1
			c3.6-2.4,7.3-4.9,10.9-7.4C555.6,326,555.4,326,555.4,326z M554.6,283.7c-7.2,6.6-14.4,13.2-21.6,19.8c-1.2,1.8-2.5,3.5-3.7,5.3
			c-0.3,0.4-0.3,1-0.4,1.5c0.5-0.2,1.1-0.2,1.4-0.6c1.5-1.6,2.9-3.2,4.3-4.9c2.1-1.8,4.2-3.6,6.2-5.5c2.7-2.4,6.8-2.6,9-6.2
			c1.9-3.1,4.9-5.6,7.4-8.4c0.7-0.1,1.3-0.1,2-0.2c0.3-0.3,0.5-0.7,0.8-1C558.1,283.6,556.3,283.7,554.6,283.7z M563.1,316.4
			c1.2-0.7,2.2-1.3,3.2-1.9c-0.6-0.3-1.3-1-1.7-0.9c-1.1,0.3-2,1-3,1.6C562.1,315.5,562.5,315.9,563.1,316.4z M557.6,331
			c-0.5-0.9-0.7-1.3-1-1.7c-1.1,0.9-2.2,1.7-3.2,2.6c-0.1,0.1,0.2,0.6,0.3,0.9C554.9,332.3,556.1,331.7,557.6,331z"/>
		<path class="st2" d="M723.4,228.5c19.5,0,38.9,0.1,58.4-0.1c3.2,0,4.3,0.6,4.3,4.1c-0.1,36.2-0.1,72.3,0,108.5
			c0,3.6-1.2,4.3-4.5,4.3c-38.5-0.1-77,0.1-115.5-0.3c-4.8,0-9.7-2.8-14.4-4.5c-8.3-3-9.2-5.1-6.2-13.7c3.2-9.4,6.4-11.2,16.1-9.3
			c2.7,0.5,5.5,1,8.3,1c5.1-0.1,7.7-3.3,7.2-8.3c-0.1-1.1,0.5-2.3,0.8-3.5c0.2-0.5,0.9-1,0.9-1.5c0-3.1-0.3-6.2-0.1-9.2
			c0.1-1,1.3-2.4,2.3-2.8c3-1.2,3.3-3,1.9-5.5c-0.3-0.6-0.7-1.3-1.1-1.9c-3.6-4.9-6.4-9.7-5.6-16.4c0.4-3.5-1.4-7.4-2.4-11.1
			c-0.8-2.9-3.7-5.8,0.6-8.3c0.1,0-1.1-2.7-1.4-2.6c-4.4,0.9-5.5-3.8-8.6-4.9c0.2-0.4,0.3-1,0.6-1.2c4.6-2.8,4.8-6.1,0.5-9.5
			c-0.6-0.4-1.3-0.7-1.8-1.2c-0.7-0.5-1.2-1.1-1.9-1.6c0.8-0.2,1.6-0.4,2.4-0.5c13.5,0,26.9,0,40.4,0
			C710.8,228.5,717.1,228.5,723.4,228.5z"/>
		<path class="st3" d="M548.4,447.5c0,12.7-0.1,25.5,0.1,38.2c0,3.1-0.8,4.1-3.9,3.9c-4.3-0.4-10.1,1.1-12.6-1.1
			c-2.2-1.9-0.7-8-0.7-12.2c0-14.2,0-28.4,0-42.6c0-1.1-0.3-2.2-0.5-3.3c-0.7,0.8-1.6,1.5-2.2,2.4c-4.7,7.7-9.4,15.5-14.1,23.3
			c-3.4,5.6-13.1,5.7-16.4,0.1c-4.8-7.9-9.5-15.8-14.3-23.7c-0.5-0.8-1.2-1.4-1.9-2.1c-0.2,0.9-0.6,1.9-0.6,2.8
			c0,17.1-0.1,34.3,0.1,51.4c0,3.6-0.8,5-4.6,4.6c-3.3-0.3-6.7-0.2-10.1,0c-2.2,0.1-3.1-0.5-3.1-2.9c0.1-26.3,0.1-52.7,0-79
			c0-2.3,0.7-3.1,3-3c5.4,0.1,10.8-0.2,16.2,0.2c1.5,0.1,3.4,1.5,4.2,2.9c5.7,9.4,11.3,18.8,16.7,28.4c1.7,2.9,2.4,3.8,4.5,0.1
			c5.3-9.6,11.1-18.9,16.6-28.4c1.3-2.3,2.9-3.2,5.5-3.1c4.8,0.2,9.7,0.2,14.5,0c2.9-0.1,3.7,0.8,3.7,3.7
			C548.3,421.2,548.4,434.3,548.4,447.5z"/>
		<path class="st4" d="M612.8,447c0-12.9,0.1-25.8-0.1-38.6c-0.1-3.4,1-4.3,4.2-4.1c4.7,0.3,9.4,0.2,14,0c3-0.2,4.7,0.9,6.3,3.5
			c10.9,17.8,22,35.6,33.1,53.3c0.6,1,1.4,1.8,2.1,2.7c0.2-1.2,0.6-2.4,0.6-3.6c0-17.3,0.1-34.5-0.1-51.8c0-3.4,1-4.3,4.2-4
			c3.3,0.3,6.7,0.1,10.1,0c2.1-0.1,3.2,0.4,3.1,2.9c-0.1,26.5-0.1,53,0,79.5c0,2.4-0.9,3.2-3.1,2.9c-0.1,0-0.3,0-0.4,0
			c-6.1-0.1-13.4,1.8-18.1-0.8c-4.7-2.6-7.1-9.6-10.3-14.8c-8.6-13.8-17.1-27.6-25.7-41.4c-0.5-0.8-1.3-1.5-1.9-2.3
			c-0.2,1.1-0.7,2.1-0.7,3.2c0,17.3-0.1,34.5,0.1,51.8c0,3.5-0.9,4.7-4.4,4.3c-3.2-0.3-6.4-0.2-9.7,0c-2.8,0.2-3.4-0.9-3.4-3.5
			C612.9,473.1,612.8,460,612.8,447z"/>
		<path class="st3" d="M868,575.9c0-25.9,19.4-45.4,45.2-45.4c25.4,0,44.8,19.6,44.9,45.2c0.1,25.5-19.5,45.3-44.7,45.4
			C887.5,621.2,868,601.7,868,575.9z M885.6,575.3c-0.1,16.7,11.3,29,26.9,29.1c16.3,0.1,28.2-11.9,28.4-28.7
			c0.1-16.4-11.6-29-27.1-29.1C897.5,546.4,885.7,558.4,885.6,575.3z"/>
		<path class="st3" d="M463.6,575.4c0-13,0.1-26-0.1-39c0-3.1,0.8-4,3.9-3.9c12.4,0.4,24.9-0.2,37.2,0.9
			c18.3,1.7,32.2,14.4,36.4,31.8c4.1,17.1-2.9,35.1-17.6,44.9c-6.9,4.6-14.5,7-22.7,7.2c-11.4,0.2-22.8,0.1-34.2,0.2
			c-2.9,0-2.9-1.4-2.9-3.5C463.6,601.1,463.6,588.3,463.6,575.4z M480.7,575.6c0,7.9-0.1,15.8,0.1,23.7c0,1,1.5,2.9,2.3,2.9
			c6.6,0,13.2,0.3,19.7-0.6c13.8-1.9,22.8-14,22.1-28.7c-0.5-11.6-9.9-24.6-25-24.3c-5.3,0.1-10.5,0.1-15.8-0.1
			c-2.6-0.1-3.5,0.7-3.5,3.4C480.8,559.9,480.7,567.8,480.7,575.6z"/>
		<path class="st4" d="M971.4,446.8c0-12.9,0.1-25.8-0.1-38.7c0-3.1,0.9-4,3.9-3.9c9.5,0.3,19.1-0.2,28.5,0.6
			c16.2,1.5,25.5,13.2,23.7,28.8c-0.8,7-4.4,12.4-10.3,16.1c-2.5,1.6-2.6,2.7-0.9,5c7.6,10.4,15,20.9,22.5,31.4
			c0.6,0.8,0.9,1.7,1.3,2.6c-0.9,0.1-1.9,0.4-2.8,0.4c-5.5,0-12,1.6-16.4-0.7c-4.2-2.2-6.4-8.4-9.4-12.9
			c-4.1-6.1-8.1-12.2-12.1-18.3c-1.3-1.9-8.2-3.5-9.8-2.1c-0.7,0.6-0.8,2.1-0.8,3.2c-0.1,9.1-0.2,18.2,0,27.2c0.1,3-0.9,3.8-3.7,3.6
			c-3.4-0.2-6.7-0.3-10.1,0c-3.1,0.3-3.6-1-3.6-3.8C971.4,472.6,971.4,459.7,971.4,446.8z M988.1,429.6c0,11.1,0,11.1,11.1,10.5
			c1-0.1,2.3,0.1,3-0.4c2.3-1.6,5.2-3.1,6.4-5.4c2.2-4.1,1.7-8.6-1.4-12.3c-2.4-2.8-15.2-5.6-17.7-3c-1.7,1.7-1,5.8-1.4,8.8
			C988.1,428.4,988.1,429,988.1,429.6z"/>
		<path class="st3" d="M975.2,574.6c0-12.9,0-25.8,0-38.7c0-1.7-0.6-3.6,2.4-3.5c10.4,0.3,20.9-0.2,31.1,0.9
			c16.2,1.8,25.5,15.3,22.1,30.7c-1.3,5.9-4.5,10.6-9.6,13.6c-3.4,2.1-2.6,3.5-0.8,6c7.3,9.9,14.4,20,21.5,30c0.7,1,1.1,2.2,1.6,3.4
			c-1.1,0.1-2.2,0.4-3.4,0.4c-5.3,0-11.4,1.5-15.5-0.7c-4.1-2.2-6.3-8.1-9.2-12.5c-4-5.9-7.9-11.9-11.9-17.9
			c-1.7-2.6-7.9-4.4-10.3-2.8c-0.7,0.4-0.9,2-0.9,3c-0.1,8.8-0.3,17.6,0.1,26.4c0.2,4.1-1.2,5.1-4.9,4.7c-2.6-0.3-5.3-0.3-7.9,0
			c-3.9,0.5-4.5-1.2-4.4-4.7C975.3,600.1,975.2,587.4,975.2,574.6z M992,557.8c-0.1,0-0.2,0-0.2,0c0.3,3.6,0.5,7.2,0.8,10.8
			c4.6-0.1,9.4,0.4,13.8-0.5c2.4-0.5,4.9-3.1,6.2-5.4c2.2-3.7,0.8-9.5-1.9-12.2c-2.6-2.5-15.2-5.3-17.4-2.8c-1.7,1.9-1,5.9-1.3,8.9
			C992,556.9,992,557.4,992,557.8z"/>
		<path class="st5" d="M1149.1,620.1c-10.9-0.4-20.8-3.4-28.7-11.4c-1.7-1.8-2-3,0.1-4.4c0.4-0.2,0.7-0.6,1-0.9
			c2.7-2.5,5.1-6.5,8.1-7c2.4-0.4,5.3,4,8.4,5.4c3.8,1.7,7.8,3.3,11.9,3.7c5.4,0.5,9-2.4,10.1-6.6c1.2-5.1-0.4-8.9-5.4-11.7
			c-4.8-2.6-9.7-4.8-14.5-7.4c-2.6-1.4-5-3-7.5-4.5c-16.5-10.1-14-34.3,4.2-42.1c13.2-5.7,29.2-2.4,40.6,10.4
			c0.4,0.5,0.1,2.3-0.5,2.9c-2.7,2.7-5.7,5-8.5,7.6c-1.7,1.6-2.7,1.3-4.2-0.4c-4-4.5-8.4-8.7-15.2-8.4c-4.7,0.2-8,2.3-9,6.2
			c-1.1,4.4,0.4,7.9,4.3,10.1c4.6,2.6,9.4,4.8,14,7.3c2.8,1.5,5.7,3.1,8.4,4.8c9.6,6.1,13.3,14.9,11.2,26
			c-1.9,9.9-10,17.4-20.9,19.4C1154.4,619.7,1151.8,619.8,1149.1,620.1z"/>
		<path class="st5" d="M753.8,620.1c-11-0.3-20.7-3.5-28.6-11.5c-1.5-1.6-1.9-2.6-0.1-4.2c2.8-2.4,5.5-4.9,8-7.5
			c1.6-1.6,2.5-1.7,4.1,0.1c4.3,4.8,9.5,8.3,16.3,8.5c5.9,0.2,10-2.1,11.1-6.5c1.4-5.4-0.4-9.2-5.9-12.2
			c-7.2-3.9-14.5-7.6-21.5-11.8c-8.5-5.2-11.9-13.1-10.6-22.9c1.3-9.9,7.4-16.1,16.3-19.5c13.2-5.2,30.2-0.4,39,10.8
			c0.5,0.6,0.1,2.1-0.2,3c-0.3,0.7-1.3,1.2-1.9,1.8c-2.8,2.4-5.3,6.2-8.4,6.7c-2.2,0.3-5.1-3.8-7.7-6.1c-3.6-3.1-8-4.3-12.3-3
			c-2.5,0.8-5.2,3.2-6.5,5.6c-1.7,3-0.6,6.4,2.1,8.8c1.7,1.5,3.8,2.6,5.9,3.7c6,3.3,12.3,6.2,18.1,9.9c10.1,6.4,13.9,15.4,11.6,26.2
			c-2.1,9.9-10.5,17.6-21.5,19.4C758.7,619.7,756.2,619.8,753.8,620.1z"/>
		<path class="st3" d="M778.9,492.2c-11.1-0.9-20.7-4.2-28.6-11.9c-2-2-2.4-3.4,0.1-5c0.2-0.2,0.4-0.4,0.6-0.6
			c2.7-2.5,5.1-6.5,8.1-7c2.4-0.4,5.5,3.5,8.3,5.4c4.4,3.1,9.2,4.4,14.5,3.5c4.1-0.7,6.9-3,7.7-7.3c0.8-4.3-0.6-7.9-4.4-10.1
			c-4.2-2.4-8.6-4.4-12.8-6.7c-3.2-1.7-6.5-3.4-9.5-5.4c-9.7-6.5-13.6-15.6-11.2-25.5c2.4-10.2,11.5-18,22.5-19.4
			c12.7-1.6,23.2,2.9,32.1,11.8c1.6,1.6,2,2.8-0.1,4.1c-0.6,0.4-1.1,0.9-1.7,1.4c-2.8,2.4-5.4,6.3-8.4,6.6c-2.3,0.3-4.9-4.4-7.8-6
			c-3.1-1.7-6.6-3.1-10.1-3.4c-4-0.4-7.4,1.7-8.7,6c-1.2,4,0,7.8,4,10.2c3.7,2.3,7.9,3.9,11.7,6.1c4.8,2.8,9.6,5.6,14.2,8.7
			c12.6,8.5,11.7,32.1-4.7,39.9C789.8,489.8,784.2,490.7,778.9,492.2z"/>
		<path class="st3" d="M652.3,621c-11.2-1.3-21.1-4.2-28.9-12.3c-1.7-1.8-1.9-3,0.1-4.4c0.5-0.3,0.8-0.8,1.3-1.2
			c2.6-2.4,4.9-6.2,7.8-6.7c2.3-0.4,5,3.9,8,5.1c4.2,1.8,8.7,3.5,13.1,3.9c5.3,0.4,8.2-2.4,9.2-6.9c1.1-4.8-0.4-8.4-5-11
			c-4-2.2-8.1-4-12.1-6.1c-3.5-1.9-6.9-3.8-10.2-6c-8.3-5.5-12.1-13.3-10.7-23.3c1.4-9.6,7.3-15.8,16-19.3
			c13.1-5.4,30.7-0.5,39.4,10.7c0.5,0.6,0.1,2.1-0.3,3c-0.3,0.7-1.2,1.2-1.9,1.8c-2.8,2.4-5.4,6.3-8.4,6.6c-2.3,0.3-4.9-4.4-7.8-6
			c-3.1-1.7-6.7-2.9-10.1-3.3c-4.2-0.5-7.3,1.6-8.7,5.8c-1.2,3.9,0.1,7.9,4,10.2c4.3,2.5,8.9,4.4,13.2,6.9c4.5,2.6,9,5.4,13.3,8.5
			c11.5,8.1,11.2,30.7-4.6,38.9C663.7,618.4,657.8,619.3,652.3,621z"/>
		<path class="st3" d="M1051.5,447.2c0-12.9,0.1-25.8-0.1-38.6c0-3.1,0.5-4.3,4-4.3c13.9,0.2,27.8,0.2,41.7,0c2.7,0,3.8,0.5,3.8,3.6
			c0,11.2,0.2,11.2-11,11.2c-6,0-12,0.2-18-0.1c-2.8-0.1-3.5,0.8-3.4,3.5c0.2,4.4,0.2,8.8,0,13.2c-0.1,2.7,0.6,3.6,3.4,3.5
			c7-0.2,14,0,21.1-0.1c2.4,0,3.3,0.5,3.3,3.1c0.3,11.6,0.4,11.6-11.1,11.6c-4.5,0-9.1,0.1-13.6,0c-2.1-0.1-3.2,0.4-3.1,2.9
			c0.2,5.3,0.2,10.5,0,15.8c-0.1,2.3,0.7,3,3,3c8.5-0.1,17,0.1,25.5-0.1c3.1-0.1,3.9,0.9,3.9,3.9c0,10.9,0.1,10.9-10.9,10.9
			c-11.6,0-23.1-0.1-34.7,0.1c-3,0-4-0.7-3.9-3.9C1051.6,473.2,1051.5,460.2,1051.5,447.2z"/>
		<path class="st3" d="M801.1,575c0-12.9,0.1-25.8-0.1-38.6c0-3,0.7-4,3.8-3.9c10.5,0.4,21.1-0.3,31.5,0.9c17.1,2,26.6,16.5,22,32.1
			c-2.9,9.9-12.4,17-24.3,17.8c-3.6,0.3-7.4,0.6-11,0.2c-4.5-0.5-5.3,1.3-5.2,5.4c0.3,8.5,0,17,0.2,25.5c0.1,3-0.9,3.8-3.7,3.6
			c-3.2-0.2-6.5-0.3-9.7,0c-3,0.3-4-0.6-3.9-3.8C801.2,601.1,801.1,588,801.1,575z M817.8,557.9c0.1,0,0.3,0,0.4,0
			c0,0.3,0,0.6,0,0.9c0,10.2,0,10.2,10.2,10.1c2,0,4.1-0.1,6-0.7c4.4-1.3,6.8-4.4,7.3-8.9c0.5-4.4-0.9-9-5.1-10.1
			c-5.6-1.5-11.7-1.3-17.6-1.8C818.6,550.9,818.2,554.4,817.8,557.9z"/>
		<path class="st4" d="M901.7,447c0-13,0.1-26-0.1-39.1c0-2.9,0.8-3.7,3.7-3.7c14.2,0.1,28.4,0.1,42.6,0c2.5,0,3.1,0.8,3.2,3.2
			c0.3,11.5,0.3,11.5-11,11.5c-6.1,0-12.3,0.1-18.4,0c-2.1,0-2.9,0.6-2.8,2.7c0.1,4.5,0.2,9.1,0,13.6c-0.1,2.9,0.7,3.8,3.7,3.7
			c6.9-0.2,13.8,0.1,20.6-0.1c2.7-0.1,3.4,0.7,3.4,3.4c0.1,11.3,0.2,11.3-11,11.3c-4.4,0-8.8,0.2-13.2-0.1c-3-0.2-3.7,1-3.6,3.8
			c0.2,4.8,0.2,9.7,0,14.5c-0.1,2.8,0.9,3.5,3.5,3.4c8.5-0.1,17,0,25.5-0.1c2.4,0,3.2,0.6,3.3,3.1c0.3,11.7,0.4,11.7-11.4,11.7
			c-11.4,0-22.8-0.1-34.2,0.1c-3.2,0.1-3.9-1-3.9-4C901.8,473.1,901.7,460.1,901.7,447z"/>
		<path class="st5" d="M558.8,575.3c0-13,0.1-26.1-0.1-39.1c0-2.8,0.6-3.8,3.6-3.7c14.1,0.2,28.1,0.1,42.2,0c2.8,0,3.7,0.7,3.7,3.7
			c0,11.2,0.1,11.2-11.1,11.2c-5.9,0-11.7,0.1-17.6-0.1c-2.6-0.1-3.7,0.6-3.6,3.4c0.2,4.5,0.2,9.1,0,13.6c-0.1,2.7,1,3.2,3.4,3.1
			c7-0.1,14.1,0,21.1-0.1c2.3,0,3.3,0.2,3.3,3c0.2,11.7,0.3,11.7-11.4,11.7c-4.5,0-9.1-0.2-13.6,0.1c-1,0.1-2.6,1.7-2.6,2.6
			c-0.3,5.3,0,10.5-0.2,15.8c-0.1,2.7,1,3.1,3.3,3c8.5-0.1,17,0.1,25.5-0.1c2.7-0.1,3.4,0.7,3.5,3.4c0.1,11.4,0.2,11.4-11.3,11.4
			c-11.4,0-22.8-0.1-34.3,0.1c-3.1,0-3.9-0.9-3.9-3.9C558.9,601.4,558.8,588.3,558.8,575.3z"/>
		<path class="st4" d="M1077.8,533c10.4,0,20.8,0.1,31.2-0.1c2.6,0,3.5,0.6,3.5,3.4c0.2,12.2,0.3,12.2-11.8,12.3
			c-4.8,0-9.5,0.4-14.3,0.6c-0.1,4.7-0.3,9.3-0.3,14c0,16.7-0.2,33.4,0.1,50.1c0.1,4.1-1.2,5-4.9,4.7c-2.9-0.3-5.9-0.3-8.8,0
			c-3.1,0.3-3.9-0.7-3.9-3.8c0.1-20.2-0.1-40.4,0.2-60.6c0-4.1-1.1-5.1-5-4.9c-6,0.3-12,0-18,0.1c-2.3,0.1-3.1-0.7-2.9-3
			c0.2-4.1-1.2-9.3,0.8-11.8c1.6-2,7.3-0.7,11.2-0.8C1062.5,533,1070.2,533,1077.8,533z"/>
		<path class="st6" d="M842.7,454.5c0-9.7,0-19.3,0-29c0-6.7,0.9-5.6-5.9-5.7c-5.6-0.1-11.1-0.1-16.7,0c-2.5,0.1-3.5-0.4-3.6-3.3
			c-0.2-12.3-0.3-12.3,12.1-12.3c17.9,0,35.7,0.1,53.6-0.1c3.2,0,4.6,0.6,4.2,4.1c-0.4,3.7,1,8.7-1,10.9c-1.6,1.9-6.9,0.6-10.5,0.6
			c-3.7,0-7.3,0.2-11-0.1c-3.3-0.3-4.2,0.7-4.1,4.1c0.2,20.2,0,40.4,0.2,60.6c0,3.8-0.8,5.3-4.8,4.8c-3-0.4-6.1-0.2-9.2,0
			c-2.8,0.2-3.4-0.9-3.4-3.5C842.8,475.3,842.7,464.9,842.7,454.5z"/>
		<path class="st6" d="M572.1,446.6c0-12.9,0.1-25.7-0.1-38.6c0-2.8,0.7-4,3.6-3.8c4.3,0.3,10.3-1.4,12.6,0.9c2.3,2.2,1,8.2,1,12.5
			c0.1,22.5,0,45,0.1,67.6c0,3.3-0.7,4.8-4.3,4.4c-3.2-0.3-6.4-0.2-9.6,0c-2.8,0.2-3.5-0.8-3.4-3.5
			C572.1,473,572.1,459.8,572.1,446.6z"/>
		<path class="st6" d="M714.4,447.1c0-13,0.1-26-0.1-39.1c0-2.8,0.7-3.9,3.6-3.7c4.4,0.3,10.3-1.3,12.6,0.9c2.3,2.1,1,8.2,1,12.5
			c0.1,22.5,0,45.1,0.1,67.6c0,3.4-0.8,4.7-4.3,4.4c-3.2-0.3-6.4-0.2-9.6,0c-2.8,0.2-3.4-0.8-3.4-3.5
			C714.5,473.1,714.4,460.1,714.4,447.1z"/>
		<path class="st7" d="M483.5,808.1c-5.7,0-11.4,0-17.1,0c-0.8,0-1.7-0.6-2.5-1c0.6-0.5,1.2-1.3,1.9-1.4c5.7-0.5,8.2-4.3,10-9.1
			c3.1-8.5,6.3-17,9.5-25.5c1.3-3.5,1.3-6.3-3.2-7.2c-0.5-0.1-1-0.8-1.5-1.2c0.5-0.4,1.1-1.1,1.6-1.1c10.7-0.1,21.4-0.1,32.1,0
			c0.6,0,1.6,1.4,1.6,2.1c-0.2,2.2-0.7,4.3-1.3,6.4c-0.2,0.7-0.9,1.3-1.4,1.9c-0.5-0.6-1.3-1.2-1.3-1.9c-0.1-4.6-3.2-5.5-6.9-5.5
			c-2.3,0-4.8-0.3-7,0.4c-1.7,0.5-3.8,1.9-4.5,3.4c-1.8,3.7-2.8,7.7-4.3,11.5c-0.8,2.1-0.1,2.6,1.9,2.6c5.4-0.1,11.4,1.3,14.5-5.3
			c0.2-0.4,1.2-0.5,1.9-0.8c0.1,0.6,0.5,1.3,0.3,1.8c-1.4,4-2.9,8-4.4,11.9c-0.3,0.7-1.2,1.1-1.8,1.6c-0.4-0.6-1.2-1.3-1.1-1.9
			c0.4-3.3-1.8-4.2-4.2-4.6c-2.7-0.4-5.5-0.4-8.3-0.2c-0.8,0.1-1.8,1.3-2.2,2.2c-1.7,4.4-3.1,8.8-4.7,13.2c-0.9,2.7-0.2,4.1,2.8,4.4
			c7.5,0.9,14.2-0.7,20.2-5.4c1-0.8,2-1.7,3.2-2.4c0.5-0.3,1.3,0,2,0c-0.1,0.5-0.2,1.1-0.4,1.6c-1.6,2.6-3.1,5.3-5,7.7
			c-0.7,0.9-2.4,1.5-3.7,1.5C494.6,808.2,489,808.1,483.5,808.1z"/>
		<path class="st7" d="M520.9,824.6c-3.2-0.5-6.4-0.7-9.4-1.7c-4.6-1.5-5.7-5.8-2.4-9.3c1.5-1.7,3.7-2.8,5.7-3.9
			c2.4-1.4,6.5-1.1,4.8-6.2c-0.3-1,2.6-3.1,3.9-4.7c0.3-0.5,0.5-1.8,0.3-1.9c-5-2.6-5.7-6.8-4.3-11.6c1.6-5.6,6.8-10.1,12.4-10.2
			c5.2-0.1,10.4,0.6,15.6,1c0.5,0,0.9,0.8,1.3,1.2c-0.8,0.8-1.7,2.5-2.4,2.4c-3.9-0.3-5,0.7-4.8,5c0.3,5.8-5.1,11.3-11.3,13
			c-1.2,0.3-2.6,0.6-3.6,1.3c-2.8,2-2.5,4,0.7,5.3c3.1,1.2,6.4,2,9.5,3.4c5.4,2.4,6.1,6.6,1.9,10.7
			C533.8,822.8,527.6,824.3,520.9,824.6z M522.4,820.6c0.1,0.2,0.1,0.4,0.2,0.6c3.5-0.9,7-1.7,10.4-2.9c1-0.3,2.1-2,2-3
			c0-0.9-1.4-2.1-2.5-2.5c-2.5-1.1-5.4-1.5-7.8-2.7c-4.1-2-6.8,0.3-9.2,2.8c-1.1,1.1-1.7,4.6-1.2,4.9c2.4,1.3,5.1,2,7.7,2.9
			C522.1,820.6,522.3,820.6,522.4,820.6z M523.8,790.7c1.1,1.9,1.7,4.3,2.7,4.5c1.5,0.3,4.1-0.6,4.7-1.8c1.8-3.4,3-7.2,4-10.9
			c0.3-1.2-0.9-3.9-1.5-3.9c-1.7-0.1-4.2,0.3-4.9,1.5C526.6,783.3,525.4,787,523.8,790.7z"/>
		<path class="st8" d="M498.5,841.6c5,0,9.9,0.1,14.9,0c2.2-0.1,2.9,0.6,2.4,2.8c-0.5,2-0.8,4-1.3,6c-0.2,0.7-0.9,1.3-1.3,1.9
			c-0.5-0.6-1.3-1.2-1.4-1.8c-0.1-3.9-1.8-6.2-5.8-6c-4.8,0.2-10.6-1.9-13,4.9c-1.3,3.7-2.7,7.4-4.1,11.1c-0.8,2-0.8,3.2,2,3.1
			c5.5-0.1,11.4,0.9,14.4-5.6c0.2-0.4,1.3-0.4,1.9-0.5c0,0.6,0.2,1.3,0,1.9c-1.4,4-2.8,8-4.4,11.9c-0.3,0.7-1.2,1-1.8,1.5
			c-0.3-0.7-1-1.4-1-2c0.2-3.2-1.5-4-4.3-4.1c-9-0.4-9-0.5-11.9,7.9c-0.4,1.1-0.8,2.2-1.1,3.3c-2,6.2-1.8,6.5,4.4,8.6
			c0.6,0.2,1.1,0.7,1.6,1.1c-0.6,0.2-1.2,0.6-1.8,0.6c-7,0-14,0-21.1,0c-0.6,0-1.2-0.4-1.9-0.7c0.5-0.5,1-1.5,1.6-1.6
			c6.6-0.6,8.9-5.3,10.8-10.7c2.8-7.8,5.8-15.6,8.7-23.4c1.3-3.5,2.4-7-3.2-7.9c-0.5-0.1-0.9-0.9-1.3-1.4c0.7-0.3,1.4-0.9,2.2-0.9
			C488,841.5,493.2,841.6,498.5,841.6z"/>
		<path class="st8" d="M563.5,701.9c-0.9,10-11.1,24.1-20.3,27c-2,0.6-4.4,0.6-6.4,0.1c-4.3-1.2-5.3-3.9-3.7-8.1
			c4.1-10.6,8.3-21.2,12.4-31.8c1.2-3.1,3.5-6.5-0.8-9.3c-0.1-0.1,0.4-1.1,0.7-1.7c0.1-0.2,0.5-0.1,0.8-0.1c2.9-0.2,5.8-0.4,8.7-0.6
			c-0.7,2.6-1.4,5.2-2.3,7.7c-1.6,4.5-3.4,9-5.1,13.5c-0.2,0.6-0.1,1.3-0.1,2c0.7-0.3,1.5-0.4,2.1-0.8c1.1-0.8,1.8-2.2,3-2.5
			c2.5-0.8,5.4-1.9,7.6-1.2C561.7,696.6,562.4,699.9,563.5,701.9z M556.2,706.7c0.1-4.8-1.7-6-5.5-4.2c-8,3.7-9.7,11.5-11.9,18.9
			c-0.2,0.7,1.3,2.7,2.1,2.7c2.2,0,4.8-0.1,6.4-1.3C552.9,718.7,555.2,712.6,556.2,706.7z M547.4,701.6c-0.1-0.2-0.2-0.4-0.3-0.6
			c-0.1,0.1-0.3,0.2-0.3,0.3c0,0.2,0.2,0.4,0.3,0.6C547.1,701.8,547.2,701.7,547.4,701.6z"/>
		<path class="st7" d="M481.6,728.1c-5.3,0-10.5,0-15.8,0c-0.6,0-1.2-0.5-1.8-0.7c0.5-0.6,1-1.5,1.5-1.6c6.6-0.6,9-5.2,10.8-10.6
			c2.7-7.9,5.5-15.7,8.3-23.5c1.3-3.7,2-7-3.3-7.9c-0.5-0.1-0.9-0.9-1.3-1.3c0.6-0.3,1.2-0.9,1.8-0.9c6.7-0.1,13.5-0.1,20.2,0
			c0.5,0,0.9,0.4,1.4,0.7c-0.4,0.4-0.7,1.2-1.1,1.2c-9.8,0.8-10.9,9-13.4,15.8c-2.5,6.6-4.7,13.2-6.9,19.9c-1.5,4.8-0.4,6.6,4.6,5.8
			c3.9-0.6,7.6-2.5,11.1-4.5c2.1-1.1,3.5-3.5,5.4-5.1c0.6-0.5,1.8-0.4,2.7-0.6c-0.2,0.8-0.3,1.6-0.6,2.3c-5.6,11-5.6,11-18,11
			C485.4,728.1,483.5,728.1,481.6,728.1z"/>
		<path class="st8" d="M546,805.9c0.4-13.2,11.6-26.3,23.3-28.7c2.3-0.5,4.4-1.8,6.7-2.6c0.8-0.3,1.6-0.3,2.4-0.4
			c0,0.8,0.2,1.6-0.1,2.3c-2.4,6.3-4.9,12.5-7.4,18.8c-0.4,1.1-1.1,2.2-1.2,3.3c-0.1,1.5,0.3,3,0.4,4.5c1.3-0.7,2.6-1.3,3.9-2
			c0.7-0.3,1.3-0.8,2-1.1c-0.1,0.7-0.1,1.4-0.4,2c-1.3,2.1-2.4,4.5-4.1,6.1c-1.3,1.2-3.8,2.4-5.2,1.9c-1.4-0.5-2.4-2.9-3.2-4.7
			c-0.6-1.2-0.5-2.7-0.8-4.1c-1.1,1.1-2.1,2.2-3.2,3.3c-1.4,1.5-2.6,3.4-4.3,4.3c-1.8,0.9-4.4,1.6-6,0.9
			C547.3,809.1,546.5,806.6,546,805.9z M552.1,800.7c0.2,0.4,0.6,2.1,1.5,2.4c0.9,0.4,2.5-0.3,3.5-0.9c6.3-3.7,8.2-10.3,10.3-16.6
			c0.4-1.1,0.3-2.4,0.4-3.6c-1.4,0.1-3-0.2-4.2,0.2C558.5,784.2,552,794.3,552.1,800.7z"/>
		<path class="st8" d="M535.2,885.7c0.7-13.8,12.6-26.8,24.6-28.7c2-0.3,3.8-1.7,5.8-2.4c0.9-0.3,1.9-0.3,2.8-0.4
			c-0.2,0.8-0.2,1.6-0.5,2.3c-2.5,6.1-5,12.2-7.5,18.2c-0.6,1.5-1.3,3-1.5,4.6c-0.1,1.3,0.5,2.7,0.8,4c1.1-0.6,2.2-1.1,3.3-1.8
			c0.8-0.5,1.5-1.2,2.2-1.8c-0.3,1-0.3,2.2-0.8,3.1c-1,1.8-1.9,3.8-3.4,5c-1.5,1.2-3.9,2.5-5.6,2.1c-1.3-0.3-2.3-2.9-3.1-4.7
			c-0.6-1.2-0.5-2.7-0.7-4.1c-1.1,1.1-2.2,2.2-3.2,3.3c-1.3,1.4-2.3,3.3-3.9,4.1c-1.9,1-4.6,1.8-6.3,1.2
			C536.5,889.1,535.7,886.4,535.2,885.7z M542,879.9c0.4,1,0.6,2.9,1.5,3.4c0.9,0.4,2.7-0.4,3.9-1.1c6.1-3.7,8.1-10,10-16.3
			c0.4-1.2,0.4-2.6,0.6-3.9c-1.5,0.2-3.4-0.1-4.6,0.6C547,866.3,543.7,872.3,542,879.9z"/>
		<path class="st9" d="M569.5,287.6c1.2,0.2,2.3,0.3,3.5,0.5c-2.1,1.1-4.1,2.4-6.3,3.4c-1.6,0.8-3.4,1.2-5.1,1.8
			c-2.1,1.1-5.2-2.4-6.3,1.2c-0.2,0.7,3.2,2.8,5.2,3.6c4.8,2.1,9.8,3.8,14.6,5.8c1.3,0.5,2.4,1.6,3.5,2.4c-1.3,0.8-2.5,1.9-4,2.2
			c-6.3,1.4-12.8,2.2-19,3.8c-3.9,1-7.5,3-11.3,4.5c-0.9,0.3-1.8,0.5-2.7,0.7c0.4-0.9,0.6-2,1.2-2.7c1.1-1.2,2.4-2.2,3.6-3.1
			c3.7-2.9,6.1-6.9,3.9-11c-1.4-2.7,0-3.5,0.8-4.7c1.2-1.8,2.9-3.1,4.5-4.7c4.7-1,9.4-1.9,14.1-2.9
			C569.6,288.1,569.6,287.9,569.5,287.6z"/>
		<path class="st8" d="M712.5,890.5c-3.3,0-4.4-1.9-3.1-5.6c2.5-6.9,5-13.7,7.7-20.5c1.1-2.8,1.2-4.4-2.6-4
			c-0.7,0.1-1.4-0.6-2.1-0.9c0.6-0.5,1.2-1.5,1.7-1.5c5.8,0.7,7.7-3.7,10.2-7.4c0.4-0.6,0.7-1.4,1.3-1.7c0.7-0.4,1.6-0.4,2.4-0.6
			c0.1,0.8,0.3,1.5,0.3,2.3c0,0.6-0.4,1.1-0.6,1.6c-1.8,4.9-1.8,4.8,3.6,5.1c1,0.1,1.9,0.7,2.8,1.1c-0.9,0.8-2.1,2.6-2.8,2.4
			c-6.4-1.4-7.9,2.7-9.3,7.5c-1.4,4.7-3.3,9.3-5,14c-0.2,0.6,0,1.3,0.1,2c0.6-0.1,1.2-0.1,1.7-0.4c2.4-1.6,4.8-3.2,7.3-4.8
			c0.4-0.3,1-0.3,1.5-0.4c0,0.5,0.1,1.2-0.2,1.6C723.7,885.6,718.8,889.4,712.5,890.5z"/>
		<path class="st8" d="M579.4,884.1c2.7-1.6,5.4-3.3,8.2-4.9c0.5-0.3,1.2-0.3,1.9-0.4c-0.2,0.5-0.2,1.2-0.5,1.6
			c-3.3,5-7.7,8.5-13.5,9.8c-4,0.9-5.7-0.9-4.4-4.8c2.4-7,5.1-14,7.8-21c1.1-2.8,1.2-4.4-2.6-4.1c-0.7,0.1-1.5-0.8-2.3-1.2
			c0.7-0.4,1.4-1.2,2.1-1.2c5,0.5,7.2-2.9,9.4-6.5c0.6-1,1.2-2.1,2.1-2.8c0.5-0.4,1.6-0.2,2.4-0.2c0,0.7,0.1,1.3,0.1,2
			c0,0.4-0.3,0.8-0.4,1.2c-1.8,5.3-1.8,5.2,3.7,5.7c0.8,0.1,1.6,0.9,2.4,1.4c-0.9,0.7-2,2.2-2.6,2.1c-6.6-1.5-8.1,2.8-9.6,7.7
			c-1.5,5-3.4,10-5.1,14.9c0,0.3,0,0.7,0,1C578.8,884.3,579.1,884.2,579.4,884.1z"/>
		<path class="st7" d="M584.1,810.5c-3.7-0.9-4.7-2.9-3.3-6.6c4-10.5,8-21,12-31.6c0.9-2.3,2-4.6,2.4-7c0.2-1.6-0.1-3.8-1.2-5
			c-1.8-2.1-1.3-2.7,1-2.9c2.8-0.2,5.7-0.3,8.6-0.5c-0.8,2.6-1.4,5.3-2.3,7.8c-4.5,12.1-9,24.1-13.5,36.2c-0.3,0.9-0.3,1.9-0.5,2.8
			c0.9-0.3,1.9-0.6,2.8-1c0.6-0.3,1.2-0.8,1.8-1.3c1.1-0.9,2.2-1.7,3.2-2.6c-0.6,1.5-0.8,3.5-1.9,4.5
			C590.3,806,587.1,808.2,584.1,810.5z"/>
		<path class="st7" d="M623.1,729.6c-3.4,0.1-4.6-1.7-3.2-5.4c2.4-6.7,5-13.4,7.4-20.1c0.9-2.3,2.4-5-2.3-4.7c-0.3,0-1.1-0.9-1-1
			c0.3-0.6,0.9-1.5,1.2-1.4c5.5,0.5,6.9-3.9,9.3-7.2c0.6-0.8,1.2-1.7,2-2.3c0.5-0.3,1.4-0.2,2.1,0c0.2,0.1,0.3,1,0.2,1.5
			c0,0.4-0.3,0.8-0.4,1.2c-1.8,5.6-1.8,5.5,3.9,6.2c0.7,0.1,1.4,0.9,2,1.3c-0.7,0.8-1.6,2.3-2,2.2c-8.3-2-9,4.4-10.8,9.5
			c-1.2,3.4-2.5,6.8-3.7,10.3c-0.4,1-0.4,2.2-0.6,3.3c1.2-0.3,2.5-0.4,3.5-1c1.9-1.1,3.5-2.6,5.4-3.8c0.5-0.3,1.2-0.2,1.9-0.3
			c-0.2,0.5-0.2,1.1-0.5,1.6C634.1,724.8,629.3,728.4,623.1,729.6z"/>
		<path class="st7" d="M564.4,720.9c1.6-9.4,4.9-17.1,11.7-22.8c2.3-1.9,5.7-2.9,8.7-3.1c3.2-0.2,5.4,2.2,5.5,5.6
			c0.1,3.1,0,6.1-4.2,7c-4.1,1-8.1,2.5-12.1,3.9c-2.9,1-4.1,5.3-2.5,8.8c1.5,3.3,4.3,3.3,7,1.8c1.9-1.1,3.4-2.8,5.1-4.1
			c0.5-0.3,1.3-0.2,1.9-0.3c-0.2,0.5-0.2,1.2-0.5,1.6c-2.2,2.7-4.3,5.6-6.9,7.8c-2.6,2.3-6.3,3.8-9.2,1.5
			C566.9,726.9,565.9,723.6,564.4,720.9z M573.9,708c2.8-0.6,4.9-0.9,6.8-1.6c1.2-0.4,2.8-1.3,3-2.3c0.3-1.1-0.4-3.2-1.3-3.7
			c-1.1-0.6-3.4-0.6-4.3,0.1c-1.9,1.5-3.2,3.7-4.6,5.7C573.1,706.5,573.7,707.5,573.9,708z"/>
		<path class="st7" d="M627,810c-3.5,0.1-4.7-1.7-3.5-5.1c2.5-7,5-14,7.8-21c1.1-2.8,1.3-4.4-2.5-4c-0.7,0.1-1.5-0.9-2.2-1.3
			c0.6-0.4,1.3-1.2,1.9-1.2c4.7,0.3,7.2-2.4,9.1-6.1c0.5-1,1.1-2.1,2-2.8c0.7-0.5,1.8-0.5,2.8-0.7c0,0.9,0,1.7,0,2.6
			c0,0.4-0.3,0.8-0.5,1.2c-1.8,4.9-1.8,4.9,3.4,5.1c1,0.1,1.9,0.9,2.9,1.3c-1,0.8-2.2,2.4-3,2.2c-5.8-1.1-7.6,2.2-8.9,6.9
			c-1.3,4.5-3.1,8.8-4.7,13.2c-0.4,1-0.5,2.1-0.7,3.2c1.2-0.3,2.5-0.5,3.6-1.1c2-1.2,3.8-2.7,5.7-4c0.4-0.3,1-0.3,1.5-0.4
			c-0.1,0.5,0.1,1.2-0.2,1.5C638,805.2,633,808.8,627,810z"/>
		<path class="st7" d="M643.4,719.5c0.8-7.8,3.8-15.5,10.5-21.1c2.3-2,5.9-3.1,9-3.4c3.2-0.3,5.4,2.2,5.5,5.7c0.1,3.1-0.1,6.1-4.2,7
			c-4.1,1-8.1,2.5-12.1,3.9c-2.9,1-4,5.3-2.4,8.9c1.4,3.1,4.1,3.3,6.6,1.9c2-1.1,3.6-2.9,5.5-4.3c0.4-0.3,1-0.3,1.6-0.5
			c0,0.5,0.2,1.2,0,1.5c-3.1,3.2-5.7,7.3-9.4,9.4C648,732,643.1,727.9,643.4,719.5z M662.6,704c-0.7-3.4-2.1-5.3-4.9-4.1
			c-1.7,0.7-3.2,2.3-4.5,3.8c-0.9,1-1.3,2.5-1.9,3.8c1.3-0.1,2.7-0.1,4-0.2c1.6-0.2,3.2-0.4,4.6-1
			C661.1,705.8,661.9,704.7,662.6,704z"/>
		<path class="st7" d="M667.8,799.4c-3.2,3.3-6,7.3-9.7,9.7c-4.7,2.9-9,0.2-9.9-5.2c-1.6-9.1,5.3-23.2,13.3-27.4
			c3.1-1.6,6.7-2.3,8.9,0.3c1.6,1.8,1.9,5.1,1.9,7.8c0,1.1-1.9,2.8-3.2,3.3c-3.9,1.6-8,2.7-12.1,4c-3.2,1-4.5,5.1-3,9
			c1.1,2.8,4.2,3.6,7.4,1.7c1.7-1.1,3.2-2.6,4.7-3.9C666.8,798.9,667.3,799.2,667.8,799.4z M656.3,788.5c3-0.6,5.1-1.2,7.2-1.5
			c2.9-0.5,3.9-2.5,2.4-4.6c-0.8-1.2-3.9-2.2-4.8-1.6c-2.2,1.5-3.7,3.9-5.4,6.1C655.6,787.1,656.1,788,656.3,788.5z"/>
		<path class="st10" d="M615.1,880.3c-2.9,3-5.3,6.7-8.8,8.9c-5.3,3.4-10.4,0.4-10.7-5.9c-0.4-10,3.5-18.3,11-24.7
			c1.9-1.6,4.7-2.6,7.1-2.8c3.4-0.4,6.1,1.5,6.5,5.1c0.4,3.4,0.2,6.7-4.3,7.7c-4,0.9-7.8,2.5-11.7,3.8c-3.1,1.1-4.3,4.8-2.7,8.6
			c1.4,3.5,4.2,3.5,6.9,2.1c2.1-1.1,3.9-3,5.9-4.5C614.6,879.2,614.9,879.8,615.1,880.3z M603.8,868.5c3-0.6,5.2-0.9,7.2-1.6
			c1.2-0.4,2.7-1.5,2.9-2.5c0.2-1.2-0.5-3.1-1.5-3.7c-0.9-0.6-3.1-0.6-3.9,0.1c-1.9,1.7-3.4,3.9-5,6
			C603.3,867.1,603.7,868,603.8,868.5z"/>
		<path class="st8" d="M752.2,882c-2.6,2.5-4.8,5.6-7.9,7.3c-5.1,3-9.6,0.4-10.5-5.5c-1.4-8.9,5.5-22.8,13.4-27
			c3.1-1.6,6.6-2.4,8.9,0.2c1.6,1.7,2.1,4.9,2.1,7.4c0,1.3-1.9,3.1-3.3,3.7c-3.7,1.6-7.7,2.8-11.6,4c-2.1,0.6-4.2,1.1-3.8,3.8
			c0.4,2.5,0.6,5.4,2.1,7.1c0.9,1,4.2-0.2,6.3-0.5c0.6-0.1,1.2-0.8,1.8-1.2c0.3-0.2,0.5-0.5,0.8-0.7c0,0,0.1-0.1,0.1-0.1
			C751.2,881,751.7,881.5,752.2,882z M749,858.9c-2.3,2-4.1,3.2-5.4,4.9c-1,1.2-1.4,3-2.1,4.5c1.4-0.2,2.8-0.3,4.2-0.5
			c1.4-0.2,3.1-0.3,4.2-1c1.1-0.7,2.2-2.4,2.1-3.4C751.9,861.9,750.4,860.8,749,858.9z"/>
		<path class="st10" d="M672.7,858.2c0.1-0.1,0.2-0.2,0.3-0.3c2.9-1.9,6-3.9,9.1-1.1c2.9,2.5,1.6,5.9,0.4,8.9
			c-1.6,3.7-3.6,7.3-5.4,10.9c-1,1.9-1.8,3.9-2.8,5.9c-0.1,0.5-0.2,0.9-0.3,1.4c0.4-0.1,0.8-0.1,1.3-0.2c0.6-0.2,1.1-0.5,1.7-0.7
			c0.2,0,0.4-0.2,0.5-0.4c0-0.3,0.2-0.5,0.5-0.4c0.4,0.5,0.8,0.9,1.2,1.4c-2.9,2.2-5.8,4.6-8.9,6.5c-0.9,0.6-3.4,0.2-3.9-0.6
			c-0.7-1.1-0.8-3.2-0.2-4.4c2.9-6.2,6.2-12.2,9.2-18.3c0.6-1.2,0.7-2.7,1-4c-1.4,0-2.7,0-4.1,0c-1.9,0.2-2.6-0.5-1.8-2.4l0-0.3
			c0,0,0.3,0,0.3,0c0.2-0.1,0.4-0.3,0.6-0.5l0.1-0.3c0,0,0.3,0,0.3,0c0.1-0.1,0.3-0.2,0.4-0.3c0.2-0.2,0.5-0.4,0.7-0.6
			C672.9,858.3,672.7,858.2,672.7,858.2z"/>
		<path class="st7" d="M695.7,862.4c-1,0.6-1.9,1.3-2.9,1.9c-1,0.6-1.9,1.2-2.9,1.8c0.5-1.2,0.7-2.7,1.5-3.4
			c2.7-2.4,5.5-4.6,8.6-6.5c1-0.6,3.3-0.3,4.3,0.4c0.6,0.5,0.4,2.7-0.1,4c-2.6,6.8-5.4,13.6-8.1,20.4c-0.3,0.9-0.4,1.9-0.5,2.8
			c1-0.4,2.1-0.6,3-1.2c1.4-0.8,2.6-1.8,3.9-2.7c-0.8,1.6-1.3,3.7-2.5,4.8c-2.2,2-4.7,3.8-7.4,5.2c-1,0.6-3.2,0.4-4-0.4
			c-0.7-0.7-0.6-2.8-0.1-4c2.5-6.9,5.2-13.6,7.9-20.5c0.3-0.7,0.4-1.4,0.5-2.1c0.1-0.3,0.1-0.7,0.2-1
			C696.6,862.2,696.1,862.3,695.7,862.4z"/>
		<path class="st7" d="M615.1,803c-2.8,2.2-5.4,4.6-8.4,6.6c-0.9,0.6-3.2,0.4-3.9-0.4c-0.7-0.7-0.6-2.7-0.1-3.9
			c2.5-6.8,5.2-13.6,7.8-20.4c0.4-1,0.3-2.1,0.4-3.2c-1,0.5-2.1,0.9-3,1.5c-1.3,0.8-2.6,1.8-3.9,2.7c0.8-1.6,1.3-3.6,2.6-4.8
			c2.2-2.1,4.7-3.8,7.4-5.2c1.2-0.6,3.5-0.6,4.4,0.2c0.7,0.7,0.6,3,0.1,4.3c-2.6,6.8-5.5,13.5-8.1,20.3c-0.3,0.9,0.3,2.1,0.4,3.1
			c0.3-0.2,0.7-0.4,1-0.7c0,0,0.1-0.1,0.1-0.1c0.2-0.2,0.5-0.3,0.7-0.5c0.1-0.3,0.4-0.4,0.7-0.5c0.3-0.3,0.6-0.6,0.9-0.9l0,0
			C614.5,801.7,614.8,802.4,615.1,803z"/>
		<path class="st7" d="M515,701c2.7-2,5.2-4.2,8-5.7c1.1-0.6,3.2-0.2,4.3,0.5c0.6,0.5,0.4,2.7-0.1,3.9c-2.6,6.8-5.4,13.6-8.1,20.4
			c-0.4,1-0.3,2.1-0.5,3.2c0.9-0.4,1.9-0.8,2.7-1.3c1.5-0.9,2.8-1.9,4.3-2.9c-1,1.8-1.6,3.9-3,5.2c-2.1,2-4.6,3.6-7.1,4.9
			c-1,0.5-3.2,0.4-3.9-0.4c-0.7-0.7-0.5-2.7-0.1-4c2.6-7.1,5.4-14.2,8.1-21.3c0.3-0.7,0.2-1.6,0.3-2.4c-0.8,0.3-1.6,0.5-2.4,0.8
			c-0.3,0.2-0.6,0.5-0.9,0.7c0,0-0.1,0.1-0.1,0.1C516,702.1,515.5,701.6,515,701z"/>
		<path class="st10" d="M913.5,380.3c5.2-1.7,9.1,1.4,12.3,6.3c1.9,2.9,4.5,5.4,6.6,8.2c0.2,0.3-0.5,1.9-0.9,1.9
			c-3.8,0.1-7.6,0.2-11.4,0c-1.1-0.1-2.5-0.9-3.3-1.7c-4-4.1-7.9-8.2-11.8-12.4c-0.5-0.5-0.8-1.1-1.1-1.7c0.8-0.2,1.6-0.5,2.4-0.5
			C908.3,380.3,910.4,380.3,913.5,380.3z"/>
		<path class="st8" d="M670.6,860.4c-0.8,1.9-0.1,2.6,1.8,2.4c-6.4,3.3-10.6,8.3-12.5,15.4c-0.9,3.5-2.3,7-4.1,10.1
			c-0.6,1.1-3,1.3-4.5,1.9c-0.4-1.5-1.6-3.3-1.2-4.4c2-5,4.6-9.7,6.8-14.7c1.7-3.8,3.3-7.6-0.9-11.1c-0.3-0.2,0.9-3.4,1.9-3.7
			c1.6-0.5,4.1-0.3,5.2,0.7c1.1,1.1,1,3.5,1.4,5.3c0.2,1,0.3,1.9,0.4,2.9c0.9-0.6,1.8-1.2,2.6-1.9
			C668.5,862.4,669.5,861.4,670.6,860.4z"/>
		<path class="st10" d="M608.1,707.1c-2.3,5.5-4.6,11-6.9,16.6c-0.5,1.2-0.7,2.8-1.6,3.6c-1.2,1-2.9,1.2-4.4,1.8
			c-0.5-1.5-1.7-3.2-1.3-4.3c1.3-3.7,3.1-7.2,4.7-10.8c1-2.3,2.3-4.5,2.9-6.8c0.4-1.6-0.1-3.5-0.2-5.3c-1.4,0.8-2.8,1.6-4.2,2.4
			c-0.6,0.3-1.1,0.6-1.7,0.9c0.1-0.7,0-1.5,0.3-2c1.7-2.5,3.2-5.3,5.4-7.4c2-2,4.5-2.2,5.9,1.1C607.5,700.2,607.8,703.6,608.1,707.1
			z"/>
		<path class="st10" d="M637.1,870.3c-0.2,0.4-0.3,0.9-0.5,1.3c-0.2,0.2-0.4,0.4-0.3,0.7c-1.9,5.1-3.5,10.2-5.8,15.1
			c-0.6,1.3-3.1,1.6-4.7,2.4c-0.4-1.6-1.5-3.5-1-4.8c1.6-4.4,3.8-8.5,5.7-12.8c0.8-1.7,1.8-3.4,2.1-5.3c0.3-1.4-0.3-3-0.5-4.5
			c-1.2,0.6-2.5,1.2-3.6,1.8c-0.8,0.4-1.5,1-2.3,1.5c0.3-0.9,0.3-2,0.8-2.8c1.4-2.2,2.8-4.5,4.6-6.3c1.6-1.6,3.7-2.6,5.6-0.1
			c0.2,0.3,0.4,0.6,0.6,0.9l0.2,0.1c0,0-0.1,0.3-0.1,0.3c0.2,1,0.4,2,0.6,3c0,0.9,0,1.9,0.1,2.8c-0.2,1.7-0.4,3.4-0.6,5
			c-0.3,0.4-0.5,0.9-0.8,1.3C637.1,870,637.1,870.3,637.1,870.3z"/>
		<path class="st10" d="M517.5,863.2c-0.1,0.3-0.3,0.5-0.6,0.5c-0.3-0.6-0.7-1.3-1-1.9c1.2-1.7,2.1-3.5,3.5-4.9
			c2.8-2.8,4.9-2.2,6.9,1.6c0,3.4,0,6.8,0,10.1c0,0-0.2,0.2-0.2,0.2c-0.2,0.3-0.4,0.6-0.6,0.9c-2.2,5.7-4.3,11.5-6.5,17.2
			c-0.9,2.4-2.4,3.9-4.9,2.9c-2.9-1.2-2-3.5-1-5.6c2.5-5.6,5.2-11.1,7.4-16.8c0.7-1.8,2.7-5.2-2.2-4.9
			C518,862.8,517.8,863,517.5,863.2z"/>
		<path class="st11" d="M608.1,707.1c-0.3-3.4-0.6-6.9-0.9-10.3c0.6,1.8,1.2,3.6,1.9,5.5c1.2-1.7,2.2-3.7,3.7-5
			c1.4-1.2,3.4-1.5,5.1-2.2c0.6,1.6,1.5,3.2,1.8,4.9c0.1,0.6-1.4,2.1-1.9,2C613.1,701,610.8,704.3,608.1,707.1z"/>
		<path class="st11" d="M526.3,868.6c0-3.4,0-6.8,0-10.1c0.4,1.9,0.8,3.8,1.2,5.8c1.1-1.8,1.9-4,3.4-5.4c1.5-1.4,3.7-2.1,5.7-3
			c0.7,1.6,1.6,3.2,1.9,5c0.1,0.6-1.4,2.2-1.9,2C531.3,861.5,529.3,865.8,526.3,868.6z"/>
		<path class="st11" d="M638,868.7c0.2-1.7,0.4-3.4,0.6-5c0.8-0.5,1.7-0.8,2.2-1.5c1.2-1.6,1.8-3.8,3.3-5c1.1-0.9,4-1.6,4.5-1
			c1.1,1.4,1.5,3.5,1.6,5.4c0,0.4-2.2,1.5-3.3,1.3C642,862.2,640.8,866.7,638,868.7z"/>
		<path class="st12" d="M667.4,268.7c4.4,0.1,5.1,1.3,3.6,4.7c-0.8,1.8-1.8,3.6-2.1,5.6c-0.5,3.3-1.2,3.1-4.2,1.8
			c-4.1-1.8-2.8-2.9-0.4-4.6c0.7-0.5,1.4-1.1,2-1.7c0.6-0.6,1-1.3,1.5-2c-0.9-0.4-1.7-0.9-2.6-1.1c-1-0.2-2-0.1-3.1-0.1
			c-0.4,0-0.9-0.1-1.3-0.2c0.4-0.4,0.7-0.9,1.2-1.1C664,269.4,666,269,667.4,268.7z"/>
		<path class="st11" d="M673.4,679.4c-0.4,0.5-0.7,1-1.1,1.4c-3.5,3.3-7,6.6-10.6,9.8c-0.4,0.4-1.2,0.5-1.8,0.7
			c0.2-0.6,0.2-1.4,0.5-1.9c1.7-3,3.1-6.4,5.5-8.9c1.3-1.4,4.2-1.4,6.5-2C672.6,678.5,673,679.1,673.4,679.4z"/>
		<path class="st11" d="M763.8,840.3c-0.4,0.6-0.7,1.1-1.1,1.5c-3.5,3.3-7,6.6-10.6,9.8c-0.4,0.4-1.2,0.5-1.8,0.7
			c0.1-0.6,0.1-1.4,0.5-1.9c1.7-2.9,3.6-5.7,5.1-8.7c1.6-3.3,4.4-2,6.9-2.1C763,839.6,763.3,840,763.8,840.3z"/>
		<path class="st11" d="M513.9,749.3c-0.7,0.7-1,1.2-1.5,1.5c-3.3,2.4-6.7,4.7-10.1,7c-0.5,0.4-1.3,0.3-2,0.5
			c0.2-0.7,0.4-1.6,0.8-2.2c1.2-1.8,2.7-3.5,3.7-5.4c1.9-3.5,5.1-1.8,7.8-2.1C513,748.6,513.4,749,513.9,749.3z"/>
		<path class="st11" d="M665.3,768.8c1.5-2.6,3-5.3,4.6-7.8c0.6-0.8,1.6-1.7,2.6-1.8c1.5-0.2,3.1,0.1,4.7,0.3
			c-0.8,1.2-1.5,2.6-2.5,3.6c-2.2,2.3-4.7,4.3-7,6.5c-0.2,0.2-0.5,0.4-0.7,0.6c0,0-0.2,0.2-0.2,0.2
			C666.2,769.8,665.8,769.3,665.3,768.8z"/>
		<path class="st7" d="M706.8,836.5c1.7,2.8,3.6,4.5,3.5,6c-0.1,1.3-2.8,3.8-3.7,3.5c-1.6-0.5-3.6-2.4-3.9-4.1
			C702.5,840.8,704.7,839.2,706.8,836.5z"/>
		<path class="st7" d="M534.2,682.2c-1.6,1.1-3.2,3-4.7,3c-1.3,0-3.6-2.3-3.7-3.6c0-1.4,2-3.8,3.4-3.9c1.6-0.2,3.3,1.7,5,2.6
			C534.1,680.9,534.1,681.6,534.2,682.2z"/>
		<path class="st10" d="M621.1,767.8c-2.1-2.6-4.3-4.1-4.1-5.4c0.2-1.6,2.1-3.8,3.6-4.1c1.1-0.3,3.8,2,3.9,3.3
			C624.6,763.1,622.8,764.9,621.1,767.8z"/>
		<path class="st13" d="M576.4,323.1c-0.3-0.6-0.6-1.1-0.9-1.7c8,0.4,14.8-2.4,20.7-7.6c0.6-0.5,1.4-0.9,2.1-1.3
			c-0.3,0.9-0.4,2.2-1,2.6c-3.7,2.3-7.5,4.8-11.5,6.5C582.9,322.7,579.6,322.6,576.4,323.1z"/>
		<path class="st14" d="M515,701c0.5,0.5,1,1.1,1.5,1.6c-1.3,0.9-2.5,1.8-3.8,2.7C513.5,703.9,514.2,702.5,515,701z"/>
		<path class="st15" d="M563.3,334.6c-1.3,0.9-2.6,1.8-3.8,2.6c0.7-1.4,1.5-2.8,2.2-4.2C562.2,333.5,562.7,334,563.3,334.6z"/>
		<path class="st14" d="M752.2,882c-0.5-0.5-1-1.1-1.5-1.6c1.1-0.7,2.1-1.4,3.2-2.2C753.3,879.5,752.8,880.8,752.2,882z"/>
		<path class="st14" d="M515.8,861.8c0.3,0.6,0.7,1.3,1,1.9c-0.9,0.8-1.7,1.6-2.6,2.4C514.8,864.7,515.3,863.3,515.8,861.8z"/>
		<path class="st11" d="M679.2,883.5c-0.4-0.5-0.8-0.9-1.2-1.4c0.3-0.5,0.6-1,1-1.4c0.5-0.4,1.1-0.8,1.7-1.2c0,0.7,0.1,1.6-0.2,2.2
			C680.3,882.5,679.7,883,679.2,883.5z"/>
		<path class="st14" d="M615.1,803c-0.3-0.6-0.7-1.3-1-1.9c0.8-0.7,1.6-1.3,2.3-2C616.1,800.4,615.6,801.7,615.1,803z"/>
		<path class="st14" d="M665.3,768.8c0.5,0.5,0.9,1,1.4,1.5c-0.9,0.5-1.9,1.1-2.8,1.6C664.3,770.9,664.8,769.8,665.3,768.8z"/>
		<path class="st14" d="M615.1,880.3c-0.2-0.6-0.5-1.1-0.7-1.7c0.6,0,1.1,0,1.7-0.1C615.8,879.2,615.4,879.7,615.1,880.3z"/>
		<path class="st14" d="M667.8,799.4c-0.5-0.3-1.1-0.5-1.6-0.8c0.7-0.2,1.4-0.4,2.1-0.7C668.1,798.5,668,798.9,667.8,799.4z"/>
		<path class="st11" d="M638.5,860.9c-0.2-1-0.4-2-0.6-3C638.1,858.9,638.3,859.9,638.5,860.9z"/>
		<path class="st9" d="M576.6,288.6c0.5,0.1,1.1,0.2,1.6,0.3C577.7,288.8,577.1,288.7,576.6,288.6z"/>
		<path class="st8" d="M671.4,859.6c-0.1,0.2-0.3,0.4-0.6,0.5C671.1,859.9,671.2,859.8,671.4,859.6z"/>
		<path class="st14" d="M517.5,863.2c0.2-0.2,0.5-0.4,0.7-0.5C518,862.8,517.8,863,517.5,863.2z"/>
		<path class="st8" d="M672.2,858.9c-0.1,0.1-0.3,0.2-0.4,0.3c0,0,0.1-0.3,0.1-0.3L672.2,858.9z"/>
		<path class="st11" d="M525.5,869.8c0.2-0.3,0.4-0.6,0.6-0.9C525.9,869.1,525.7,869.5,525.5,869.8z"/>
		<polygon class="st11" points="637.1,870.3 637.1,870 637.3,870.2 		"/>
		<path class="st11" d="M636.2,872.3c0-0.3,0.1-0.6,0.3-0.7C636.4,871.9,636.3,872.1,636.2,872.3z"/>
		<path class="st8" d="M672.7,858.2c0,0,0.2,0,0.2,0C672.9,858.3,672.7,858.2,672.7,858.2z"/>
		<path class="st11" d="M637.7,857.5c-0.2-0.3-0.4-0.6-0.6-0.9C637.3,856.9,637.5,857.2,637.7,857.5z"/>
		<path class="st14" d="M611.7,803.1c-0.3,0.2-0.7,0.4-1,0.7C611,803.6,611.4,803.4,611.7,803.1z"/>
		<path class="st14" d="M612.6,802.6c-0.2,0.2-0.5,0.3-0.7,0.5C612.1,802.9,612.3,802.7,612.6,802.6z"/>
		<path class="st14" d="M614.2,801.1c-0.3,0.3-0.6,0.6-0.9,0.9C613.6,801.7,613.9,801.4,614.2,801.1z"/>
		<path class="st15" d="M591.7,288.6c0.3,0.3,0.6,0.5,0.9,0.8c-0.5,0.1-0.9,0.2-1.4,0.3c-0.2,0-0.3-0.2-0.3-0.4
			C591.2,289.1,591.5,288.8,591.7,288.6z"/>
		<path class="st14" d="M666.9,770.1c0.2-0.2,0.5-0.4,0.7-0.6C667.3,769.7,667.1,769.9,666.9,770.1z"/>
		<path class="st14" d="M750.6,880.6c-0.3,0.2-0.5,0.5-0.8,0.7C750.1,881,750.3,880.8,750.6,880.6z"/>
		<path class="st14" d="M516.6,702.6c0.3-0.2,0.6-0.5,0.9-0.7C517.2,702.1,516.9,702.3,516.6,702.6z"/>
		<path class="st11" d="M677.5,882.6c-0.1,0.2-0.3,0.3-0.5,0.4C677.1,882.7,677.2,882.6,677.5,882.6z"/>
		<path class="st9" d="M557.1,284.8c-2.5,2.8-5.5,5.2-7.4,8.4c-2.2,3.6-6.3,3.8-9,6.2c-2,1.8-4.1,3.7-6.2,5.5
			c-0.5-0.5-1-0.9-1.5-1.4c7.2-6.6,14.4-13.2,21.6-19.8c1.7,0,3.5-0.1,5.2-0.1c-0.3,0.3-0.5,0.7-0.8,1
			C558.4,284.7,557.7,284.8,557.1,284.8z"/>
		<path class="st16" d="M555.6,326c-3.6,2.5-7.2,4.9-10.9,7.4c-0.3,0.2-0.7,0.1-1.1,0.1c0.1-0.4,0.4-0.7,0.4-1.1
			c1-4.7,5-5.5,8.8-6.5C553.7,325.9,554.6,325.9,555.6,326z"/>
		<path class="st17" d="M569.5,287.6c0.1,0.3,0.1,0.6,0.2,0.8c-4.7,1-9.4,1.9-14.1,2.9c0.9-0.8,1.8-1.6,2.7-2.4
			c1.4-0.4,2.7-0.9,4.1-1.3C564.7,287.6,567.1,287.6,569.5,287.6z"/>
		<path class="st15" d="M533,303.5c0.5,0.5,1,0.9,1.5,1.4c-1.4,1.6-2.8,3.3-4.3,4.9c-0.3,0.3-0.9,0.4-1.4,0.6
			c0.1-0.5,0.2-1.1,0.4-1.5C530.4,307,531.7,305.2,533,303.5z"/>
		<path class="st16" d="M563.1,316.4c-0.6-0.5-1.1-0.9-1.5-1.3c1-0.5,1.9-1.2,3-1.6c0.4-0.1,1.1,0.6,1.7,0.9
			C565.3,315.1,564.3,315.7,563.1,316.4z"/>
		<path class="st15" d="M557.6,331c-1.5,0.7-2.7,1.3-3.9,1.8c-0.1-0.3-0.4-0.8-0.3-0.9c1-0.9,2.1-1.8,3.2-2.6
			C556.8,329.7,557.1,330.2,557.6,331z"/>
		<path class="st15" d="M559.8,283.6c-1.7,0-3.5,0.1-5.2,0.1C556.3,283.7,558.1,283.6,559.8,283.6z"/>
		<path class="st9" d="M562.3,287.6c-1.4,0.4-2.7,0.9-4.1,1.3C559.6,288.5,561,288.1,562.3,287.6z"/>
		<path class="st15" d="M557.1,325.1c0.9,0.1,1.8,0.2,2.8,0.2c-0.9,0.2-1.8,0.3-2.7,0.5C557,325.5,557,325.3,557.1,325.1z"/>
		<path class="st15" d="M555.6,326c-0.9,0-1.8-0.1-2.8-0.1c0.9-0.3,1.8-0.5,2.7-0.8c0,0.3,0,0.6,0,0.9L555.6,326z"/>
		<path class="st15" d="M557.1,284.8c0.7-0.1,1.3-0.1,2-0.2C558.4,284.7,557.7,284.8,557.1,284.8z"/>
		<path class="st16" d="M555.4,326c0-0.3,0-0.6,0-0.9c0.5,0,1.1,0,1.6,0c0,0.2,0,0.5,0,0.7C556.5,325.8,556,325.9,555.4,326z"/>
		<path class="st15" d="M591,289.3c-0.1-0.4-0.2-0.7-0.3-1.1c0.3,0.1,0.7,0.2,1,0.4C591.5,288.8,591.2,289.1,591,289.3z"/>
		<path class="st17" d="M885.6,575.3c0.1-16.8,11.9-28.9,28.2-28.8c15.4,0.1,27.2,12.8,27.1,29.1c-0.2,16.8-12,28.8-28.4,28.7
			C896.9,604.2,885.5,591.9,885.6,575.3z"/>
		<path class="st17" d="M480.7,575.6c0-7.9,0.1-15.8-0.1-23.7c-0.1-2.7,0.8-3.5,3.5-3.4c5.3,0.2,10.5,0.2,15.8,0.1
			c15.1-0.3,24.4,12.7,25,24.3c0.7,14.6-8.2,26.7-22.1,28.7c-6.5,0.9-13.1,0.7-19.7,0.6c-0.8,0-2.3-1.9-2.3-2.9
			C480.6,591.4,480.7,583.5,480.7,575.6z"/>
		<path class="st18" d="M988.1,429.6c0-0.6-0.1-1.2,0-1.8c0.4-3-0.3-7.1,1.4-8.8c2.5-2.6,15.3,0.2,17.7,3c3.1,3.7,3.6,8.2,1.4,12.3
			c-1.2,2.3-4.1,3.8-6.4,5.4c-0.7,0.5-2,0.3-3,0.4C988.1,440.7,988.1,440.6,988.1,429.6z"/>
		<path class="st18" d="M992,557.8c0-0.4,0-0.9,0-1.3c0.3-3.1-0.4-7,1.3-8.9c2.2-2.5,14.8,0.3,17.4,2.8c2.7,2.7,4.1,8.6,1.9,12.2
			c-1.4,2.3-3.8,4.9-6.2,5.4c-4.4,0.9-9.2,0.4-13.8,0.5c-0.3-3.6-0.5-7.2-0.8-10.8C991.8,557.8,991.9,557.8,992,557.8z"/>
		<path class="st18" d="M817.8,557.9c0.4-3.5,0.9-7,1.3-10.5c5.9,0.5,12,0.3,17.6,1.8c4.2,1.1,5.6,5.7,5.1,10.1
			c-0.5,4.4-3,7.6-7.3,8.9c-1.9,0.6-4,0.6-6,0.7c-10.2,0.1-10.2,0.1-10.2-10.1c0-0.3,0-0.6,0-0.9C818,558,817.9,557.9,817.8,557.9z"
			/>
		<path class="st19" d="M522.4,820.6c-0.1,0-0.3,0-0.4,0c-2.6-0.9-5.3-1.5-7.7-2.9c-0.4-0.2,0.2-3.8,1.2-4.9
			c2.4-2.5,5.1-4.8,9.2-2.8c2.5,1.2,5.3,1.7,7.8,2.7c1,0.4,2.4,1.6,2.5,2.5c0,1-1.1,2.6-2,3c-3.4,1.2-6.9,1.9-10.4,2.9
			C522.5,820.9,522.5,820.7,522.4,820.6z"/>
		<path class="st18" d="M523.8,790.7c1.6-3.7,2.9-7.4,4.9-10.7c0.7-1.2,3.3-1.6,4.9-1.5c0.7,0.1,1.8,2.8,1.5,3.9
			c-0.9,3.8-2.2,7.5-4,10.9c-0.6,1.2-3.2,2.1-4.7,1.8C525.4,795.1,524.8,792.6,523.8,790.7z"/>
		<path class="st19" d="M556.2,706.7c-1.1,5.9-3.4,12-8.9,16.2c-1.6,1.2-4.2,1.3-6.4,1.3c-0.7,0-2.3-2-2.1-2.7
			c2.2-7.4,3.9-15.2,11.9-18.9C554.5,700.8,556.4,701.9,556.2,706.7z"/>
		<path class="st0" d="M547.4,701.6c-0.1,0.1-0.2,0.2-0.3,0.3c-0.1-0.2-0.2-0.4-0.3-0.6c0-0.1,0.2-0.2,0.3-0.3
			C547.1,701.2,547.2,701.4,547.4,701.6z"/>
		<path class="st19" d="M552.1,800.7c-0.1-6.4,6.4-16.5,11.5-18.5c1.3-0.5,2.8-0.2,4.2-0.2c-0.1,1.2,0,2.5-0.4,3.6
			c-2.1,6.3-4,12.9-10.3,16.6c-1,0.6-2.6,1.3-3.5,0.9C552.8,802.8,552.4,801.1,552.1,800.7z"/>
		<path class="st19" d="M542,879.9c1.7-7.6,5-13.6,11.4-17.3c1.2-0.7,3.1-0.4,4.6-0.6c-0.2,1.3-0.2,2.6-0.6,3.9
			c-2,6.3-3.9,12.6-10,16.3c-1.2,0.7-2.9,1.5-3.9,1.1C542.6,882.8,542.4,880.9,542,879.9z"/>
		<path class="st0" d="M579.4,884.1c-0.3,0.1-0.6,0.2-0.9,0.3c0-0.3,0-0.7,0-1C578.8,883.6,579.1,883.8,579.4,884.1z"/>
		<path class="st16" d="M573.9,708c-0.2-0.6-0.7-1.5-0.5-1.8c1.4-2,2.8-4.2,4.6-5.7c0.9-0.8,3.2-0.8,4.3-0.1
			c0.9,0.5,1.5,2.6,1.3,3.7c-0.2,1-1.8,1.9-3,2.3C578.8,707.1,576.7,707.4,573.9,708z"/>
		<path class="st16" d="M662.6,704c-0.7,0.6-1.5,1.7-2.6,2.2c-1.4,0.6-3.1,0.8-4.6,1c-1.3,0.2-2.7,0.2-4,0.2c0.6-1.3,1-2.8,1.9-3.8
			c1.3-1.5,2.8-3.1,4.5-3.8C660.5,698.8,661.9,700.6,662.6,704z"/>
		<path class="st16" d="M656.3,788.5c-0.2-0.5-0.7-1.4-0.5-1.6c1.7-2.2,3.2-4.6,5.4-6.1c0.9-0.6,4,0.4,4.8,1.6
			c1.4,2.2,0.4,4.1-2.4,4.6C661.4,787.3,659.3,787.8,656.3,788.5z"/>
		<path class="st16" d="M603.8,868.5c-0.1-0.6-0.6-1.4-0.3-1.7c1.5-2.1,3-4.3,5-6c0.8-0.7,3-0.7,3.9-0.1c1,0.6,1.7,2.5,1.5,3.7
			c-0.2,1-1.7,2.1-2.9,2.5C609,867.6,606.8,867.9,603.8,868.5z"/>
		<path class="st16" d="M749,858.9c1.4,1.8,2.9,3,3.1,4.3c0.1,1.1-1,2.7-2.1,3.4c-1.1,0.8-2.8,0.8-4.2,1c-1.4,0.2-2.8,0.3-4.2,0.5
			c0.7-1.5,1.1-3.2,2.1-4.5C744.9,862.2,746.7,861,749,858.9z"/>
		<path class="st0" d="M675.3,883.7c-0.4,0.1-0.8,0.1-1.3,0.2c0.1-0.5,0.2-0.9,0.3-1.4C674.7,882.9,675,883.3,675.3,883.7z"/>
		<path class="st0" d="M695.7,862.4c0.4-0.1,0.9-0.2,1.3-0.3c-0.1,0.3-0.1,0.7-0.2,1C696.5,862.9,696.1,862.6,695.7,862.4z"/>
	</g>
</g>
</svg>
