<?xml version="1.0" encoding="utf-8"?>
<!-- Generator: Adobe Illustrator 25.2.1, SVG Export Plug-In . SVG Version: 6.00 Build 0)  -->
<svg version="1.1" id="Layer_1" xmlns="http://www.w3.org/2000/svg" xmlns:xlink="http://www.w3.org/1999/xlink" x="0px" y="0px"
	 viewBox="0 0 173.2 107.5" style="enable-background:new 0 0 173.2 107.5;" xml:space="preserve">
<style type="text/css">
	.st0{fill:#242424;}
	.st1{fill:#227EB7;}
	.st2{fill:#474747;}
</style>
<g id="logo_x5F_france3_1_">
	<g>
		<path class="st0" d="M75.6,30.5c0-1.9,0-3.8,0-5.7c0-1.9,0-3.9,0-5.8c0.2,0,0.5,0,0.7,0c13.5,0,26.9,0,40.4,0c0.3,0,0.6,0,0.9,0
			c0,2.5,0,4.9,0,7.4c0,0.3-0.2,0.5-0.3,0.8c-3.9,4.8-7.8,9.7-11.8,14.5c-0.3,0.4-0.4,0.5,0.2,0.8c5.4,2.2,9.7,5.8,12.6,10.9
			c5.6,10,3.5,25.9-10,32.7c-9.9,4.9-19.7,4-29.1-1.8c-2.4-1.5-4.5-3.4-6.4-5.5c-0.3-0.3-0.4-0.5,0-0.9c2.8-2.3,5.5-4.6,8.2-6.9
			c0.9-0.8,0.9-0.8,1.7,0.1c3.2,3.8,7.2,6,12.2,6c8.8,0,15.1-8.6,12.2-16.7c-1.7-4.7-5.2-7.3-10-8.3c-3.6-0.7-7.2-0.1-10.5,1.4
			c-0.2,0.1-0.4,0.2-0.5,0.2c0,0,0,0-0.1,0c-0.2-0.1-0.1-0.3-0.1-0.5c0-2.5,0-5,0-7.5c0-0.3,0-0.5,0.2-0.7c3.8-4.5,7.6-9,11.4-13.5
			c0.3,0,0.4-0.2,0.4-0.4l0,0l0,0c0.4,0,0.5-0.2,0.5-0.5c0-0.3-0.4-0.2-0.6-0.3c-0.1,0-0.3,0-0.4,0c-5.1,0-10.1,0-15.2,0
			C80,30.5,77.8,30.5,75.6,30.5z"/>
		<path class="st1" d="M52.1,51c7.8,0.1,13.3,6.5,13,13.6c-0.2,7-6.2,12.7-13.3,12.6c-7.4-0.1-13.1-6.1-13-13.5
			C39,56.7,45,50.9,52.1,51z"/>
		<path class="st2" d="M117.7,19c-0.3,0-0.6,0-0.9,0c-13.5,0-26.9,0-40.4,0c-0.2,0-0.5,0-0.7,0c-0.1-0.1,0-0.2,0.1-0.2
			c0.2,0,0.4,0,0.6,0c13.5,0,27.1,0,40.6,0C117.2,18.8,117.6,18.5,117.7,19z"/>
		<path class="st2" d="M75.6,30.5c2.2,0,4.3,0,6.5,0c5.1,0,10.1,0,15.2,0c0.1,0,0.3,0,0.4,0c0.2,0,0.6-0.1,0.6,0.3
			c0,0.3-0.1,0.5-0.5,0.5c0.5-0.6,0-0.6-0.4-0.6c-7,0-14.1,0-21.1,0C76.1,30.7,75.7,30.9,75.6,30.5z"/>
		<path class="st2" d="M97.8,31.3c0,0.3-0.1,0.4-0.4,0.4C97.5,31.5,97.6,31.4,97.8,31.3z"/>
	</g>
</g>
</svg>
