<?xml version="1.0" encoding="utf-8"?>
<!-- Generator: Adobe Illustrator 25.2.1, SVG Export Plug-In . SVG Version: 6.00 Build 0)  -->
<svg version="1.1" id="Layer_1" xmlns="http://www.w3.org/2000/svg" xmlns:xlink="http://www.w3.org/1999/xlink" x="0px" y="0px"
	 viewBox="0 0 173.2 107.5" style="enable-background:new 0 0 173.2 107.5;" xml:space="preserve">
<style type="text/css">
	.st0{clip-path:url(#SVGID_2_);}
	.st1{clip-path:url(#SVGID_4_);}
	.st2{clip-path:url(#SVGID_6_);fill:#EC2D3B;}
	.st3{clip-path:url(#SVGID_6_);fill:#EB2B3A;}
	.st4{clip-path:url(#SVGID_6_);fill:#FCCC12;}
</style>
<g>
	<defs>
		<rect id="SVGID_1_" x="13.1" y="15.3" width="147" height="76.8"/>
	</defs>
	<clipPath id="SVGID_2_">
		<use xlink:href="#SVGID_1_"  style="overflow:visible;"/>
	</clipPath>
	<g class="st0">
		<g>
			<defs>
				<rect id="SVGID_3_" x="12.7" y="-33.7" width="146.9" height="190"/>
			</defs>
			<clipPath id="SVGID_4_">
				<use xlink:href="#SVGID_3_"  style="overflow:visible;"/>
			</clipPath>
			<g class="st1">
				<defs>
					<rect id="SVGID_5_" x="12.7" y="-33.7" width="146.9" height="190"/>
				</defs>
				<clipPath id="SVGID_6_">
					<use xlink:href="#SVGID_5_"  style="overflow:visible;"/>
				</clipPath>
				<path class="st2" d="M83.6,61.8l-0.8-0.4c-1.5-0.8-2.1-2.5-3-3.8c-0.3-0.4-0.8-0.8-1.1-1.2c-1.1-2.9-1.9-5.7-2.2-9
					c-0.2-0.8-0.4-1.6-0.8-2.4c-1.4-2.2-3-4.1-4.7-6.1c-0.1-0.1-0.4-0.2-0.4-0.4l-5.8-4.9c-0.7-0.6-1.6-0.9-2.3-1.3
					c-1.2-0.5-2.9-0.4-4.1,0.1c-1.3,0.7-2.3,1.6-3.7,2.1c-1.9,0.8-4.1,1-5.7,2.5c-1,0.8-1.8,2.2-3.2,1.9c-1.6-0.1-3,0.5-4.2,1.5
					c-1.1,1-2.2,2.2-3.5,2.4c-1.3,0.5-2.7,0.3-4,0.7c-1.9,0.5-3.5,2.1-5.2,3.3c-1.7,1-3.3,2.1-5.4,2c-1.4-0.1-2.7-1-3.1-2.3
					c-0.4-1.6,0.1-3.1,1.3-4.1c1.2-1.5,3.2-2.3,4.2-4.1c0.6-0.8,0.5-2.3-0.2-3.2c-1.3-1.4-3.1-1.4-4.9-1.8c-1.1-0.3-1.9-1.1-3-2.2
					c-0.4,0.6-0.5,1.1-0.4,1.9c0.2,1.6,1.4,3,2.9,3.5c0.8,0.4,1.9,0.1,2.7,0.3c0.2,0.1,0.5,0.4,0.5,0.7c-0.1,0.2-0.1,0.5-0.3,0.7
					c-1.4,1.2-2.9,2.3-4,3.7c-1.2,1.4-1.4,3.7-0.7,5.3c0.7,1.9,2.7,3.2,4.6,3.4c1.4,0.2,2.6-0.1,3.9-0.4c0.1,0,0.2,0.2,0.3,0.3
					c0.1,1.1,0,2.2,0.2,3.1c0.2,1,0.5,1.6,0.8,2.6c0.1,0.4,0,0.7-0.2,0.9c-0.7,0.6-1.4,0.9-2.2,1.3l-1.9,0.1l-0.4,0.1
					c-0.7,0.8-0.7,1.7-1.1,2.6c-0.6,1-1.6,1.4-2.6,2c-0.3,0.5-0.6,1-1,1.4c-0.4,0.3-0.7,0.4-1.1,0.4c-0.7,0.8-0.8,1.8-1,2.9
					c1.1,0.1,2.2,0.7,3.3,0.1c0.9-0.4,1.1-1.6,1.8-2.2c0.6-0.6,1.4-0.1,2,0c0.9,0.1,1.6-0.6,2.4-0.9c0.6-0.4,1.1-1,1.6-1.4
					c1.1-0.5,2.7-0.2,3.8,0c0.9,0.2,1.9,0.1,2.7-0.3c0.8-0.4,1.5-1,2.3-1.2c0.7-0.4,1.1-1.3,1.4-2c0.3-0.7,0.9-1.1,0.8-1.9
					c-0.2-0.1-0.4-0.5-0.7-0.5c-0.4,0.6-0.7,1.1-1.1,1.6c-1.6,2.2-4.2,2.6-6.8,2.6c-2.7-0.1-5,0.7-6.9,2.8c-0.1,0.1-0.3,0-0.4-0.1
					c-0.1-0.3,0.1-0.5,0.3-0.7c1.7-2.3,4.2-2.9,6.9-2.9c1.5-0.1,2.9-0.4,4.1-1c1.4-0.7,2.3-2.2,2.9-3.5c0.4-1.6,0.4-3.2,0.8-4.7
					c0.1-0.1,0.2-0.2,0.4-0.1c0.1,0,0.3,0.1,0.3,0.3c-0.3,1.5-0.4,3.3,0.1,4.8c1.1,1.6,3.3,0.5,4.9,0.4c1.6-0.1,3.1,0.5,4.7,0.6
					c0.8-0.1,1.6,0.2,2.3-0.3c0.1-0.2,0-0.6-0.1-0.8c0-0.4-0.4-1.1,0.1-1.4c0.1-0.1,0.4-0.1,0.4,0.1c0.2,0.6,0.3,1.2,0.7,1.8
					c0.8,1,1.9,1.8,3,2.3c1.1,0.7,1.9,1.7,2,3c0,0.7-0.6,1.1-1.1,1.4c-0.8,0.4-1.7,0.7-2.7,0.7c-1.3-0.7-1.6-2-2.5-3
					c-0.4-0.4-1.1-0.6-1.8-0.5c-0.7,0.1-1.4,0.1-2.1,0.3c-0.2,0.1-0.2,0.4-0.2,0.6c0.4,0.8,0.9,1.6,1.4,2.4c0.6,0.4,1.4-0.2,1.9,0.4
					c0.4,0.7,0.7,1.4,1.4,1.9c0.7,0.5,1.6,0.8,2.3,0.4c1.9-0.6,3.6-1.1,5.3-2.1h0.2c0.7-0.1,1.4,0,1.9-0.5c0.6-0.8,1-1.5,1.4-2.3
					c0.4-0.5,0.2-1.4,0.1-2c-0.8-1-1.3-2.2-1.7-3.4C60.4,56.2,60,56,59.5,56c-0.2,0.1-0.5,0.1-0.7,0.3l1.9,3.8
					c0.1,0.3,0.3,0.7,0.2,1.1c-0.3,0.8-0.7,1.6-1.4,2.2c-0.1,0.1-0.3,0.1-0.4,0c0.2-0.8,0.7-1.8,0.6-2.7L58,57.2
					c-0.2-0.5-0.6-0.8-0.6-1.4c0-0.2,0.2-0.4,0.4-0.5c0.8-0.2,1.9-0.2,2.5-0.8c0.8-1.4,1.4-2.6,1.6-4.1c0.1-0.1,0.1-0.2,0.2-0.2
					c0.1,0,0.1,0.1,0.2,0.2c0.3,1.6-0.1,3.4-1.1,4.7c-0.1,0.1-0.1,0.4,0.1,0.5c0.9,0.3,1.9,0,2.7-0.4c1,0,1.9-0.2,2.9-0.4
					c0.1,0,0.2,0.1,0.2,0.2c-0.7,0.7-1,1.5-1.1,2.3c-0.7,0.7-1.8,1.4-1.9,2.5c0.1,0.5,0.7,0,0.9,0.1c0.1,0,0.2,0.1,0.2,0.3l-0.7,1.1
					c-0.4,0.7,0.1,1.4,0.1,2C65,63.8,65.6,64,66,64c1.1,0,2.1-0.4,3-0.8c1.1-0.4,2.3-0.4,3.6-0.2c1.1-0.1,2-0.8,2.9-1.6
					c0.5,0,0.9,0.3,1.2,0.7c1.4,1.4,3,2.1,5,2l0.1-0.1c0.1-0.1,0.1-0.4-0.1-0.4L80.6,63c-0.8-0.5-1.8-1.1-2.1-2.1
					c-0.2-0.8-0.7-1.7-1.1-2.5c-0.1-0.4-0.6-0.7-0.7-1.1c0,0,0.1-0.1,0.1-0.1c1.3,0.5,2.1,1.7,2.6,2.9c0.9,1.3,2.3,2.3,4.1,2.1
					l0.1-0.1C83.6,62,83.6,61.9,83.6,61.8 M63.1,44.6L63.1,44.6L63.1,44.6c-0.1,0.2-0.2,0.2-0.3,0.2c-0.1,0-0.2,0-0.3-0.1l0,0v-0.1
					c-0.2-1-0.4-2-0.8-2.9c0-0.1-0.2-0.3-0.3-0.5c-0.3-0.4-0.6-0.8-0.3-1.4l0-0.1c0.2-0.2,0.6-0.2,0.9-0.1h0l0,0
					c0.3,0.3,0.5,0.7,0.7,1l0.1,0.2C63.4,41.8,63.4,43.2,63.1,44.6 M72.4,60.9L72.4,60.9c-0.4,0.2-0.8,0.2-1.2,0.2
					c-0.1,0-0.3,0-0.5,0l-0.1,0c-0.1,0-0.5-0.2-0.3-0.6c0.2-0.7,0.9-1.4,1.7-1.6c0.5,0,0.7,0.1,0.8,0.5C72.9,59.6,73,60.5,72.4,60.9
					 M75.4,54L75.4,54c-0.1,0.1-0.1,0.2-0.1,0.3c0,0.2-0.1,0.5-0.5,0.6c0,0-0.1,0-0.1,0c-0.1,0-0.1,0-0.2,0
					c-0.1-0.1-0.2-0.2-0.2-0.4c0-0.1,0-0.2,0-0.3c0-0.5-0.1-1-0.3-1.4c-0.1-0.1-0.2-0.2-0.3-0.3c-0.3-0.4-0.7-0.8-1.1-0.8
					c-0.3,0.1-0.6,0.5-0.8,0.8c0,0-0.1,0.1-0.1,0.1c0,0.1-0.1,0.1-0.2,0.2c-0.1,0-0.3,0-0.4-0.1l0-0.1c-0.2-0.6,0-1.2,0.3-1.6
					c0.1-0.1,0.2-0.3,0.2-0.4l0-0.1c0.1-0.1,0.2-0.3,0.3-0.5c0.1-0.3,0.3-0.7,0.6-0.8c0.2-0.1,0.4-0.1,0.7,0l0,0
					c0.4,0.3,0.7,0.7,0.8,1c0.1,0.2,0.2,0.4,0.4,0.6C75,51.5,75.8,52.6,75.4,54"/>
				<path class="st2" d="M88.9,62l0.1,0.1c1.8,0.3,3.1-0.8,4.1-2.1c0.6-1.1,1.4-2.3,2.6-2.9c0,0,0.1,0.1,0.1,0.1
					c-0.1,0.4-0.6,0.7-0.7,1.1c-0.5,0.7-0.9,1.6-1.1,2.5c-0.3,0.9-1.3,1.5-2.1,2.1l-1.1,0.6c-0.2,0-0.2,0.3-0.1,0.4l0.1,0.1
					c2,0,3.6-0.6,5-2c0.3-0.4,0.7-0.7,1.2-0.7c0.8,0.8,1.7,1.5,2.9,1.6c1.2-0.2,2.5-0.2,3.6,0.2c1,0.4,2,0.8,3,0.8
					c0.5,0,1-0.2,1.3-0.7c0-0.7,0.5-1.4,0.1-2l-0.7-1.1c0-0.1,0.1-0.3,0.2-0.3c0.3-0.1,0.8,0.4,0.9-0.1c-0.1-1.1-1.2-1.8-1.9-2.5
					c-0.1-0.8-0.5-1.6-1.1-2.3c0-0.1,0.1-0.2,0.2-0.2c0.9,0.1,1.9,0.4,2.9,0.4c0.8,0.4,1.8,0.7,2.7,0.4c0.2-0.1,0.2-0.4,0.1-0.5
					c-1-1.4-1.4-3.1-1.1-4.7c0.1-0.1,0.1-0.2,0.2-0.2c0.1,0,0.1,0.1,0.2,0.2c0.2,1.5,0.7,2.8,1.6,4.1c0.6,0.6,1.6,0.6,2.5,0.8
					c0.2,0.1,0.4,0.3,0.4,0.5c0,0.6-0.3,0.9-0.6,1.4l-1.9,3.4c-0.1,0.9,0.3,1.9,0.6,2.7c-0.1,0.1-0.2,0.1-0.4,0
					c-0.7-0.6-1.1-1.4-1.4-2.2c0-0.4,0.1-0.8,0.2-1.1l1.9-3.8c-0.1-0.2-0.4-0.2-0.7-0.3c-0.4,0-0.8,0.2-1.3,0.4
					c-0.5,1.2-0.9,2.4-1.7,3.4c-0.1,0.7-0.3,1.5,0.1,2c0.4,0.8,0.8,1.5,1.4,2.3c0.5,0.5,1.2,0.4,1.9,0.5h0.2
					c1.7,0.9,3.5,1.5,5.3,2.1c0.7,0.4,1.7,0.1,2.3-0.4c0.7-0.5,0.9-1.2,1.4-1.9c0.5-0.7,1.3,0,1.9-0.4c0.5-0.8,1-1.6,1.4-2.4
					c0-0.2,0-0.4-0.2-0.6c-0.7-0.2-1.4-0.2-2.1-0.3c-0.7,0-1.4,0.1-1.8,0.5c-0.8,1-1.2,2.3-2.5,3c-1,0-1.9-0.2-2.7-0.7
					c-0.5-0.3-1.1-0.7-1.1-1.4c0.1-1.3,0.9-2.3,2-3c1.1-0.6,2.2-1.4,3-2.3c0.4-0.6,0.5-1.2,0.7-1.8c0-0.2,0.3-0.2,0.4-0.1
					c0.5,0.3,0.1,1,0.1,1.4c-0.1,0.3-0.2,0.6-0.1,0.8c0.7,0.5,1.5,0.2,2.3,0.3c1.6,0,3.1-0.7,4.7-0.6c1.6,0.1,3.7,1.2,4.9-0.4
					c0.6-1.5,0.4-3.3,0.1-4.8c0-0.1,0.1-0.3,0.3-0.3c0.1-0.1,0.3,0,0.4,0.1c0.4,1.5,0.5,3.1,0.8,4.7c0.6,1.4,1.5,2.8,2.9,3.5
					c1.2,0.6,2.6,0.8,4.1,1c2.7,0,5.2,0.6,6.9,2.9c0.1,0.2,0.4,0.4,0.3,0.7c-0.1,0.1-0.3,0.2-0.4,0.1c-1.9-2.1-4.2-2.9-6.9-2.8
					c-2.6,0-5.1-0.4-6.8-2.6c-0.4-0.5-0.7-1-1.1-1.6c-0.3,0-0.5,0.4-0.7,0.5c-0.1,0.8,0.6,1.3,0.8,1.9c0.3,0.7,0.7,1.6,1.4,2
					c0.8,0.2,1.5,0.8,2.3,1.2c0.8,0.4,1.8,0.5,2.7,0.3c1.1-0.2,2.7-0.5,3.8,0c0.6,0.4,1.1,1,1.6,1.4c0.8,0.4,1.5,1,2.4,0.9
					c0.7-0.1,1.4-0.6,2,0c0.7,0.6,0.8,1.8,1.8,2.2c1.1,0.6,2.2,0,3.3-0.1c-0.1-1.1-0.3-2.1-1-2.9c-0.4,0-0.7-0.1-1.1-0.4
					c-0.4-0.4-0.7-0.8-1-1.4c-0.9-0.6-2-1-2.6-2c-0.4-0.9-0.4-1.8-1.1-2.6l-0.4-0.1l-1.9-0.1c-0.8-0.3-1.5-0.7-2.2-1.3
					c-0.2-0.2-0.3-0.6-0.2-0.9c0.3-0.9,0.6-1.6,0.8-2.6c0.2-1,0.1-2,0.2-3.1c0,0,0.1-0.3,0.3-0.3c1.3,0.3,2.5,0.7,3.9,0.4
					c1.9-0.2,3.9-1.5,4.6-3.4c0.7-1.6,0.5-4-0.7-5.3c-1.1-1.4-2.6-2.5-4-3.7c-0.2-0.1-0.2-0.4-0.3-0.7c0-0.3,0.3-0.5,0.5-0.7
					c0.8-0.2,1.9,0.1,2.7-0.3c1.5-0.5,2.6-1.9,2.9-3.5c0.1-0.7,0-1.3-0.4-1.9c-1.1,1-2,1.9-3,2.2c-1.7,0.4-3.6,0.4-4.9,1.8
					c-0.7,0.9-0.8,2.4-0.2,3.2c1,1.7,3,2.6,4.2,4.1c1.2,1,1.6,2.5,1.3,4.1c-0.4,1.4-1.8,2.2-3.1,2.3c-2.2,0-3.7-1-5.4-2
					c-1.7-1.2-3.3-2.8-5.2-3.3c-1.3-0.4-2.7-0.2-4-0.7c-1.4-0.3-2.4-1.4-3.5-2.4c-1.2-1-2.6-1.6-4.2-1.5c-1.4,0.2-2.2-1.1-3.2-1.9
					c-1.6-1.5-3.8-1.6-5.7-2.5c-1.4-0.4-2.4-1.4-3.7-2.1c-1.2-0.5-2.9-0.7-4.1-0.1c-0.7,0.3-1.6,0.7-2.3,1.3l-5.8,4.9
					c0,0.2-0.3,0.3-0.4,0.4c-1.7,2-3.4,3.9-4.7,6.1c-0.4,0.8-0.6,1.6-0.8,2.4c-0.3,3.3-1.1,6.1-2.2,9c-0.3,0.4-0.8,0.8-1.1,1.2
					c-0.9,1.3-1.5,2.9-3,3.8L89,61.8C89,61.9,89,62,88.9,62 M109.7,40.7l0.1-0.2c0.2-0.3,0.4-0.7,0.7-1l0,0h0
					c0.3-0.1,0.7-0.1,0.9,0.1l0,0.1c0.3,0.6,0,1-0.3,1.4c-0.1,0.2-0.2,0.4-0.3,0.5c-0.4,1-0.6,2-0.8,2.9v0.1l0,0
					c-0.1,0.1-0.2,0.1-0.3,0.1c-0.1,0-0.2,0-0.3-0.1l0,0v0C109.2,43.2,109.2,41.8,109.7,40.7 M99.8,59.2c0.1-0.3,0.3-0.5,0.8-0.5
					c0.8,0.2,1.5,1,1.7,1.6c0.2,0.4-0.2,0.6-0.3,0.6l-0.1,0c-0.1,0-0.3,0-0.5,0c-0.4,0-0.8,0-1.2-0.2l0,0
					C99.7,60.5,99.7,59.6,99.8,59.2 M98.3,50.7c0.1-0.1,0.2-0.3,0.4-0.6c0.2-0.3,0.4-0.7,0.8-1l0,0c0.3-0.1,0.5-0.1,0.7,0
					c0.3,0.1,0.5,0.5,0.6,0.8c0.1,0.2,0.2,0.4,0.3,0.5l0,0.1c0,0.1,0.1,0.3,0.2,0.4c0.2,0.4,0.5,1,0.3,1.6l0,0.1
					c-0.1,0.1-0.2,0.1-0.4,0.1c-0.1,0-0.1-0.1-0.2-0.2c0,0,0-0.1-0.1-0.1c-0.2-0.3-0.5-0.7-0.8-0.8c-0.4,0-0.7,0.5-1.1,0.8
					c-0.1,0.1-0.2,0.2-0.3,0.3c-0.2,0.4-0.3,0.9-0.3,1.4c0,0.1,0,0.2,0,0.3c0,0.2-0.1,0.3-0.2,0.4c-0.1,0-0.1,0-0.2,0
					c0,0-0.1,0-0.1,0c-0.4-0.1-0.5-0.4-0.5-0.6c0-0.1,0-0.1,0-0.2l0-0.1C96.8,52.6,97.6,51.5,98.3,50.7"/>
				<path class="st2" d="M129.7,68.2c0.6,0,1.1,0.2,1.5,0.7c0.4,0.4,0.6,1,0.6,1.5c0,0.6-0.2,1.1-0.6,1.5c-0.4,0.5-0.9,0.7-1.5,0.7
					c-0.6,0-1.1-0.2-1.5-0.7c-0.4-0.4-0.6-1-0.6-1.5c0-0.6,0.2-1.1,0.6-1.5C128.6,68.4,129.1,68.2,129.7,68.2 M132.1,70.3
					c0-0.7-0.3-1.3-0.7-1.8c-0.5-0.5-1.1-0.8-1.8-0.8c-0.7,0-1.3,0.3-1.8,0.8c-0.5,0.5-0.7,1.1-0.7,1.8c0,0.7,0.3,1.3,0.7,1.8
					c0.5,0.5,1.1,0.8,1.8,0.8c0.7,0,1.3-0.3,1.8-0.8C131.8,71.6,132.1,71,132.1,70.3 M130.3,69.8c0,0.2-0.1,0.4-0.3,0.5
					c-0.1,0.1-0.3,0.1-0.5,0.1h-0.5v-1h0.4c0.3,0,0.5,0.1,0.6,0.1C130.2,69.5,130.3,69.6,130.3,69.8 M128.7,68.9v2.7h0.5v-1.1h0.4
					c0.3,0,0.5,0.1,0.5,0.1c0.2,0.1,0.3,0.3,0.3,0.7v0.4h0.5l-0.1-0.1c0-0.1-0.1-0.1-0.1-0.2v-0.4c0-0.2-0.1-0.3-0.2-0.5
					c-0.1-0.2-0.3-0.3-0.5-0.3c0.2-0.1,0.3-0.1,0.4-0.2c0.2-0.1,0.3-0.3,0.3-0.6c0-0.4-0.2-0.6-0.5-0.7c-0.2-0.1-0.4-0.1-0.8-0.1
					L128.7,68.9L128.7,68.9z"/>
				<path class="st3" d="M107.4,77.3h-3.3v6.5c0,2.2,2.3,4,5.1,4c2.8,0,5.2-1.9,5.2-4v-6.5H111v5.9c0,1-0.8,1.8-1.8,1.8
					c-1,0-1.9-0.8-1.9-1.8V77.3z"/>
				<path class="st3" d="M51.3,73.7v13.5h-3.4V70.9h6.2c2.7,0,4.9,2.2,4.9,4.9c0,2.3-1.6,4.2-3.7,4.7l4.8,6.8h-4.1l-3.4-5.4v-3.9
					h0.8c1.3,0,2.3-1,2.3-2.2c0-1.2-1-2.2-2.3-2.2L51.3,73.7L51.3,73.7z"/>
				<path class="st3" d="M79.6,70.1v8.1c-0.9-0.9-2-1.3-3.2-1.3c-2.7,0-4.9,2.4-4.9,5.3c0,3,2.2,5.3,4.9,5.3c1.3,0,2.5-0.5,3.2-1.4
					v1.1h3.3V70.1H79.6z M77.4,84.8c-1.3,0-2.4-1.2-2.4-2.6c0-1.5,1.1-2.6,2.4-2.6c1.3,0,2.4,1.2,2.4,2.6
					C79.7,83.6,78.7,84.8,77.4,84.8"/>
				<path class="st3" d="M100.1,78.3c0.9-0.9,1.5-2,1.5-3.2c0-1.1-0.5-2.2-1.2-3c-0.8-0.9-2.2-1.4-4-1.4h-5.5v16.4h7.2
					c2.7-0.1,5-2.2,5-4.7C103,80.7,102.3,79.3,100.1,78.3 M97.3,84.4h-3.1V73.8h2.2c1,0,1.8,0.7,1.8,1.7s-0.8,1.8-1.8,1.8h-1.2v3
					h2.1c1.2,0,2,1,2,2.1C99.4,83.5,98.6,84.4,97.3,84.4"/>
				<rect x="115.9" y="70.1" class="st2" width="3.3" height="17.2"/>
				<rect x="121.4" y="70.1" class="st2" width="3.3" height="17.2"/>
				<path class="st2" d="M64.9,76.7c-3,0-5.4,2.5-5.4,5.5c0,3,2.4,5.5,5.4,5.5c2.3,0,4-1.1,4.9-2.7l-2.6-1.2
					c-0.4,0.7-1.1,1.3-2.1,1.3c-1.2,0-2.2-1-2.2-2.2h7.1c0-0.3,0.1-0.5,0.1-0.7C70.2,78.6,67.8,76.7,64.9,76.7 M62.9,81
					c0-1.1,0.9-2,2-2c1.1,0,2,0.9,2,2H62.9z"/>
				<path class="st4" d="M106.6,66c-1.3,0-2.5-0.4-3.5-0.8l-0.3-0.1c-0.4-0.2-0.9-0.2-1.4-0.2c-0.4,0-0.8,0-1.2,0.1
					c-0.1,0-0.2,0-0.3,0c-0.1,0-0.1,0-0.2,0c-1.1-0.1-2.1-0.6-2.9-1.1c-1.6,1.5-3.6,2.2-5.8,2.2c-0.1,0-0.2,0-0.2,0
					c-0.4,0-0.7-0.1-1-0.3l-0.1-0.1c-0.1-0.1-0.2-0.2-0.3-0.2c-0.3-0.3-0.6-0.8-0.6-1.2c0,0,0,0,0,0c-0.4-0.1-0.8-0.3-1.1-0.5
					l-0.1-0.1c-0.4-0.4-0.6-1.1-0.5-1.7c0-0.3,0.2-0.5,0.3-0.8c0.1-0.2,0.2-0.3,0.4-0.5c0.1-0.1,0.3-0.3,0.5-0.4l0.8-0.4
					c0.6-0.3,1-1.1,1.5-1.9c0.3-0.4,0.5-0.9,0.8-1.3c0.3-0.4,0.6-0.7,0.8-0.9c0.1-0.1,0.1-0.1,0.2-0.2c1.2-3.1,1.7-5.6,2-8.2
					c0-0.1,0-0.2,0.1-0.4l0.1-0.3c0.2-0.8,0.4-1.6,0.9-2.5c0,0,0-0.1,0.1-0.1c1.3-2.1,2.8-3.9,4.3-5.6c0.2-0.2,0.4-0.5,0.6-0.7
					c0.1-0.1,0.2-0.2,0.3-0.3c0.1-0.1,0.2-0.2,0.3-0.3l5.8-4.9c0,0,0,0,0,0c0.9-0.7,1.9-1.1,2.7-1.5c0,0,0.1-0.1,0.1-0.1
					c0.7-0.3,1.5-0.5,2.4-0.5c-5.3-8.5-14.8-14.1-25.6-14.1S66.1,21.5,60.7,30c0.9,0,1.7,0.2,2.4,0.5c0,0,0.1,0.1,0.1,0.1
					c0.8,0.3,1.8,0.8,2.7,1.5c0,0,0,0,0,0l5.8,4.9c0.1,0.1,0.2,0.2,0.3,0.3c0.1,0.1,0.2,0.2,0.3,0.3c0.2,0.2,0.4,0.5,0.6,0.7
					c1.5,1.8,3,3.6,4.3,5.6c0,0,0,0.1,0.1,0.1c0.5,0.9,0.7,1.7,0.9,2.5l0.1,0.3c0,0.1,0.1,0.2,0.1,0.4c0.2,2.6,0.8,5,2,8.2
					c0.1,0.1,0.1,0.1,0.2,0.2c0.3,0.2,0.6,0.5,0.8,0.9c0.3,0.4,0.6,0.9,0.8,1.3c0.5,0.8,0.9,1.5,1.5,1.9l0.8,0.4
					c0.2,0.1,0.4,0.2,0.5,0.4c0.2,0.2,0.3,0.4,0.4,0.5c0.2,0.2,0.3,0.5,0.3,0.8c0.1,0.6-0.1,1.2-0.5,1.7L85,63.6
					c-0.3,0.3-0.7,0.5-1.1,0.5c0,0,0,0,0,0c-0.1,0.5-0.3,0.9-0.6,1.2c-0.1,0.1-0.2,0.2-0.3,0.2l-0.1,0.1c-0.3,0.2-0.7,0.3-1,0.3
					c-0.1,0-0.2,0-0.2,0c-2.3,0-4.2-0.8-5.8-2.2c-0.8,0.6-1.7,1.1-2.9,1.1c-0.1,0-0.1,0-0.2,0c-0.1,0-0.2,0-0.3,0
					c-0.4-0.1-0.8-0.1-1.2-0.1c-0.5,0-1,0.1-1.4,0.2l-0.3,0.1c-1,0.4-2.1,0.8-3.5,0.8c-1.2,0-2.3-0.6-2.9-1.6
					c-0.1,0.2-0.3,0.4-0.4,0.6c3.9,4.9,9.3,8.5,15.5,10.2v-6.6h6.1v7.6c0.7,0,1.3,0.1,2,0.1c1.1,0,2.2-0.1,3.2-0.2v-6.7h6.9
					c2.2,0,3.9,0.6,5,1.8l0,0c0.2,0.2,0.3,0.4,0.5,0.6c3-1.8,5.7-4.2,7.9-6.9c-0.1-0.2-0.3-0.4-0.4-0.6
					C108.9,65.4,107.8,66,106.6,66"/>
			</g>
		</g>
	</g>
</g>
</svg>
