<?xml version="1.0" encoding="utf-8"?>
<!-- Generator: Adobe Illustrator 25.2.1, SVG Export Plug-In . SVG Version: 6.00 Build 0)  -->
<svg version="1.1" id="Layer_1" xmlns="http://www.w3.org/2000/svg" xmlns:xlink="http://www.w3.org/1999/xlink" x="0px" y="0px"
	 viewBox="0 0 1569.9 1110" style="enable-background:new 0 0 1569.9 1110;" xml:space="preserve">
<style type="text/css">
	.st0{fill:#B5281A;}
	.st1{fill:#FFE422;}
	.st2{enable-background:new    ;}
	.st3{fill:#FFFFFF;}
</style>
<path class="st0" d="M1292,1003.8c-338,0-676.1,0-1014.1,0c0-300,0-600,0-900c338,0,676.1,0,1014.1,0
	C1292,403.8,1292,703.8,1292,1003.8z"/>
<g>
	<path class="st1" d="M744.2,379.8c-2.2-9.1-2.9-17.2-5.8-24.4c-7.8-19.6-16.6-38.8-24.8-58.3c-2.5-5.9-7.1-3.6-11-3.6
		c-10.8-0.1-19.2-6.5-21.8-16.6c-2.6-10.2,1.9-21.5,12-25c5.8-2,12.8-0.4,19.3-0.4c2.7,0,5.9,1.2,8.1,0c17.2-8.1,32.6-18.6,44-34.1
		c1.7-2.5,2.6-6.5,2-9.5c-2.3-11.4,1.7-21.4,11.4-26.4c9.1-4.6,20.2-2.3,26.8,5.6c6.9,8.2,7.6,19.8,0.1,28.4
		c-18.8,21.5-36.8,43.9-61.5,59.2c-4.3,2.7-2.7,5-1.3,8.2c9.1,21.4,19,42.6,26.8,64.4c6.6,18.2,8.1,37.5,8.1,56.8
		c0,5.2-1.4,7.1-6.9,7.4c-44.7,2.5-87-7.1-126.8-27.3c-6.6-3.5-8.8-1.7-12.7,3.9c-10.8,15.4-22.7,30.2-36.1,47.8
		c3,2.3,8.4,5.2,12,9.5c9.4,11.5,18.3,23.5,27,35.6c2.5,3.5,3.9,5,8.4,2.9c40.4-19.5,83.1-27.8,127.8-27.4c6.2,0,7.9,1.7,8.2,8.2
		c1.4,33.3-9.4,63.3-23.8,92.5c-5,10.2-10.1,20.6-15.4,31.3c5,3.5,10.4,6.2,14.3,10.1c12.7,13.1,24.8,26.7,37.2,40.1
		c4,4.3,8.2,8.8,12.6,12.8c8.4,7.9,10.2,19.3,4.5,28.9c-5.6,9.1-17,12.7-27.1,8.5c-10.4-4.3-15.1-14.6-13.1-26
		c0.6-3.3-0.1-7.6-2-10.2c-11.3-16-25.4-28.9-43.6-36.5c-2.6-1.2-6.5-1.2-9.1-0.1c-8.9,3.3-18.5,2-24.8-4.2
		c-6.6-6.6-8.7-16.4-5.2-24.5c3.8-8.8,11.8-14,21.9-13.1c5.2,0.4,7.8-1.2,10-5.9c9.4-21.8,19.2-43.4,28.7-65.2c1.3-3,1.4-6.5,2-9.8
		c0.1-0.9-0.1-1.9-0.3-4c-12.3,2-24.5,3.2-36.2,6.3c-17.6,4.8-34.8,10.7-52.1,16.6c-2.5,0.9-5,4.2-5.9,6.9
		c-4,12.6-16.2,19.8-28.1,16.2c-12.1-3.8-18.3-16-14.7-28.7c0.7-2.6,0.6-6.3-0.7-8.7c-9.1-16.3-20.9-30.4-35.3-42.3
		c-2-1.7-6.1-2.2-8.8-1.6c-10.4,2.5-19.3-0.4-25.4-9.1c-5.2-7.4-5-17.5,0.3-25.1c5.5-7.8,15.3-11.7,24.8-8.1
		c5.5,2.2,8.4,0.3,11.8-2.9c13.6-12.4,25.1-26.5,33.5-43c1.3-2.5,1.4-6.5,0.3-9.1c-4-10-3-18.9,3.8-26.1c6.1-6.3,15.3-8.7,23.1-5.6
		c9.7,3.8,14.6,11.4,14.9,22.5c0,2.2,1.2,5.3,2.9,6.2C680.3,368.8,710.7,375.7,744.2,379.8z"/>
	<path class="st1" d="M843.3,442c0-53.4,0-106.8,0-160c0-11.5,6.9-18.9,17.9-19c11.1-0.1,17.9,6.8,18,18.8
		c0.1,106.9,0.1,213.8,0,320.9c0,15.7-14.4,24.2-27.4,16.6c-6.5-3.8-8.5-9.7-8.5-17C843.3,548.7,843.3,495.3,843.3,442L843.3,442z"
		/>
	<path class="st1" d="M933.7,429.7c0-28.9,0-57.7,0-86.4c0-11.5,6.9-19.8,17.2-20.1c10.4-0.3,18.2,7.1,18.6,18.6
		c0.4,10.2,0.1,20.6,0.1,31c0,45.6,0,91.3,0,136.9c0,2.9,0.1,5.8-0.1,8.7c-1,10.4-8.8,17.9-18.3,17.7c-10.1-0.3-17.3-7.9-17.5-19.2
		c-0.1-20.9,0-41.8,0-62.8C933.7,446,933.7,437.9,933.7,429.7C933.8,429.7,933.8,429.7,933.7,429.7z"/>
	<path class="st1" d="M1050.8,435.8c-0.1,11.8-10.5,21.8-22.4,21.6c-12-0.1-22.2-10.8-21.9-23.1c0.3-12,10.4-21.6,22.5-21.6
		C1041.3,413,1051,423.2,1050.8,435.8z"/>
</g>
<g class="st2">
	<path class="st3" d="M339.7,754.8h12V802h28.8v10.4h-40.8V754.8z"/>
	<path class="st3" d="M405.1,754.8h13.6l20.4,57.6h-13.1l-3.8-11.8H401l-3.9,11.8h-12.6L405.1,754.8z M404.3,790.6h14.8l-7.3-22.7
		L404.3,790.6z"/>
	<path class="st3" d="M502.7,756.2c2.1,0.9,3.9,2.3,5.4,4c1.2,1.5,2.2,3.1,2.9,4.8c0.7,1.8,1.1,3.8,1.1,6.1c0,2.7-0.7,5.4-2.1,8.1
		c-1.4,2.6-3.7,4.5-6.8,5.6c2.7,1.1,4.5,2.6,5.6,4.6c1.1,2,1.7,5,1.7,9v3.9c0,2.6,0.1,4.4,0.3,5.4c0.3,1.5,1.1,2.6,2.2,3.3v1.4
		h-13.3c-0.4-1.3-0.6-2.3-0.8-3.1c-0.3-1.6-0.5-3.3-0.5-5l-0.1-5.4c0-3.7-0.7-6.1-1.9-7.4c-1.2-1.2-3.5-1.8-6.9-1.8h-11.8v22.6H466
		v-57.6h27.6C497.5,754.8,500.6,755.3,502.7,756.2z M477.8,764.8v15.5h13c2.6,0,4.5-0.3,5.8-0.9c2.3-1.1,3.4-3.3,3.4-6.5
		c0-3.5-1.1-5.8-3.3-7c-1.2-0.7-3.1-1-5.6-1H477.8z"/>
	<path class="st3" d="M566.2,765h-30.5v12.2h28v10h-28V802h31.9v10.4h-43.7v-57.6h42.3V765z M558.7,738.4l-11.9,11.7h-8.1l7.5-11.7
		H558.7z"/>
	<path class="st3" d="M615.7,772.7c-0.9-3.9-3.1-6.7-6.7-8.2c-2-0.9-4.2-1.3-6.6-1.3c-4.6,0-8.5,1.7-11.4,5.2
		c-3,3.5-4.5,8.8-4.5,15.8c0,7.1,1.6,12.1,4.8,15c3.2,2.9,6.9,4.4,11,4.4c4,0,7.4-1.2,9.9-3.5c2.6-2.3,4.2-5.4,4.8-9.1h-13.3v-9.6
		h24v30.9h-8l-1.2-7.2c-2.3,2.7-4.4,4.6-6.3,5.8c-3.2,1.9-7.1,2.9-11.7,2.9c-7.6,0-13.9-2.6-18.8-7.9c-5.1-5.3-7.6-12.6-7.6-21.8
		c0-9.3,2.6-16.8,7.7-22.4c5.1-5.6,11.9-8.4,20.4-8.4c7.3,0,13.2,1.9,17.7,5.6c4.4,3.7,7,8.3,7.6,13.9H615.7z"/>
	<path class="st3" d="M650.3,812.4h-12v-57.6h12V812.4z"/>
	<path class="st3" d="M705.9,807.3c-4.4,4.5-10.6,6.7-18.9,6.7c-8.2,0-14.5-2.2-18.9-6.7c-5.8-5.5-8.8-13.4-8.8-23.8
		c0-10.6,2.9-18.5,8.8-23.8c4.4-4.5,10.6-6.7,18.9-6.7c8.2,0,14.5,2.2,18.9,6.7c5.8,5.3,8.7,13.2,8.7,23.8
		C714.6,793.8,711.7,801.8,705.9,807.3z M698.4,798.5c2.8-3.5,4.2-8.5,4.2-15c0-6.5-1.4-11.5-4.2-15c-2.8-3.5-6.6-5.3-11.4-5.3
		c-4.8,0-8.6,1.8-11.4,5.3s-4.3,8.5-4.3,15s1.4,11.5,4.3,15c2.8,3.5,6.6,5.3,11.4,5.3C691.8,803.8,695.6,802,698.4,798.5z"/>
	<path class="st3" d="M723.6,754.8h12.6l22.9,40.2v-40.2h11.2v57.6h-12l-23.5-40.9v40.9h-11.2V754.8z"/>
</g>
<g class="st2">
	<path class="st3" d="M860.1,807.5c-4.4,4.5-10.6,6.7-18.9,6.7c-8.2,0-14.5-2.2-18.9-6.7c-5.8-5.5-8.8-13.4-8.8-23.8
		c0-10.6,2.9-18.5,8.8-23.8c4.4-4.5,10.6-6.7,18.9-6.7c8.2,0,14.5,2.2,18.9,6.7c5.8,5.3,8.7,13.2,8.7,23.8
		C868.8,794.1,865.9,802,860.1,807.5z M852.5,798.8c2.8-3.5,4.2-8.5,4.2-15c0-6.5-1.4-11.5-4.2-15c-2.8-3.5-6.6-5.3-11.4-5.3
		c-4.8,0-8.6,1.8-11.4,5.3c-2.8,3.5-4.3,8.5-4.3,15c0,6.5,1.4,11.5,4.3,15c2.8,3.5,6.6,5.3,11.4,5.3
		C846,804.1,849.7,802.3,852.5,798.8z"/>
	<path class="st3" d="M884.4,761c4.6-4.7,10.5-7.1,17.7-7.1c9.6,0,16.6,3.2,21,9.5c2.4,3.6,3.8,7.2,3.9,10.8h-12
		c-0.8-2.8-1.7-4.8-2.9-6.3c-2.1-2.5-5.3-3.8-9.5-3.8c-4.3,0-7.7,1.8-10.2,5.3c-2.5,3.5-3.7,8.5-3.7,15c0,6.5,1.3,11.3,3.9,14.5
		c2.6,3.2,5.9,4.8,10,4.8c4.1,0,7.3-1.4,9.4-4.1c1.2-1.5,2.2-3.7,3-6.7h12c-1,6.3-3.7,11.4-7.9,15.3c-4.2,3.9-9.7,5.9-16.3,5.9
		c-8.2,0-14.6-2.7-19.3-8c-4.7-5.3-7-12.7-7-22C876.4,774.2,879.1,766.5,884.4,761z"/>
	<path class="st3" d="M943.2,761c4.6-4.7,10.5-7.1,17.7-7.1c9.6,0,16.6,3.2,21,9.5c2.4,3.6,3.8,7.2,3.9,10.8h-12
		c-0.8-2.8-1.7-4.8-2.9-6.3c-2.1-2.5-5.3-3.8-9.5-3.8c-4.3,0-7.7,1.8-10.2,5.3c-2.5,3.5-3.7,8.5-3.7,15c0,6.5,1.3,11.3,3.9,14.5
		c2.6,3.2,5.9,4.8,10,4.8c4.1,0,7.3-1.4,9.4-4.1c1.2-1.5,2.2-3.7,3-6.7h12c-1,6.3-3.7,11.4-7.9,15.3c-4.2,3.9-9.7,5.9-16.3,5.9
		c-8.2,0-14.6-2.7-19.3-8c-4.7-5.3-7-12.7-7-22C935.2,774.2,937.9,766.5,943.2,761z"/>
	<path class="st3" d="M1007.5,812.7h-12V755h12V812.7z"/>
	<path class="st3" d="M1061.6,755v10.2h-17.2v47.4h-12.1v-47.4h-17.3V755H1061.6z"/>
	<path class="st3" d="M1080.2,755h13.6l20.4,57.6h-13.1l-3.8-11.8h-21.2l-3.9,11.8h-12.6L1080.2,755z M1079.4,790.9h14.8l-7.3-22.7
		L1079.4,790.9z"/>
	<path class="st3" d="M1122.3,755h12.6l22.9,40.2V755h11.2v57.6h-12l-23.5-40.9v40.9h-11.2V755z"/>
	<path class="st3" d="M1192.3,812.7h-12V755h12V812.7z"/>
	<path class="st3" d="M1247.1,765.2h-30.5v12.2h28v10h-28v14.8h31.9v10.4h-43.7V755h42.3V765.2z"/>
</g>
<g class="st2">
	<path class="st3" d="M364,897.6c-2.9,2.4-7,3.6-12.3,3.6h-10.2v17.6h-10.2v-49.1h21.1c4.9,0,8.7,1.3,11.6,3.8
		c2.9,2.5,4.3,6.4,4.3,11.8C368.3,891.1,366.9,895.2,364,897.6z M356.2,879.9c-1.3-1.1-3.1-1.6-5.5-1.6h-9.2v14.5h9.2
		c2.3,0,4.2-0.6,5.5-1.8c1.3-1.2,1.9-3,1.9-5.6C358.2,882.8,357.5,881,356.2,879.9z"/>
	<path class="st3" d="M403.8,869.8h11.6L399,900.5v18.4h-10.3v-18.4l-17-30.7h12.1l10.2,21.4L403.8,869.8z"/>
	<path class="st3" d="M452,871c1.8,0.8,3.3,1.9,4.6,3.4c1,1.2,1.9,2.6,2.5,4.1c0.6,1.5,0.9,3.2,0.9,5.2c0,2.3-0.6,4.6-1.8,6.9
		c-1.2,2.3-3.1,3.8-5.8,4.8c2.3,0.9,3.9,2.2,4.8,3.9c0.9,1.7,1.4,4.2,1.4,7.7v3.3c0,2.2,0.1,3.8,0.3,4.6c0.3,1.3,0.9,2.2,1.9,2.8
		v1.2h-11.3c-0.3-1.1-0.5-2-0.7-2.6c-0.3-1.4-0.4-2.8-0.4-4.2l-0.1-4.6c0-3.1-0.6-5.2-1.6-6.3c-1-1-3-1.6-5.8-1.6h-10v19.2h-10
		v-49.1h23.5C447.6,869.9,450.2,870.3,452,871z M430.8,878.3v13.2h11c2.2,0,3.8-0.3,4.9-0.8c1.9-0.9,2.9-2.8,2.9-5.5
		c0-3-0.9-5-2.8-6c-1.1-0.6-2.6-0.9-4.7-0.9H430.8z"/>
	<path class="st3" d="M505.3,878.5h-26v10.4h23.8v8.5h-23.8V910h27.2v8.8h-37.2v-49.1h36V878.5z M498.9,855.9l-10.1,10H482l6.4-10
		H498.9z"/>
	<path class="st3" d="M513.6,869.8h10.8l19.5,34.2v-34.2h9.6v49.1h-10.3l-20-34.8v34.8h-9.6V869.8z"/>
	<path class="st3" d="M598.6,878.5h-26v10.4h23.8v8.5h-23.8V910h27.2v8.8h-37.2v-49.1h36V878.5z M592.2,855.9l-10.1,10h-6.9l6.4-10
		H592.2z"/>
	<path class="st3" d="M643.3,878.5h-26v10.4h23.8v8.5h-23.8V910h27.2v8.8h-37.2v-49.1h36V878.5z"/>
	<path class="st3" d="M659.1,903.7c0.3,2.2,0.9,3.9,1.9,5c1.7,2,4.6,3,8.7,3c2.5,0,4.5-0.3,6-0.8c2.9-1,4.4-2.9,4.4-5.7
		c0-1.6-0.7-2.9-2.1-3.8c-1.4-0.9-3.7-1.6-6.8-2.3l-5.3-1.2c-5.2-1.2-8.8-2.4-10.8-3.8c-3.3-2.3-5-5.8-5-10.6c0-4.4,1.6-8,4.9-11
		s8-4.4,14.3-4.4c5.2,0,9.7,1.4,13.4,4.1c3.7,2.7,5.6,6.7,5.8,11.9h-9.9c-0.2-3-1.5-5-4-6.3c-1.6-0.8-3.7-1.2-6.1-1.2
		c-2.7,0-4.9,0.5-6.5,1.6c-1.6,1.1-2.4,2.6-2.4,4.5c0,1.8,0.8,3.1,2.4,3.9c1,0.6,3.2,1.3,6.5,2l8.6,2c3.8,0.9,6.6,2.1,8.5,3.6
		c2.9,2.3,4.4,5.6,4.4,10c0,4.5-1.7,8.2-5.2,11.2s-8.4,4.4-14.7,4.4c-6.5,0-11.5-1.5-15.2-4.4c-3.7-2.9-5.6-6.9-5.6-12H659.1z"/>
	<path class="st3" d="M692.8,895.4h18.6v9h-18.6V895.4z"/>
	<path class="st3" d="M751,869.8h14.8v49.1h-9.6v-33.2c0-1,0-2.3,0-4c0-1.7,0-3,0-4l-9.3,41.2h-10l-9.2-41.2c0,0.9,0,2.3,0,4
		c0,1.7,0,3.1,0,4v33.2h-9.6v-49.1h14.9l8.9,38.6L751,869.8z"/>
	<path class="st3" d="M810.8,878.5h-26v10.4h23.8v8.5h-23.8V910H812v8.8h-37.2v-49.1h36V878.5z M804.4,855.9l-10.1,10h-6.9l6.4-10
		H804.4z"/>
	<path class="st3" d="M848,870.8c3.4,1.1,6.2,3.2,8.4,6.2c1.7,2.4,2.9,5.1,3.5,7.9c0.6,2.8,0.9,5.6,0.9,8.1c0,6.5-1.3,12.1-3.9,16.6
		c-3.6,6.1-9,9.2-16.5,9.2h-21.2v-49.1h21.2C843.4,869.8,846,870.2,848,870.8z M829.2,878.3v32h9.5c4.8,0,8.2-2.4,10.1-7.2
		c1-2.6,1.6-5.7,1.6-9.4c0-5-0.8-8.8-2.4-11.5c-1.6-2.7-4.7-4-9.4-4H829.2z"/>
	<path class="st3" d="M877.1,918.9h-10.2v-49.1h10.2V918.9z"/>
	<path class="st3" d="M921.6,869.8v8.7h-14.7v40.4h-10.3v-40.4h-14.8v-8.7H921.6z"/>
	<path class="st3" d="M963.1,878.5h-26v10.4H961v8.5h-23.8V910h27.2v8.8h-37.2v-49.1h36V878.5z"/>
	<path class="st3" d="M1003,871c1.8,0.8,3.3,1.9,4.6,3.4c1,1.2,1.9,2.6,2.5,4.1c0.6,1.5,0.9,3.2,0.9,5.2c0,2.3-0.6,4.6-1.8,6.9
		c-1.2,2.3-3.1,3.8-5.8,4.8c2.3,0.9,3.9,2.2,4.8,3.9s1.4,4.2,1.4,7.7v3.3c0,2.2,0.1,3.8,0.3,4.6c0.3,1.3,0.9,2.2,1.9,2.8v1.2h-11.3
		c-0.3-1.1-0.5-2-0.7-2.6c-0.3-1.4-0.4-2.8-0.4-4.2l-0.1-4.6c0-3.1-0.6-5.2-1.6-6.3c-1-1-3-1.6-5.8-1.6h-10v19.2h-10v-49.1h23.5
		C998.6,869.9,1001.2,870.3,1003,871z M981.8,878.3v13.2h11c2.2,0,3.8-0.3,4.9-0.8c1.9-0.9,2.9-2.8,2.9-5.5c0-3-0.9-5-2.8-6
		c-1.1-0.6-2.6-0.9-4.7-0.9H981.8z"/>
	<path class="st3" d="M1051.5,871c1.8,0.8,3.3,1.9,4.6,3.4c1,1.2,1.9,2.6,2.5,4.1c0.6,1.5,0.9,3.2,0.9,5.2c0,2.3-0.6,4.6-1.8,6.9
		c-1.2,2.3-3.1,3.8-5.8,4.8c2.3,0.9,3.9,2.2,4.8,3.9s1.4,4.2,1.4,7.7v3.3c0,2.2,0.1,3.8,0.3,4.6c0.3,1.3,0.9,2.2,1.9,2.8v1.2H1049
		c-0.3-1.1-0.5-2-0.7-2.6c-0.3-1.4-0.4-2.8-0.4-4.2l-0.1-4.6c0-3.1-0.6-5.2-1.6-6.3c-1-1-3-1.6-5.8-1.6h-10v19.2h-10v-49.1h23.5
		C1047.1,869.9,1049.7,870.3,1051.5,871z M1030.3,878.3v13.2h11c2.2,0,3.8-0.3,4.9-0.8c1.9-0.9,2.9-2.8,2.9-5.5c0-3-0.9-5-2.8-6
		c-1.1-0.6-2.6-0.9-4.7-0.9H1030.3z"/>
	<path class="st3" d="M1082.6,869.8h11.6l17.4,49.1h-11.1l-3.2-10.1h-18.1l-3.3,10.1h-10.7L1082.6,869.8z M1081.9,900.3h12.6
		l-6.2-19.3L1081.9,900.3z"/>
	<path class="st3" d="M1116.9,869.8h10.8l19.5,34.2v-34.2h9.6v49.1h-10.3l-20-34.8v34.8h-9.6V869.8z"/>
	<path class="st3" d="M1201.8,878.5h-26v10.4h23.8v8.5h-23.8V910h27.2v8.8h-37.2v-49.1h36V878.5z M1195.4,855.9l-10.1,10h-6.9
		l6.4-10H1195.4z"/>
	<path class="st3" d="M1246.6,878.5h-26v10.4h23.8v8.5h-23.8V910h27.2v8.8h-37.2v-49.1h36V878.5z"/>
</g>
</svg>
