<?xml version="1.0" encoding="utf-8"?>
<!-- Generator: Adobe Illustrator 25.2.1, SVG Export Plug-In . SVG Version: 6.00 Build 0)  -->
<svg version="1.1" id="Layer_1" xmlns="http://www.w3.org/2000/svg" xmlns:xlink="http://www.w3.org/1999/xlink" x="0px" y="0px"
	 viewBox="0 0 1569.9 1110" style="enable-background:new 0 0 1569.9 1110;" xml:space="preserve">
<style type="text/css">
	.st0{fill:#FEFEFE;}
	.st1{fill:#AA080E;}
	.st2{fill:#FDFBFB;}
	.st3{fill:#F8DA00;}
	.st4{fill:#FBF6F7;}
</style>
<g>
	<path class="st0" d="M320.3,554.8c0,149,0,298-0.1,447c0,2.5,0.4,3.2,3.1,3.2c297.8-0.1,595.6-0.1,893.4-0.1c3.4,0,3.4,0,3.4-3.4
		c0-297.8,0-595.6,0.1-893.4c0-2.7-0.8-3.1-3.2-3.1c-297.9,0.1-595.8,0.1-893.7,0c-2.6,0-3.1,0.6-3.1,3.1
		C320.3,257,320.3,405.9,320.3,554.8z"/>
	<path class="st1" d="M320.3,554.8c0-148.9,0-297.8-0.1-446.7c0-2.5,0.6-3.1,3.1-3.1c297.9,0.1,595.8,0.1,893.7,0
		c2.4,0,3.2,0.4,3.2,3.1c-0.1,297.8-0.1,595.6-0.1,893.4c0,3.4,0,3.4-3.4,3.4c-297.8,0-595.6,0-893.4,0.1c-2.7,0-3.1-0.7-3.1-3.2
		C320.3,852.8,320.3,703.8,320.3,554.8z M742.3,405.1c2.4,0,4.7,0,7.1,0c4.6,0,4.6,0,4.6-4.6c0.4-20.2-1.6-40.2-5.5-60
		c-5.3-27.2-14.1-53.2-27.6-77.5c-1.8-3.2-1.8-3.2,1.4-5.1c27.6-16.6,51.1-37.4,67.7-65.4c3.1-5.2,4.4-10.6,3.5-16.5
		c-1.5-9.4-8.8-17-17.9-18.9c-9.5-2-19.3,2-24.5,10c-5.3,8.2-5,18.6,0.8,26.4c1.2,1.6,1,2.4-0.2,3.8c-14.7,16.9-32.3,29.9-51.9,40.5
		c-2,1.1-2.6,0.9-3.8-1.1c-5.3-9.2-15.9-13.6-25.9-10.9c-10.3,2.8-17.5,11.7-17.5,22.3c0.1,8.8,3.9,15.9,11.7,20.3
		c7.8,4.5,15.9,4.2,23.6-0.3c1.5-0.9,2.2-0.8,3.1,0.7c4.5,7.4,8.6,14.9,12.2,22.8c11.8,26.2,18.2,53.8,21.2,82.3
		c0.2,2-0.7,2-2.1,1.9c-12.4-1.3-24.6-3.2-36.7-6c-23.8-5.5-46.4-13.9-67.3-26.7c-2.1-1.3-2.7-2.1-1.3-4.5
		c8.4-15.1-2.5-34.3-20.9-34.1c-10.8,0.1-19.5,7.5-22.1,18c-2.5,10.2,2.2,20.5,11.7,25.7c1.5,0.8,1.6,1.4,0.9,2.8
		c-4,7.7-8.4,15.2-13.4,22.4c-8.2,11.9-17.4,22.9-29.1,31.6c-1.4,1-2.3,1.2-3.6-0.1c-5.1-4.5-11-6.3-17.8-5.7
		c-13.1,1.2-22.9,14.3-20.3,27.2c3.6,18.1,24.5,25.3,38.4,13.1c1.3-1.1,2-1,3.2-0.1c3.5,2.6,6.8,5.3,9.9,8.3
		c13.7,13.4,24,29.2,32.9,46c1.1,2-0.3,2.2-1.4,2.8c-11.3,6.3-15.3,20.4-9.1,31.6c6.2,11.1,20.4,15.3,31.4,9.2
		c11.4-6.3,15.6-20.5,9.1-31.7c-1.1-2-0.9-2.7,1-3.8c20.8-12.9,43.3-21.3,67-26.8c12.4-2.9,24.9-4.9,37.5-6.2
		c2.1-0.2,2.4,0.4,2.2,2.3c-1.3,11.5-3,23-5.5,34.3c-5.6,24.8-14.2,48.4-27.7,70.1c-1,1.6-1.6,1.8-3.4,0.8c-8.7-5-17.3-4.6-25.5,1.1
		c-7.6,5.3-11.1,14.8-9,23.9c2.2,9.3,9.6,16.4,18.7,17.8c10,1.5,19.4-2.9,24.2-11.7c1-1.7,1.7-1.8,3.2-0.9c2.1,1.3,4.3,2.3,6.4,3.6
		c17.1,9.9,32.6,21.9,45.6,36.8c1.3,1.5,1.7,2.6,0.3,4.4c-3.1,3.9-4.4,8.5-4.4,13.5c0,9.8,6.1,18.5,15.4,21.8
		c9.2,3.3,19.2,0.5,25.7-7.1c6.1-7.1,7.1-18,2.4-26.1c-4.6-7.9-9.7-15.5-15.6-22.5c-15.2-18.3-33.5-32.9-54-44.9c-1.8-1-2-1.8-1-3.6
		c9.3-16.2,16.2-33.4,21.5-51.3c5.6-18.8,9.2-38.1,11.1-57.6c1-10.5,1.2-21.1,1-31.7c0-1.8-0.4-2.5-2.4-2.4c-3.7,0.2-7.4,0-11.2,0
		c-17.7,0-35.2,2.2-52.6,5.7c-27,5.4-52.9,14.1-76.9,27.8c-2,1.2-2.7,0.7-3.7-1.1c-10.1-17.7-22-34.1-37.3-47.8
		c-1.5-1.3-1.5-1.9,0-3.2c8.7-7.6,16.2-16.3,23-25.6c5.3-7.2,10.2-14.8,14.5-22.6c0.9-1.6,1.6-1.8,3.1-0.8c1.4,0.9,2.9,1.7,4.4,2.5
		C654.8,394.9,697.6,404.1,742.3,405.1z M800.9,422.3c0,57.7,0,115.4,0,173.2c0,0.8,0,1.5,0,2.3c0.4,10,9.6,16.9,19,14.1
		c6.6-1.9,10.7-7.7,10.7-15.2c0-116.2,0-232.4,0-348.6c0-0.3,0-0.7,0-1c-0.4-9.8-8.4-16.3-17.9-14.5c-7.1,1.3-11.8,7.6-11.8,15.6
		C800.9,306.2,800.9,364.3,800.9,422.3z M865.8,422.4c0,49.9,0,99.9,0,149.8c0,6.9,4.6,12.8,11.1,14.3c7,1.6,13.9-1.6,17-8.1
		c1.2-2.6,1.5-5.3,1.5-8.2c0-98.6,0-197.2,0-295.8c0-0.9,0-1.9-0.1-2.8c-0.6-6-3.6-10.4-9.2-12.7c-9.9-4.1-20.3,3-20.3,13.8
		C865.8,322.7,865.8,372.5,865.8,422.4z M959.9,422.3c0-31.1,0-62.1,0-93.2c0-9.9-8.9-16.8-18.5-14.3c-6.8,1.8-11,7.5-11,15.2
		c0,35,0,70.1,0,105.1c0,26.5,0,53,0,79.5c0,3.3,0.6,6.4,2.5,9.2c3.7,5.5,10.4,8,16.7,6c6.4-1.9,10.4-7.4,10.4-14.3
		C959.9,484.4,959.9,453.3,959.9,422.3z M483.7,786.1c-3.8,0-8.4,0.5-12.9,1.6c-35.4,8.5-50,50.6-26.8,78.4
		c13.5,16.2,31.5,21.2,51.9,17.5c30.1-5.5,47.9-36.3,37.7-64.7C526.6,799.1,507.1,786.1,483.7,786.1z M862.4,874.7
		c0,2.8,0.1,5,0,7.1c-0.1,1.9,0.6,2.3,2.3,2.2c3.5-0.1,6.9-0.1,10.4,0c1.9,0.1,2.5-0.4,2.4-2.4c-0.2-4.9-0.2-9.8-0.2-14.7
		c-0.1-11.4,0.4-22.9-0.3-34.3c-0.6-9.8-5.4-17.3-14.8-20.5c-16-5.5-31.1-2.7-45.4,5.8c-1.1,0.7-0.8,1.2-0.3,2
		c1.4,2.3,2.8,4.6,4.1,7c0.9,1.7,1.6,2,3.4,0.9c6.7-4.2,14-6.7,22.1-6.1c10.4,0.7,16,6.2,16.1,15.5c0,2.2-0.5,2.8-2.7,2.8
		c-9,0.1-18.1-0.8-27.1,0.5c-8.4,1.2-15.7,4.5-19.3,12.8c-4.8,11.1-0.3,26.3,15.5,30.2C840.9,886.6,852.5,884.6,862.4,874.7z
		 M1049.3,852.8c1.1,0,2,0,2.9,0c17.1,0,34.2,0,51.3,0c1.8,0,2.6-0.4,2.6-2.3c-0.1-4.1,0-8.1-0.6-12.2c-1.5-9.7-5.1-18.2-13.8-23.7
		c-5.8-3.7-12.3-5-19.1-5.1c-14.7-0.1-26.9,5-33.9,18.5c-7.2,13.9-6.9,28.1,1.8,41.4c6.1,9.3,15.4,13.7,26.2,14.8
		c12.5,1.3,23.8-1.5,33.5-10c1.6-1.4,1.9-2.4,0.1-3.9c-1.8-1.5-3.4-3.3-4.9-5.1c-0.9-1-1.5-1.3-2.6-0.2c-2.4,2.3-5.3,3.9-8.4,5.1
		C1069.6,876.1,1052.7,870.1,1049.3,852.8z M917.8,824c0-4-0.1-8,0-11.9c0-1.6-0.5-2-2-2c-3.7,0.1-7.4,0.1-11.2,0
		c-1.7-0.1-2.1,0.4-2.1,2.1c0.1,23.2,0.1,46.4,0,69.5c0,1.7,0.4,2.4,2.2,2.3c3.5-0.1,6.9-0.2,10.4,0c2.1,0.1,2.7-0.5,2.7-2.6
		c-0.1-11.7-0.1-23.4,0-35c0-4.1,1-8,2.9-11.7c4.5-8.5,14.6-12.7,24.3-10.3c8.5,2.1,12.9,8.5,12.9,19c0,12.7,0,25.4,0,38.1
		c0,2,0.6,2.6,2.6,2.5c3.5-0.2,7.1-0.1,10.7,0c1.8,0.1,2.3-0.4,2.3-2.2c-0.1-14.6,0.1-29.3-0.1-43.9c-0.2-18.6-11.2-29-29.7-28.3
		c-9.9,0.4-18.2,4-23.9,12.5C919.2,822.8,918.9,823.7,917.8,824z M549.7,847.2c0,17.5,9.5,31,25.4,35.7c9.1,2.7,18.2,2.2,27.2-0.7
		c5.8-1.9,10.6-5.1,14.7-9.6c1-1.1,1.1-1.8-0.1-2.9c-2.1-1.9-4.2-4-6.2-6c-0.8-0.8-1.2-0.7-1.9,0.1c-4.8,4.8-10.9,6.9-17.6,7.5
		c-11.6,1.1-20.6-3.9-24.3-13.7c-2.7-7-2.7-14.2,0.2-21.3c2.9-7,8.1-11.5,15.5-13c9.1-1.8,17.5,0.1,24.7,6.2c1.7,1.4,2.4,1,3.5-0.4
		c1.6-2.1,3.3-4.1,5.1-6c1.5-1.5,1.3-2.5-0.2-3.8c-11.5-9.9-24.9-11.9-39-8.5C559.8,814.9,549.7,829.1,549.7,847.2z M667.1,884.7
		c1.4-0.1,3.7-0.2,5.9-0.5c8.8-1.2,16.6-4.5,22.7-11.2c1.2-1.3,1.3-2.1,0-3.3c-2-1.8-3.9-3.7-5.8-5.7c-0.8-0.8-1.2-1-2.1-0.1
		c-4.7,4.7-10.6,6.8-17.1,7.5c-7.6,0.8-14.7-0.6-20.2-6.4c-5.1-5.4-6.7-12-6.5-19.2c0.3-11.1,7.1-20.1,17.3-22.2
		c9.2-1.9,17.6,0.1,25,6.1c1.4,1.1,2.1,1.5,3.3-0.2c1.5-2.1,3.2-4.1,5.1-6c1.7-1.6,1.5-2.7-0.2-4.2c-11.5-9.7-24.8-11.6-38.9-8.4
		c-15,3.4-24.5,14.7-26.5,31.2C626.1,865.6,641.3,884.6,667.1,884.7z M760.6,846.2C760.7,846.2,760.7,846.2,760.6,846.2
		c0.1,6.8-0.1,13.5,0.1,20.3c0.4,9,5.8,15.4,14.3,17.5c8.1,1.9,15.6,0,22.7-3.8c1.1-0.6,1.1-1.3,0.7-2.3c-1-2.7-1.9-5.4-2.7-8.2
		c-0.4-1.5-1-1.7-2.3-1.1c-2.6,1.1-5.4,2.1-8.3,2.3c-5.9,0.4-9.2-2.2-9.3-8c-0.3-12.4-0.2-24.9-0.2-37.3c0-1.7,1.1-1.4,2-1.4
		c6,0,12-0.1,18,0c1.7,0,2.2-0.5,2.1-2.1c-0.1-2.2-0.2-4.4,0-6.6c0.1-1.9-0.3-2.6-2.4-2.5c-5.7,0.2-11.3-0.1-17,0.1
		c-2.4,0.1-2.8-0.7-2.7-2.9c0.1-5.2,0-10.5,0.1-15.7c0-1.6-0.3-2.2-2.1-2.2c-3.6,0.1-7.3,0.1-10.9,0c-1.6,0-2.2,0.4-2.2,2.1
		c0.1,5.6,0,11.2,0.1,16.8c0,1.4-0.4,1.9-1.9,1.9c-2.3-0.1-4.6,0.1-6.9-0.1c-1.6-0.1-2,0.5-1.9,2c0.1,2.4,0.1,4.7,0,7.1
		c-0.1,1.6,0.3,2.3,2.1,2.2c2.2-0.2,4.4,0.1,6.6-0.1c1.6-0.1,2,0.4,2,2C760.6,832.9,760.6,839.5,760.6,846.2z M1034.1,422.2
		c0-12.8-10.1-23.3-23.2-23.3c-14.2,0-23.4,11.9-23.2,23.2c0.2,13,10.3,23.2,23.2,23.2C1023.7,445.4,1034,435.1,1034.1,422.2z
		 M582.7,758.2c0-1.1-0.7-1.7-1.1-2.4c-3.1-4.7-6.2-9.5-9.3-14.2c-0.7-1-0.9-1.5,0.4-2.2c7.4-4.4,10.5-11.9,8.7-21.2
		c-1.4-7.1-6.8-12.2-15.1-13.3c-8.9-1.2-17.9-0.6-26.8-0.8c-1.7,0-1.3,1.2-1.3,2.1c-0.1,6.9-0.1,13.9-0.2,20.8
		c-0.1,9.6-0.1,19.3-0.2,28.9c0,1.8,0.4,2.4,2.2,2.3c2.1-0.1,4.2,0,6.3,0.1c1.2,0.1,1.6-0.3,1.6-1.6c0-4.2,0.1-8.5,0-12.7
		c0-1.3,0.3-2,1.8-2c3.5,0.1,7.1,0.1,10.7,0c1.4,0,2.1,0.6,2.8,1.8c2.5,4.3,5.1,8.6,7.7,12.8c0.5,0.8,0.9,1.6,2.1,1.5
		C576.2,758.1,579.4,758.2,582.7,758.2z M665.6,722.4c-2.5-2.9-5.2-4.5-8.3-5.2c-8.9-2-17.3,1.6-20.9,9c-4.2,8.3-2.3,20.1,4,25.6
		c7.2,6.2,17.2,5.9,25.1-0.7c1.1,7.7-2.8,13-10,13.8c-3.5,0.4-6.9-0.2-10.1-1.7c-1.6-0.7-3.3-2.9-4.6-2.3c-1.5,0.7-2.1,3.1-3.2,4.7
		c-1.1,1.5-0.6,2.2,0.9,3.1c5.6,3.4,11.7,4.8,18.2,4.3c11.8-0.9,18.8-8.4,18.8-20.3c0-10.1,0.1-20.1,0.1-30.2c0-5.5,0-5.5-5.5-5.6
		c-4.1-0.1-4.1-0.1-4.2,4C665.7,721.2,665.7,721.5,665.6,722.4z M715.1,846.9c0,11.6,0,23.2,0,34.8c0,1.9,0.4,2.5,2.4,2.4
		c3.5-0.2,7.1-0.1,10.7,0c1.5,0,2.2-0.2,2.2-2c-0.1-23.3-0.1-46.5,0-69.8c0-1.6-0.4-2.2-2.1-2.1c-3.6,0.1-7.3,0.1-10.9,0
		c-1.8-0.1-2.3,0.5-2.3,2.3C715.1,823.9,715.1,835.4,715.1,846.9z M998.4,847c0,11.6,0,23.2,0,34.8c0,1.7,0.4,2.4,2.2,2.3
		c3.6-0.1,7.3-0.1,10.9,0c1.7,0.1,2.1-0.5,2.1-2.2c-0.1-4.9,0-9.8,0-14.7c0-18.2,0-36.4,0-54.6c0-2-0.5-2.6-2.5-2.5
		c-3.5,0.2-6.9,0.2-10.4,0c-2-0.1-2.3,0.6-2.3,2.4C998.5,824,998.4,835.5,998.4,847z M613.4,741.4
		C613.4,741.4,613.4,741.5,613.4,741.4c3.1,0.1,6.3,0.1,9.4,0.1c6,0,6.1,0,5.8-6c-0.4-7-2.5-13.2-9.2-16.7c-8-4.1-19.2-2.3-25.2,3.8
		c-6.1,6.2-7.5,17.5-3.3,25.5c6.5,12.5,24.3,12.4,32.6,6c3.6-2.7,3.6-2.7,0.6-6.1c-0.3-0.4-0.7-0.7-1-1.1c-0.9-1.3-1.7-1.6-2.9-0.3
		c-1.5,1.6-3.6,2.5-5.7,3.1c-6.7,2-13.3-1-15.4-6.7c-0.5-1.4-0.3-1.8,1.2-1.8C604.6,741.5,609,741.4,613.4,741.4z M497.6,754.5
		c0.2,3.6,0.2,3.6,3.8,3.7c1.3,0,2.5,0,3.8,0.1c1.6,0.2,2.1-0.4,2.1-2.1c-0.1-8.5-0.1-17.1-0.1-25.6c-0.1-6.5-3.7-11.3-10-13
		c-6.5-1.7-12.9-1.2-19.1,1.5c-5.9,2.5-5.8,2.5-2.8,8c1,1.8,1.7,1.6,3.2,0.7c4.4-2.7,9.1-4,14.3-2.6c2.8,0.8,4.4,2.6,4.9,5.5
		c0.3,1.6-0.1,2.2-1.9,2.2c-4.6,0-9.3-0.3-13.9,0.4c-6,0.9-10.3,4.6-11.1,9.5c-1,5.9,1.3,11.1,6.3,13.7c3,1.6,6.2,2,9.6,1.8
		C490.6,758.3,494.3,757,497.6,754.5z M764.8,722.9c0-6,0-6-5.5-6.1c-0.7,0-1.4,0.1-2,0c-1.8-0.3-2.3,0.4-2.3,2.2
		c0,10.6-0.1,21.2-0.1,31.7c0,2.4-1.1,5.7,0.5,7c1.5,1.2,4.7,0.3,7.1,0.5c1.8,0.2,2.3-0.5,2.2-2.2c-0.1-6.4-0.1-12.9,0-19.3
		c0.1-6.5,4.9-11.1,11.2-11c5.9,0.1,8.9,3.7,8.9,10.8c0,4.7-0.2,9.3-0.1,14c0,2.5-1.1,6,0.5,7.2c1.7,1.3,5,0.4,7.6,0.5
		c1.1,0,1.7-0.2,1.7-1.5c-0.2-9,0.4-18.1-0.3-27.1c-0.5-6.5-5.1-11.4-11.4-12.5C776,715.9,769.8,717.1,764.8,722.9z M725.5,758.4
		c11.8,0,19.7-6.8,21.3-18.2c1.3-9.4-3.6-18.3-12.1-21.8c-9.5-3.9-21.3-1.3-26.6,6.3c-5,7.2-5.4,15.1-1.6,22.8
		C710.2,755.3,717.2,758.3,725.5,758.4z M759.6,936.4c-0.3-0.4-0.4-0.6-0.5-0.7c-3.3-6.6-7-13.2-9.8-20c-1.8-4.2-4.1-5.7-8.5-5.2
		c-1.9,0.2-2.3,0.7-2.3,2.5c0.1,11,0,22,0,33c0,4.2,0,4.1,4.1,4.2c2,0.1,2.3-0.7,2.3-2.5c-0.1-5.2,0-10.3,0-15.5c0-3.4,0-6.8,0-10.4
		c0.9,0.4,1,1.1,1.2,1.6c3.4,7,6.9,13.9,10.3,20.9c0.7,1.4,1.5,1.8,2.9,1.7c1.4,0,2.5-0.1,3.2-1.7c1.8-4.1,3.9-8.1,5.9-12.1
		c1.7-3.4,3.4-6.8,5.1-10.3c0.4,0.6,0.4,1.1,0.4,1.6c0.1,8.1,0.1,16.2,0.1,24.4c0,1.6,0.4,2.4,2.1,2.1c0.4-0.1,0.9-0.1,1.3,0
		c2.2,0.3,3-0.4,3-2.8c-0.1-10.7-0.1-21.3-0.1-32c0-4.8,0-4.6-4.7-4.8c-2.6-0.2-3.8,0.8-4.9,3.1
		C767.3,921.1,763.5,928.5,759.6,936.4z M433.1,731.1C433.1,731.1,433,731.1,433.1,731.1c-0.1,8.3,0,16.6-0.1,24.9
		c0,1.8,0.4,2.3,2.2,2.3c8-0.1,15.9,0,23.9,0c7.1,0,7,0,7-7c0-1.7-0.5-2.1-2.1-2.1c-6.3,0.1-12.5-0.1-18.8,0c-1.6,0-2.3-0.4-2.2-2.1
		c0.1-1.8,0-3.6,0-5.3c0.1-11.7,0.1-23.4,0.2-35c0-1.7-0.3-2.4-2.2-2.3c-1.8,0.1-3.7,0-5.6-0.2c-1.9-0.2-2.4,0.4-2.4,2.3
		C433.2,714.7,433.1,722.9,433.1,731.1z M844.8,946.3c0.8,0.4,0.7,1,0.6,1.5c-0.3,2,0.6,2.6,2.4,2.3c0.5-0.1,1-0.1,1.5,0
		c2.3,0.4,2.8-0.6,2.8-2.8c-0.1-11.6-0.1-23.2-0.1-34.7c0-4.6,0-4.5-4.5-4.6c-1.9,0-2.2,0.7-2.2,2.3c0.1,3.7,0.1,7.4,0,11.2
		c0,0.7,0.4,1.7-0.4,2c-0.7,0.3-1.1-0.6-1.6-1c-7.1-5.7-18.2-2.9-21.6,5.6c-1.2,3.1-1.4,6.2-1.1,9.5c0.9,7.7,6.5,12.6,14.2,12.7
		C838.9,950.4,842.1,949,844.8,946.3z M434.1,930.3c0,5,0,10,0,15c0,4.9,0,4.8,5,4.8c1.7,0,2-0.7,1.9-2.1c-0.1-2.3,0.2-4.6-0.1-6.8
		c-0.3-2.6,0.7-3.1,3.1-3c3,0.2,6.1,0.1,9.1-0.2c6.2-0.6,10.6-4.2,11.9-9.7c2.4-9.9-3-17.2-13.2-17.7c-5.4-0.2-10.8,0-16.2-0.1
		c-1.5,0-1.6,0.7-1.6,1.8C434.1,918.3,434.1,924.3,434.1,930.3z M994.6,946.7c-0.7,3.2,0.6,3.7,2.6,3.4c0.7-0.1,1.4-0.1,2,0
		c1.3,0.2,1.7-0.4,1.7-1.7c-0.1-6.2,0.1-12.4-0.1-18.5c-0.1-4.8-2.8-8.4-7.3-9.5c-5.7-1.4-11.2-0.6-16.4,2.3c-1.7,1-1.1,1.9-0.3,2.7
		c0.8,0.9,0.5,3.5,3,1.9c2.9-1.8,6.1-2.6,9.5-2c2.5,0.4,4.2,1.6,4.9,4.2c0.4,1.6,0.2,2.5-1.9,2.4c-3.6-0.1-7.3-0.4-10.9,0.4
		c-5.1,1.2-7.8,4.6-7.5,9.3c0.3,4.6,4,8.2,8.8,8.6C987,950.5,990.8,950.1,994.6,946.7z M1016.4,924.8c-0.5-5-0.5-4.8-4.5-5
		c-2-0.1-2.4,0.6-2.4,2.4c0.1,7.9,0,15.7,0,23.6c0,4.3,0,4.2,4.2,4.3c1.9,0,2.5-0.4,2.4-2.4c-0.1-4.6-0.2-9.1,0-13.7
		c0.2-5,4-8.3,8.9-8c4.4,0.2,6.5,2.9,6.5,8.2c0,3.7,0,7.4,0,11.2c0,5.1,0,5.1,5.1,4.7c1-0.1,1.6-0.3,1.5-1.4
		c-0.1-6.6,0.4-13.2-0.3-19.8c-0.5-4.9-3.5-8.1-8.3-8.9C1024.7,919.2,1020,920.1,1016.4,924.8z M1062.1,937.6c3.2,0,6.4,0,9.6,0
		c0.8,0,1.6,0.1,1.7-1c0.1-4.6-0.1-9.2-3.5-12.8c-6.4-6.9-19.8-4.7-24.1,3.8c-3.2,6.4-1.9,14.7,3.1,19.2c5,4.4,14.2,4.9,20.2,0.9
		c3.1-2.1,3.1-2.3,0.6-5c-1.1-1.2-1.8-0.8-2.9,0c-5.6,4-13,2.5-15.4-3c-0.6-1.3-0.7-2.2,1.3-2.1
		C1055.8,937.7,1058.9,937.6,1062.1,937.6z M644.2,937.6c3.2,0,6.4,0,9.6,0c0.7,0,1.4,0.2,1.7-1c1.8-7.9-3.8-15.8-11.9-16.8
		c-7.6-0.9-14.1,2.7-16.6,9.3c-2.6,6.9-0.3,14.9,5.2,18.6c5.8,3.9,15.3,3.2,20.4-1.3c1.1-1,0.9-1.5,0.1-2.6
		c-1.5-1.9-2.8-2.7-4.7-0.6c-0.1,0.1-0.3,0.2-0.4,0.3c-5.3,3-11.6,1.3-14.1-3.6c-0.8-1.6-0.9-2.5,1.4-2.4
		C638.1,937.7,641.1,937.6,644.2,937.6z M540.5,937.6c2.4,0,4.7,0,7.1,0c4.6,0,4.6,0,4.3-4.6c-0.4-4.9-1.9-9.4-6.8-11.7
		c-5.2-2.4-10.6-2.3-15.6,0.6c-5.6,3.3-7.4,8.6-6.9,14.7c0.5,6.1,3.5,10.8,9.6,12.7c6.3,2,12.2,1.1,17.3-3.3c0.4-0.3,1-0.7,0.5-1.2
		c-0.9-1.1-1.8-2.3-3-3.1c-0.9-0.5-1.5,0.8-2.3,1.2c-5.4,3.5-12.4,2-14.9-3.3c-0.7-1.5-0.7-2.3,1.3-2.2
		C534.4,937.7,537.5,937.6,540.5,937.6z M915.4,937.6c3.2,0,6.4,0,9.6,0c0.7,0,1.5,0.3,1.8-0.9c1.8-7.2-3.1-15.2-10.4-16.6
		c-7.7-1.5-14.7,1.7-17.6,8.2c-3,6.8-1,15.3,4.5,19.2c5.8,4.1,15.6,3.6,20.8-1.1c0.4-0.4,1.4-0.8,0.8-1.6c-0.9-1.1-1.8-2.3-3-3
		c-0.8-0.5-1.5,0.8-2.2,1.3c-5.5,3.5-12.7,1.8-14.9-3.6c-0.6-1.4-0.4-2,1.3-1.9C909.2,937.6,912.3,937.6,915.4,937.6z M1095.2,937.6
		c2.6,0,5.2,0,7.9,0c3.6,0,3.6,0,3.4-3.7c-0.4-7.9-3.8-12.4-10.3-13.8c-11-2.3-19.2,4.7-19,16c0.1,5.9,3.7,11,8.9,13.1
		c5.9,2.3,14.2,0.9,17.9-3c0.4-0.4,1-0.9,0.5-1.5c-0.9-1-1.7-2.2-2.8-2.9c-0.9-0.5-1.5,0.8-2.3,1.3c-1.9,1.1-3.9,1.7-6,1.9
		c-3.7,0.2-7.6-2.1-8.8-5.3c-0.5-1.4-0.6-2.2,1.3-2.1C1088.9,937.7,1092.1,937.6,1095.2,937.6z M805.3,937.6c2.3,0,4.6,0,6.8,0
		c5.1,0,5,0,4.6-5.1c-0.5-5.8-2.8-10.4-8.8-12c-11.1-3.1-21,3.6-20.4,15.4c0.3,6.2,3.4,11.1,8.9,13.3c5.9,2.3,14.1,1,17.9-2.9
		c0.4-0.4,1.2-0.8,0.6-1.4c-0.9-1.1-1.8-2.3-3-3.1c-0.7-0.5-1.3,0.8-2,1.2c-5.5,3.6-12.5,2.2-15-3.2c-0.7-1.5-0.8-2.3,1.3-2.1
		C799.2,937.7,802.2,937.6,805.3,937.6z M610.9,937.6c3.2,0,6.4,0,9.6,0c1.3,0,1.9-0.3,1.9-1.7c0-8.3-2.7-16.2-14.3-16.2
		c-7.2,0.1-12.8,4.1-14.5,10.7c-1.9,7.2,0.7,14.5,6.4,17.7c6,3.4,15.3,2.5,19.7-1.9c0.4-0.4,1.2-0.8,0.8-1.4
		c-0.8-1.1-1.8-2.3-2.9-3.1c-0.8-0.6-1.4,0.7-2,1.1c-5.5,3.7-12.6,2.2-15.1-3.1c-0.7-1.5-0.8-2.3,1.3-2.2
		C604.8,937.7,607.9,937.6,610.9,937.6z M565.3,925c-0.2-5.1-0.2-5-4.1-5.1c-2.1-0.1-2.7,0.4-2.7,2.6c0.1,7.8,0.1,15.6,0.1,23.3
		c0,4.4,0,4.3,4.4,4.3c1.8,0,2.3-0.5,2.2-2.3c-0.1-4.6-0.1-9.1,0-13.7c0.1-4.8,3.8-8.2,8.6-8.1c4.6,0.1,6.8,2.7,6.8,8.1
		c0,3.7,0,7.4,0,11.2c0,5.1,0,5.1,5,4.8c1.2-0.1,1.6-0.4,1.6-1.6c0-6.2,0.1-12.4-0.1-18.5c-0.2-5.4-3.2-8.9-8.2-9.9
		C573.8,919.1,569,920,565.3,925z M483.7,942.4c-2.5-6.4-4.9-12.3-7.3-18.3c-1.7-4.3-1.7-4.2-6.2-4.3c-2,0-2.3,0.4-1.5,2.2
		c3.7,8.5,7.2,17.1,10.8,25.7c0.3,0.7,0.8,1.4,0.5,2.4c-1.1,4.2-4.1,5.8-8,4.1c-0.9-0.4-1.3-0.4-1.8,0.5c-0.4,0.8-0.7,1.6-1.2,2.2
		c-1.1,1.5-0.7,2.3,0.8,3.1c5.5,3,12,0.9,14.6-5c1.7-3.8,3.1-7.7,4.7-11.5c2.9-7.2,5.8-14.4,8.6-21.6c0.2-0.6,1.3-1.5-0.2-2
		c-3.3-1-5.8,0.2-6.9,3.4c-0.3,0.7-0.5,1.4-0.8,2.1C487.9,931,485.9,936.5,483.7,942.4z M696,737.7c0.1,0,0.1,0,0.2,0
		c0-2.3,0-4.6,0-6.8c0-2.4,0-4.7,0-7.1c-0.1-2.2,1-5.2-0.4-6.3c-1.4-1.2-4.4-0.4-6.6-0.7c-2.5-0.3-2.9,0.8-2.9,3
		c0,10.6,0,21.1-0.1,31.7c-0.1,6.7-0.1,6.7,6.6,6.7c0.4,0,0.9-0.1,1.3,0c1.6,0.2,2-0.4,2-2C695.9,750,696,743.9,696,737.7z
		 M671.2,950.3c1.2,0,3.2-0.2,5.1-1c4.1-1.6,6-4.6,5.7-8.8c-0.2-3.2-2-5.2-4.7-6.7c-2.9-1.5-6.1-1.9-9-3.3c-1.2-0.6-2.2-1.4-2-2.9
		c0.2-1.6,1.4-2.2,2.9-2.4c2.5-0.4,5,0,7.1,1.2c2.5,1.4,3.6,0.7,4.6-1.7c0.6-1.5,0.7-2.2-0.9-2.9c-4-1.8-8.2-2.6-12.6-1.6
		c-4.7,1.1-7.1,3.6-7.4,7.8c-0.3,4.1,1.7,6.8,6.1,8.5c2.1,0.8,4.4,1.4,6.5,2.2c1.7,0.7,3.3,1.6,2.9,3.8c-0.4,2.1-2.2,2.5-3.9,2.6
		c-3.3,0.2-6.3-0.8-9.2-2.5c-0.7-0.4-1.7-1.9-2.2,0c-0.4,1.5-3.1,2.9-0.4,4.7C663,949.3,666.5,950.2,671.2,950.3z M879,935.4
		C879,935.4,879,935.4,879,935.4c0,2.5-0.1,5.1,0.1,7.6c0.2,3.9,2.9,6.8,6.6,7.2c2.4,0.3,4.7-0.1,7-0.9c3.1-1,1.5-2.8,1.2-4.5
		c-0.4-2.3-1.7-1.3-2.9-0.9c-3.7,1.2-5.3,0.1-5.4-3.8c-0.1-2.4-0.1-4.9,0-7.4c0.1-2.2-1-4.9,0.5-6.3c1.3-1.3,4.1-0.5,6.1-0.3
		c2.1,0.2,2.3-0.8,2.2-2.5c-0.1-1.5,0.2-2.8-2.2-2.6c-2.1,0.2-4.8,0.7-6.2-0.3c-1.6-1.1-0.4-3.9-0.6-6c0-0.1,0-0.2,0-0.3
		c0.1-1-0.3-1.4-1.4-1.5c-5.1-0.4-5.1-0.5-5.1,4.7c0,0.3,0,0.7,0,1c0.3,1.8-0.3,2.8-2.3,2.5c-2.2-0.4-2,1.1-2,2.5
		c0,1.4-0.1,2.8,2,2.5c1.7-0.3,2.4,0.4,2.3,2.2C878.9,930.6,879,933,879,935.4z M962.5,924.9c-0.2-0.7-0.4-0.9-0.4-1.1
		c-0.3-3.9-0.3-3.8-4.2-3.9c-2-0.1-2.6,0.4-2.6,2.5c0.1,7.8,0.1,15.5,0.1,23.3c0,4.5,0,4.3,4.4,4.5c2,0.1,2.4-0.7,2.3-2.5
		c-0.1-4.3-0.2-8.6,0-12.9c0.2-4.5,2.9-7.9,7.1-8.3c3.1-0.3,3.5-1.6,3.2-4.1c0-0.3,0-0.7,0-1c0.2-1.4-0.5-1.7-1.8-1.6
		C967.4,920.3,964.7,921.8,962.5,924.9z M510.1,924.8c-0.6-5-0.6-4.9-4.5-5c-1.9-0.1-2.4,0.6-2.4,2.4c0.1,7.7,0,15.4,0,23.1
		c0,4.9,0,4.8,4.8,4.8c1.4,0,1.9-0.4,1.9-1.9c-0.1-4.1,0-8.3,0-12.4c0-5.7,2.7-8.9,8.3-9.6c1.8-0.2,2.3-0.9,2.1-2.6
		c-0.1-0.7-0.1-1.4,0-2c0.2-1.6-0.5-2.1-2.1-1.8C514.9,920.3,512.4,922,510.1,924.8z M722.7,779c-5.3,0-9.1,3.9-9.1,9.4
		c0,5.3,4,9.3,9,9.2c5.1-0.1,9-4.1,9-9.3C731.7,783,727.9,779,722.7,779z M1015,788.4c0-5.5-3.7-9.4-9.1-9.4c-5.1,0-8.9,4-8.9,9.3
		c0,5.3,3.9,9.3,9,9.3C1011,797.6,1015,793.6,1015,788.4z M940.1,925.3c0-1-0.1-1.3-0.1-1.6c-0.1-3.8-0.1-3.8-3.9-3.8
		c-0.1,0-0.2,0-0.3,0c-2-0.4-2.5,0.5-2.5,2.5c0.1,7.8,0,15.5,0,23.3c0,4.5,0,4.4,4.6,4.4c1.7,0,2.1-0.6,2.1-2.2
		c-0.1-4.1,0-8.3,0-12.4c0-5.3,2.9-8.7,8-9.3c1.9-0.2,2.5-0.9,2.2-2.7c-0.1-0.7-0.1-1.4,0-2c0.2-1.8-0.7-1.9-2.1-1.7
		C944.9,920.4,942.4,922,940.1,925.3z M868.3,935.1c0-3.7,0-7.4,0-11.1c0-4.1,0-4-4.2-4.1c-1.9-0.1-2.4,0.5-2.4,2.4
		c0.1,7.9,0,15.7,0,23.6c0,4.4,0,4.3,4.4,4.3c1.6,0,2.2-0.4,2.2-2.1C868.2,943.7,868.3,939.4,868.3,935.1z M621.8,704.3
		c-3.2-1.4-6-2.7-8.8-3.8c-0.5-0.2-1.1-1-1.8-0.1c-2.7,3.8-5.4,7.6-8.5,11.8c2,0,3.4,0.1,4.8,0c1.5-0.1,3.2,0.6,4.5-0.4
		C615.3,709.4,618.3,706.9,621.8,704.3z M691,711.6c3.2,0,5.6-2.3,5.7-5.5c0.1-3.3-2.3-5.8-5.6-5.8c-3.2,0-5.5,2.3-5.5,5.6
		C685.6,709.2,687.9,711.6,691,711.6z M708.5,935.2c1.9,0,3.7-0.1,5.6,0c2.1,0.1,1.5-1.3,1.5-2.4c0-1.1,0.4-2.4-1.6-2.3
		c-3.5,0.1-6.9,0.1-10.4,0c-1.6-0.1-1.9,0.5-2,2c-0.1,2,0.3,3,2.6,2.7C705.6,935,707.1,935.2,708.5,935.2z M546.5,910.2
		c-2.2-0.9-4.1-1.8-6-2.6c-0.5-0.2-0.9-0.1-1.3,0.4c-1.8,2.5-3.6,5-5.3,7.5C539.7,917.4,542.6,913.1,546.5,910.2z M811.3,910.2
		c-2.1-0.9-3.9-1.7-5.7-2.5c-0.8-0.4-1.2-0.1-1.7,0.5c-1.7,2.4-3.4,4.8-5.2,7.2C804.5,917.5,807.4,913.2,811.3,910.2z M616.9,910.2
		c-2.2-1-4-1.7-5.7-2.5c-0.6-0.3-1.1-0.4-1.5,0.2c-1.8,2.5-3.6,5-5.3,7.5C610.1,917.5,612.9,913.2,616.9,910.2z M1055.2,915.5
		c6,1.9,8.8-2.3,12.7-5.3c-2.2-0.9-4-1.7-5.7-2.5c-0.9-0.4-1.4,0-1.9,0.7C1058.6,910.7,1056.9,913.1,1055.2,915.5z M864.9,907.5
		c-2.2,0.1-3.7,1.7-3.7,4c0,2.4,1.7,4.1,4,4c2.1-0.1,3.8-1.9,3.7-4.1C868.9,909.1,867.2,907.4,864.9,907.5z"/>
	<path class="st2" d="M483.7,786.1c23.4,0,42.9,13,50,32.7c10.2,28.5-7.6,59.2-37.7,64.7c-20.4,3.8-38.4-1.3-51.9-17.5
		c-23.2-27.8-8.7-69.9,26.8-78.4C475.3,786.7,479.9,786.1,483.7,786.1z M485.1,800.2c-19.9,0-36.1,15.7-36.2,35.1
		c0,19.5,16,35.3,35.6,35.4c20,0,35.8-15.6,35.9-35.2C520.4,815.7,504.8,800.2,485.1,800.2z"/>
	<path class="st2" d="M862.4,874.7c-9.9,9.8-21.4,11.9-33.8,8.8c-15.9-3.9-20.4-19.1-15.5-30.2c3.6-8.3,10.9-11.7,19.3-12.8
		c9-1.3,18.1-0.4,27.1-0.5c2.3,0,2.8-0.6,2.7-2.8c-0.1-9.3-5.7-14.8-16.1-15.5c-8.1-0.5-15.4,1.9-22.1,6.1c-1.8,1.1-2.5,0.8-3.4-0.9
		c-1.2-2.4-2.7-4.7-4.1-7c-0.5-0.8-0.8-1.4,0.3-2c14.3-8.5,29.5-11.4,45.4-5.8c9.4,3.2,14.2,10.7,14.8,20.5
		c0.7,11.4,0.1,22.8,0.3,34.3c0.1,4.9,0,9.8,0.2,14.7c0.1,2-0.6,2.4-2.4,2.4c-3.5-0.1-6.9-0.1-10.4,0c-1.7,0.1-2.5-0.4-2.3-2.2
		C862.5,879.7,862.4,877.5,862.4,874.7z M849,851c-3,0-5.9,0-8.9,0c-2.6,0-5.2,0.3-7.7,1.1c-3.4,1.1-5.9,3.1-6.5,6.8
		c-0.7,3.8-0.1,7.4,3.1,10.2c6.6,5.7,21.3,4.7,28.5-1.8c4.3-3.9,5-8.7,4.8-14.1c-0.1-1.6-0.4-2.2-2.1-2.2
		C856.4,851.1,852.7,851,849,851z"/>
	<path class="st2" d="M1049.3,852.8c3.4,17.2,20.3,23.3,35,17.4c3.1-1.2,6-2.8,8.4-5.1c1.1-1.1,1.7-0.8,2.6,0.2
		c1.6,1.8,3.2,3.6,4.9,5.1c1.7,1.5,1.5,2.5-0.1,3.9c-9.7,8.5-21,11.3-33.5,10c-10.9-1.1-20.2-5.5-26.2-14.8
		c-8.6-13.3-9-27.5-1.8-41.4c7-13.4,19.3-18.5,33.9-18.5c6.8,0,13.3,1.4,19.1,5.1c8.7,5.5,12.3,14,13.8,23.7c0.6,4,0.5,8.1,0.6,12.2
		c0,2-0.8,2.3-2.6,2.3c-17.1-0.1-34.2,0-51.3,0C1051.3,852.8,1050.4,852.8,1049.3,852.8z M1070.6,842c6.7,0,13.4,0,20,0
		c1,0,2.1,0.3,1.9-1.5c-0.5-5.6-2.3-10.6-6.9-14.2c-7-5.5-14.9-5.9-23-3c-7.8,2.8-11.7,9-13.4,16.8c-0.3,1.4,0,1.9,1.6,1.9
		C1057.5,841.9,1064,842,1070.6,842z"/>
	<path class="st2" d="M917.8,824c1.1-0.3,1.4-1.2,1.9-1.8c5.7-8.5,14-12.1,23.9-12.5c18.5-0.7,29.5,9.7,29.7,28.3
		c0.1,14.6,0,29.3,0.1,43.9c0,1.8-0.5,2.3-2.3,2.2c-3.5-0.1-7.1-0.2-10.7,0c-2,0.1-2.6-0.5-2.6-2.5c0.1-12.7,0-25.4,0-38.1
		c0-10.5-4.3-16.8-12.9-19c-9.7-2.4-19.8,1.8-24.3,10.3c-1.9,3.6-2.9,7.6-2.9,11.7c0,11.7-0.1,23.4,0,35c0,2.2-0.6,2.7-2.7,2.6
		c-3.5-0.2-6.9-0.1-10.4,0c-1.8,0.1-2.2-0.6-2.2-2.3c0.1-23.2,0.1-46.4,0-69.5c0-1.7,0.5-2.2,2.1-2.1c3.7,0.1,7.4,0.1,11.2,0
		c1.5,0,2.1,0.4,2,2C917.7,816,917.8,819.9,917.8,824z"/>
	<path class="st2" d="M549.7,847.2c0-18.2,10.1-32.3,26.9-36.3c14.2-3.3,27.5-1.4,39,8.5c1.6,1.4,1.7,2.3,0.2,3.8
		c-1.8,1.9-3.5,3.9-5.1,6c-1.1,1.4-1.8,1.8-3.5,0.4c-7.2-6.1-15.6-8-24.7-6.2c-7.4,1.4-12.6,6-15.5,13c-2.9,7-2.9,14.2-0.2,21.3
		c3.7,9.8,12.7,14.8,24.3,13.7c6.6-0.6,12.7-2.7,17.6-7.5c0.8-0.8,1.2-0.9,1.9-0.1c2,2.1,4,4.1,6.2,6c1.2,1.1,1.1,1.8,0.1,2.9
		c-4.1,4.5-9,7.7-14.7,9.6c-9,2.9-18.1,3.4-27.2,0.7C559.2,878.2,549.7,864.7,549.7,847.2z"/>
	<path class="st2" d="M667.1,884.7c-25.8-0.1-41-19-38.1-42.5c2-16.5,11.5-27.8,26.5-31.2c14.1-3.2,27.4-1.3,38.9,8.4
		c1.7,1.4,1.9,2.5,0.2,4.2c-1.9,1.8-3.6,3.9-5.1,6c-1.2,1.7-1.9,1.3-3.3,0.2c-7.3-6-15.8-8-25-6.1c-10.2,2.1-17,11.1-17.3,22.2
		c-0.2,7.2,1.4,13.8,6.5,19.2c5.5,5.8,12.6,7.2,20.2,6.4c6.4-0.7,12.4-2.8,17.1-7.5c0.9-0.9,1.4-0.7,2.1,0.1c1.9,2,3.8,3.9,5.8,5.7
		c1.4,1.2,1.2,2,0,3.3c-6.1,6.7-13.9,10-22.7,11.2C670.8,884.4,668.5,884.5,667.1,884.7z"/>
	<path class="st2" d="M760.6,846.2c0-6.7,0-13.4,0-20.1c0-1.6-0.4-2.1-2-2c-2.2,0.1-4.4-0.1-6.6,0.1c-1.7,0.1-2.1-0.5-2.1-2.2
		c0.1-2.4,0.1-4.7,0-7.1c-0.1-1.5,0.3-2.1,1.9-2c2.3,0.2,4.6,0,6.9,0.1c1.5,0.1,1.9-0.4,1.9-1.9c-0.1-5.6,0-11.2-0.1-16.8
		c0-1.7,0.5-2.1,2.2-2.1c3.6,0.1,7.3,0.1,10.9,0c1.8-0.1,2.1,0.6,2.1,2.2c-0.1,5.2,0.1,10.5-0.1,15.7c-0.1,2.1,0.4,2.9,2.7,2.9
		c5.7-0.2,11.3,0,17-0.1c2.1-0.1,2.6,0.6,2.4,2.5c-0.2,2.2-0.1,4.4,0,6.6c0.1,1.6-0.4,2.2-2.1,2.1c-6-0.1-12,0-18,0
		c-1,0-2.1-0.3-2,1.4c0.1,12.4,0,24.9,0.2,37.3c0.1,5.8,3.5,8.4,9.3,8c2.9-0.2,5.6-1.1,8.3-2.3c1.3-0.6,1.9-0.4,2.3,1.1
		c0.8,2.8,1.7,5.5,2.7,8.2c0.4,1,0.4,1.7-0.7,2.3c-7.2,3.8-14.7,5.7-22.7,3.8c-8.5-2-13.9-8.5-14.3-17.5
		C760.5,859.8,760.7,853,760.6,846.2C760.7,846.2,760.7,846.2,760.6,846.2z"/>
	<g>
		<path class="st3" d="M742.3,405.1c-44.7-0.9-87.5-10.2-127.3-31.1c-1.5-0.8-3-1.5-4.4-2.5c-1.5-1-2.2-0.8-3.1,0.8
			c-4.3,7.9-9.2,15.4-14.5,22.6c-6.8,9.3-14.3,18-23,25.6c-1.5,1.3-1.4,1.9,0,3.2c15.3,13.7,27.2,30.1,37.3,47.8
			c1,1.8,1.7,2.3,3.7,1.1c24-13.7,49.9-22.4,76.9-27.8c17.4-3.5,34.9-5.7,52.6-5.7c3.7,0,7.5,0.2,11.2,0c2-0.1,2.4,0.7,2.4,2.4
			c0.2,10.6,0,21.2-1,31.7c-1.9,19.6-5.5,38.8-11.1,57.6c-5.3,17.9-12.3,35.1-21.5,51.3c-1.1,1.8-0.8,2.6,1,3.6
			c20.5,11.9,38.7,26.6,54,44.9c5.9,7,11,14.6,15.6,22.5c4.7,8.1,3.7,19-2.4,26.1c-6.5,7.6-16.6,10.4-25.7,7.1
			c-9.2-3.3-15.3-12-15.4-21.8c0-5,1.3-9.6,4.4-13.5c1.5-1.9,1.1-2.9-0.3-4.4c-13-14.9-28.5-26.9-45.6-36.8
			c-2.1-1.2-4.3-2.3-6.4-3.6c-1.5-0.9-2.2-0.8-3.2,0.9c-4.8,8.8-14.2,13.2-24.2,11.7c-9.1-1.4-16.6-8.5-18.7-17.8
			c-2.1-9.1,1.4-18.6,9-23.9c8.2-5.7,16.8-6,25.5-1.1c1.8,1,2.4,0.8,3.4-0.8c13.5-21.7,22.1-45.3,27.7-70.1
			c2.5-11.3,4.2-22.7,5.5-34.3c0.2-1.9-0.1-2.5-2.2-2.3c-12.6,1.3-25.1,3.3-37.5,6.2c-23.7,5.6-46.2,14-67,26.8
			c-1.8,1.1-2.1,1.9-1,3.8c6.4,11.2,2.3,25.4-9.1,31.7c-11,6.1-25.2,2-31.4-9.2c-6.2-11.2-2.2-25.3,9.1-31.6
			c1.1-0.6,2.5-0.8,1.4-2.8c-8.9-16.8-19.2-32.7-32.9-46c-3.1-3-6.4-5.7-9.9-8.3c-1.2-0.9-1.9-1-3.2,0.1
			c-13.9,12.2-34.8,5-38.4-13.1c-2.6-12.9,7.3-26,20.3-27.2c6.8-0.6,12.7,1.1,17.8,5.7c1.4,1.2,2.2,1.1,3.6,0.1
			c11.7-8.7,20.9-19.6,29.1-31.6c4.9-7.2,9.3-14.7,13.4-22.4c0.7-1.4,0.6-2-0.9-2.8c-9.5-5.2-14.2-15.5-11.7-25.7
			c2.5-10.5,11.3-17.9,22.1-18c18.4-0.2,29.3,19,20.9,34.1c-1.4,2.5-0.7,3.3,1.3,4.5c20.9,12.8,43.5,21.2,67.3,26.7
			c12.1,2.8,24.4,4.7,36.7,6c1.5,0.2,2.4,0.1,2.1-1.9c-3-28.5-9.4-56.1-21.2-82.3c-3.6-7.9-7.7-15.4-12.2-22.8
			c-0.9-1.5-1.5-1.6-3.1-0.7c-7.8,4.6-15.8,4.8-23.6,0.3c-7.8-4.4-11.6-11.5-11.7-20.3c-0.1-10.5,7.2-19.5,17.5-22.3
			c10-2.7,20.6,1.7,25.9,10.9c1.1,2,1.8,2.2,3.8,1.1c19.6-10.6,37.2-23.7,51.9-40.5c1.2-1.4,1.4-2.2,0.2-3.8
			c-5.8-7.8-6.1-18.3-0.8-26.4c5.2-8,15-12,24.5-10c9.1,1.9,16.4,9.5,17.9,18.9c0.9,5.9-0.4,11.3-3.5,16.5
			c-16.6,28-40.1,48.8-67.7,65.4c-3.2,1.9-3.2,1.9-1.4,5.1c13.5,24.3,22.2,50.3,27.6,77.5c3.9,19.8,5.9,39.8,5.5,60
			c-0.1,4.6,0,4.6-4.6,4.6C747,405.1,744.7,405.1,742.3,405.1z"/>
		<path class="st3" d="M800.9,422.3c0-58.1,0-116.1,0-174.2c0-8,4.7-14.3,11.8-15.6c9.5-1.8,17.5,4.8,17.9,14.5c0,0.3,0,0.7,0,1
			c0,116.2,0,232.4,0,348.6c0,7.5-4.1,13.3-10.7,15.2c-9.5,2.7-18.7-4.1-19-14.1c0-0.8,0-1.5,0-2.3
			C800.9,537.8,800.9,480.1,800.9,422.3z"/>
		<path class="st3" d="M865.8,422.4c0-49.9,0-99.7,0-149.6c0-10.8,10.4-17.9,20.3-13.8c5.6,2.3,8.5,6.7,9.2,12.7
			c0.1,0.9,0.1,1.9,0.1,2.8c0,98.6,0,197.2,0,295.8c0,2.8-0.2,5.6-1.5,8.2c-3.1,6.4-10,9.7-17,8.1c-6.5-1.5-11.1-7.4-11.1-14.3
			C865.8,522.3,865.8,472.3,865.8,422.4z"/>
		<path class="st3" d="M959.9,422.3c0,31.1,0,62.1,0,93.2c0,6.9-4,12.3-10.4,14.3c-6.3,1.9-13-0.5-16.7-6c-1.8-2.8-2.5-5.9-2.5-9.2
			c0-26.5,0-53,0-79.5c0-35,0-70.1,0-105.1c0-7.6,4.2-13.4,11-15.2c9.6-2.5,18.5,4.4,18.5,14.3C959.9,360.1,959.9,391.2,959.9,422.3
			z"/>
		<path class="st3" d="M1034.1,422.2c0,12.9-10.3,23.2-23.2,23.2c-12.9,0-23-10.3-23.2-23.2c-0.2-11.3,9-23.2,23.2-23.2
			C1023.9,398.9,1034.1,409.4,1034.1,422.2z"/>
	</g>
	<path class="st2" d="M582.7,758.2c-3.3,0-6.6-0.1-9.8,0c-1.2,0-1.6-0.7-2.1-1.5c-2.6-4.3-5.1-8.5-7.7-12.8
		c-0.7-1.1-1.4-1.8-2.8-1.8c-3.6,0.1-7.1,0.1-10.7,0c-1.5,0-1.8,0.6-1.8,2c0,4.2-0.1,8.5,0,12.7c0,1.2-0.3,1.6-1.6,1.6
		c-2.1-0.1-4.2-0.2-6.3-0.1c-1.8,0.1-2.3-0.5-2.2-2.3c0.1-9.6,0.1-19.3,0.2-28.9c0-6.9,0.1-13.9,0.2-20.8c0-0.9-0.4-2.1,1.3-2.1
		c9,0.1,17.9-0.4,26.8,0.8c8.3,1.1,13.7,6.2,15.1,13.3c1.8,9.2-1.2,16.8-8.7,21.2c-1.3,0.8-1.1,1.2-0.4,2.2
		c3.1,4.7,6.2,9.4,9.3,14.2C582,756.5,582.7,757,582.7,758.2z M547.9,723c0,2.9,0,5.7,0,8.6c0,1,0.1,1.6,1.4,1.5
		c4.8-0.3,9.6,0.6,14.4-0.2c5.7-0.9,8.7-4.3,8.7-9.9c0-5.4-3.1-8.7-8.9-9.5c-4.7-0.6-9.5-0.3-14.2-0.4c-1.1,0-1.5,0.4-1.4,1.5
		C547.9,717.4,547.9,720.2,547.9,723z"/>
	<path class="st2" d="M665.6,722.4c0.1-0.9,0.1-1.2,0.1-1.5c0.1-4.1,0.1-4.1,4.2-4c5.5,0.1,5.5,0.1,5.5,5.6
		c0,10.1-0.1,20.1-0.1,30.2c0,11.9-7,19.4-18.8,20.3c-6.5,0.5-12.6-1-18.2-4.3c-1.4-0.8-2-1.5-0.9-3.1c1.2-1.5,1.7-4,3.2-4.7
		c1.3-0.6,3,1.6,4.6,2.3c3.2,1.4,6.6,2,10.1,1.7c7.3-0.7,11.1-6,10-13.8c-7.8,6.6-17.9,6.9-25.1,0.7c-6.3-5.5-8.2-17.3-4-25.6
		c3.7-7.4,12.1-11,20.9-9C660.5,717.9,663.1,719.5,665.6,722.4z M643.4,736.4c0,7,4.6,12.1,11.1,12.1c6.3,0,11.1-5.1,11.2-11.9
		c0.1-6.9-4.6-11.9-11.1-11.9C648.1,724.6,643.4,729.5,643.4,736.4z"/>
	<path class="st2" d="M715.1,846.9c0-11.5,0-23,0-34.5c0-1.8,0.4-2.3,2.3-2.3c3.6,0.1,7.3,0.1,10.9,0c1.7-0.1,2.1,0.5,2.1,2.1
		c-0.1,23.3-0.1,46.5,0,69.8c0,1.8-0.7,2.1-2.2,2c-3.6-0.1-7.1-0.1-10.7,0c-1.9,0.1-2.4-0.5-2.4-2.4
		C715.1,870.1,715.1,858.5,715.1,846.9z"/>
	<path class="st2" d="M998.4,847c0-11.5,0-23,0-34.5c0-1.8,0.3-2.5,2.3-2.4c3.5,0.2,6.9,0.2,10.4,0c2-0.1,2.5,0.5,2.5,2.5
		c-0.1,18.2,0,36.4,0,54.6c0,4.9-0.1,9.8,0,14.7c0,1.6-0.4,2.2-2.1,2.2c-3.6-0.1-7.3-0.1-10.9,0c-1.8,0.1-2.2-0.6-2.2-2.3
		C998.5,870.2,998.4,858.6,998.4,847z"/>
	<path class="st2" d="M613.4,741.4c-4.4,0-8.8,0-13.2,0c-1.5,0-1.7,0.4-1.2,1.8c2.1,5.7,8.7,8.7,15.4,6.7c2.1-0.6,4.2-1.5,5.7-3.1
		c1.2-1.3,2-1,2.9,0.3c0.3,0.4,0.7,0.8,1,1.1c3,3.4,3,3.3-0.6,6.1c-8.3,6.4-26.1,6.5-32.6-6c-4.2-8-2.8-19.3,3.3-25.5
		c6-6.1,17.2-7.9,25.2-3.8c6.7,3.5,8.8,9.7,9.2,16.7c0.4,6,0.3,6-5.8,6C619.7,741.5,616.5,741.5,613.4,741.4
		C613.4,741.5,613.4,741.4,613.4,741.4z M608.8,733.9C608.8,733.9,608.8,733.9,608.8,733.9c2.8,0.1,5.6,0.1,8.4,0.1
		c2.8,0,2.9-0.2,2-2.8c-1.5-4.5-5.2-6.7-10.8-6.5c-4.7,0.2-8.9,3.6-10,8c-0.3,1.2,0.1,1.3,1.1,1.3
		C602.6,733.9,605.7,733.9,608.8,733.9z"/>
	<path class="st2" d="M497.6,754.5c-3.3,2.6-7,3.8-11.1,4c-3.3,0.2-6.6-0.2-9.6-1.8c-5-2.7-7.3-7.8-6.3-13.7c0.9-5,5.1-8.6,11.1-9.5
		c4.6-0.7,9.3-0.4,13.9-0.4c1.8,0,2.2-0.6,1.9-2.2c-0.5-2.9-2.1-4.7-4.9-5.5c-5.2-1.4-9.9-0.2-14.3,2.6c-1.5,0.9-2.2,1.1-3.2-0.7
		c-3-5.5-3.1-5.5,2.8-8c6.2-2.7,12.6-3.2,19.1-1.5c6.3,1.7,9.9,6.5,10,13c0.1,8.5,0,17.1,0.1,25.6c0,1.7-0.5,2.2-2.1,2.1
		c-1.3-0.1-2.5-0.1-3.8-0.1C497.9,758.1,497.9,758.1,497.6,754.5z M486.8,750.6c2.7,0.1,5-0.5,7.2-1.7c2.7-1.6,4.1-4,3.9-7.2
		c0-0.8-0.1-1.3-1.1-1.3c-4.2,0-8.5-0.1-12.7,0.1c-2.3,0.1-4.2,1.3-4.5,4c-0.2,2.5,1.1,4.6,3.6,5.5
		C484.4,750.5,485.6,750.8,486.8,750.6z"/>
	<path class="st4" d="M764.8,722.9c5-5.8,11.2-7,18-5.9c6.3,1.1,10.9,6,11.4,12.5c0.7,9,0.1,18.1,0.3,27.1c0,1.3-0.6,1.5-1.7,1.5
		c-2.6-0.1-5.9,0.8-7.6-0.5c-1.7-1.2-0.5-4.7-0.5-7.2c0-4.7,0.1-9.3,0.1-14c0-7-3-10.7-8.9-10.8c-6.2-0.1-11.1,4.5-11.2,11
		c-0.1,6.4-0.1,12.9,0,19.3c0,1.8-0.4,2.4-2.2,2.2c-2.4-0.2-5.6,0.7-7.1-0.5c-1.6-1.3-0.5-4.6-0.5-7c0-10.6,0.1-21.2,0.1-31.7
		c0-1.8,0.5-2.5,2.3-2.2c0.7,0.1,1.4,0,2,0C764.8,716.9,764.8,717,764.8,722.9z"/>
	<path class="st2" d="M725.5,758.4c-8.4-0.1-15.3-3.1-19.2-10.8c-3.8-7.8-3.4-15.6,1.6-22.8c5.3-7.6,17.1-10.2,26.6-6.3
		c8.5,3.5,13.5,12.4,12.1,21.8C745.2,751.6,737.3,758.3,725.5,758.4z M713.8,737.7c0,7.5,4.7,12.5,11.7,12.5c7,0,12-5.3,11.9-12.7
		c-0.1-7.3-5-12.4-11.9-12.4C718.5,725.2,713.7,730.3,713.8,737.7z"/>
	<path class="st4" d="M759.6,936.4c3.9-7.8,7.7-15.3,11.2-22.8c1.1-2.3,2.3-3.2,4.9-3.1c4.7,0.3,4.7,0.1,4.7,4.8
		c0,10.7-0.1,21.3,0.1,32c0,2.4-0.8,3.2-3,2.8c-0.4-0.1-0.9-0.1-1.3,0c-1.7,0.3-2.2-0.5-2.1-2.1c0-8.1-0.1-16.2-0.1-24.4
		c0-0.5,0-1-0.4-1.6c-1.7,3.4-3.4,6.8-5.1,10.3c-2,4-4,8-5.9,12.1c-0.7,1.6-1.8,1.7-3.2,1.7c-1.4,0-2.2-0.3-2.9-1.7
		c-3.3-7-6.8-14-10.3-20.9c-0.2-0.5-0.3-1.1-1.2-1.6c0,3.6,0,7,0,10.4c0,5.2-0.1,10.3,0,15.5c0,1.8-0.3,2.5-2.3,2.5
		c-4.1-0.1-4.1,0-4.1-4.2c0-11,0-22,0-33c0-1.8,0.3-2.3,2.3-2.5c4.4-0.5,6.7,1,8.5,5.2c2.9,6.8,6.5,13.4,9.8,20
		C759.2,935.8,759.3,935.9,759.6,936.4z"/>
	<path class="st2" d="M433.1,731.1c0-8.2,0.1-16.4-0.1-24.6c0-2,0.5-2.5,2.4-2.3c1.8,0.2,3.7,0.3,5.6,0.2c1.9-0.1,2.2,0.6,2.2,2.3
		c-0.1,11.7-0.1,23.4-0.2,35c0,1.8,0.1,3.6,0,5.3c-0.1,1.7,0.5,2.1,2.2,2.1c6.3-0.1,12.5,0.1,18.8,0c1.6,0,2.1,0.4,2.1,2.1
		c0,7,0.1,7-7,7c-8,0-15.9-0.1-23.9,0c-1.8,0-2.3-0.5-2.2-2.3C433.1,747.7,433,739.4,433.1,731.1C433,731.1,433.1,731.1,433.1,731.1
		z"/>
	<path class="st4" d="M844.8,946.3c-2.7,2.6-5.9,4-9.9,4c-7.7-0.1-13.3-5-14.2-12.7c-0.4-3.2-0.2-6.4,1.1-9.5
		c3.4-8.5,14.5-11.3,21.6-5.6c0.5,0.4,0.8,1.3,1.6,1c0.9-0.4,0.4-1.3,0.4-2c0-3.7,0.1-7.4,0-11.2c0-1.7,0.3-2.4,2.2-2.3
		c4.5,0.1,4.5,0,4.5,4.6c0,11.6-0.1,23.2,0.1,34.7c0,2.2-0.5,3.2-2.8,2.8c-0.5-0.1-1-0.1-1.5,0c-1.8,0.3-2.7-0.3-2.4-2.3
		C845.5,947.3,845.6,946.8,844.8,946.3z M827.2,935.1c0,5.6,3.9,9.7,9.2,9.6c5.2,0,9-4,9-9.6c0.1-5.6-3.8-9.8-9.1-9.8
		C831,925.4,827.2,929.5,827.2,935.1z"/>
	<path class="st4" d="M434.1,930.3c0-6,0-12,0-18c0-1.1,0-1.9,1.6-1.8c5.4,0.1,10.8-0.1,16.2,0.1c10.2,0.4,15.6,7.7,13.2,17.7
		c-1.3,5.5-5.7,9.1-11.9,9.7c-3,0.3-6.1,0.4-9.1,0.2c-2.4-0.1-3.4,0.4-3.1,3c0.2,2.3,0,4.6,0.1,6.8c0.1,1.4-0.3,2.1-1.9,2.1
		c-5,0-5,0.1-5-4.8C434.1,940.3,434.1,935.3,434.1,930.3z M447.3,916.7c-1.8,0-3.3,0-4.8,0c-1,0-1.5,0.2-1.5,1.4
		c0.1,4.2,0,8.4,0,12.7c0,0.7,0.1,1.4,1,1.4c3.9-0.1,7.9,0.5,11.8-0.6c3.5-1,5.3-3.6,5.2-7.4c-0.1-3.7-1.9-5.9-5.5-6.9
		C451.4,916.5,449.2,916.7,447.3,916.7z"/>
	<path class="st4" d="M994.6,946.7c-3.8,3.4-7.7,3.9-11.7,3.6c-4.9-0.4-8.5-3.9-8.8-8.6c-0.3-4.7,2.4-8.2,7.5-9.3
		c3.6-0.8,7.3-0.5,10.9-0.4c2.1,0,2.3-0.9,1.9-2.4c-0.6-2.5-2.4-3.8-4.9-4.2c-3.4-0.5-6.6,0.2-9.5,2c-2.5,1.6-2.2-1.1-3-1.9
		c-0.8-0.8-1.4-1.8,0.3-2.7c5.2-2.9,10.7-3.7,16.4-2.3c4.5,1.1,7.2,4.6,7.3,9.5c0.1,6.2,0,12.4,0.1,18.5c0,1.3-0.4,1.9-1.7,1.7
		c-0.7-0.1-1.4-0.1-2,0C995.2,950.4,993.9,949.9,994.6,946.7z M988.8,936.9C988.8,936.8,988.8,936.8,988.8,936.9
		c-1.9,0-3.7-0.1-5.5,0.3c-3.1,0.6-4.1,4-1.9,6.2c2.1,2.2,4.8,2,7.6,1.3c2.6-0.7,4.7-2,5.4-4.7c0.7-2.6,0.2-3-2.5-3.1
		C990.9,936.9,989.9,936.9,988.8,936.9z"/>
	<path class="st4" d="M1016.4,924.8c3.6-4.8,8.3-5.6,13.4-4.8c4.8,0.8,7.8,4,8.3,8.9c0.6,6.6,0.1,13.2,0.3,19.8
		c0,1.1-0.5,1.4-1.5,1.4c-5.1,0.4-5.1,0.4-5.1-4.7c0-3.7,0-7.4,0-11.2c0-5.3-2.1-8-6.5-8.2c-4.9-0.2-8.7,3-8.9,8
		c-0.2,4.6-0.2,9.1,0,13.7c0.1,2-0.6,2.4-2.4,2.4c-4.2-0.1-4.2,0-4.2-4.3c0-7.9,0.1-15.7,0-23.6c0-1.9,0.4-2.5,2.4-2.4
		C1015.9,920,1015.9,919.9,1016.4,924.8z"/>
	<path class="st4" d="M1062.1,937.6c-3.1,0-6.3,0.1-9.4,0c-2-0.1-1.8,0.8-1.3,2.1c2.4,5.5,9.8,7,15.4,3c1.1-0.8,1.7-1.2,2.9,0
		c2.4,2.7,2.5,2.9-0.6,5c-6,3.9-15.2,3.5-20.2-0.9c-5-4.5-6.4-12.8-3.1-19.2c4.3-8.5,17.7-10.7,24.1-3.8c3.4,3.6,3.6,8.2,3.5,12.8
		c0,1.1-0.9,1-1.7,1C1068.5,937.6,1065.3,937.6,1062.1,937.6z M1059.1,932.8c2.2,0,4.4-0.1,6.6,0c1.8,0.1,1.9-0.6,1.5-2.1
		c-1-3.6-4.1-5.8-8-5.7c-3.9,0.1-7.5,2.8-8.3,6.2c-0.3,1.1,0,1.6,1.2,1.5C1054.4,932.7,1056.8,932.8,1059.1,932.8z"/>
	<path class="st4" d="M644.2,937.6c-3,0-6.1,0.1-9.1,0c-2.2-0.1-2.2,0.8-1.4,2.4c2.4,4.9,8.8,6.5,14.1,3.6c0.1-0.1,0.3-0.2,0.4-0.3
		c1.9-2.1,3.2-1.3,4.7,0.6c0.9,1.1,1,1.7-0.1,2.6c-5.1,4.5-14.6,5.2-20.4,1.3c-5.5-3.7-7.8-11.7-5.2-18.6c2.4-6.6,8.9-10.2,16.6-9.3
		c8.1,0.9,13.7,8.9,11.9,16.8c-0.3,1.1-1,1-1.7,1C650.6,937.6,647.4,937.6,644.2,937.6z M641.1,932.8c2.2,0,4.4-0.1,6.6,0
		c2,0.1,2-0.8,1.6-2.3c-1-3.5-4.2-5.6-8.2-5.5c-3.9,0.2-7.4,2.9-8.2,6.4c-0.2,1.1,0,1.4,1.1,1.3
		C636.4,932.8,638.7,932.8,641.1,932.8z"/>
	<path class="st4" d="M540.5,937.6c-3,0-6.1,0.1-9.1,0c-2.1-0.1-2,0.7-1.3,2.2c2.5,5.3,9.4,6.8,14.9,3.3c0.7-0.5,1.4-1.8,2.3-1.2
		c1.2,0.7,2.1,2,3,3.1c0.4,0.5-0.2,0.9-0.5,1.2c-5.1,4.4-11.1,5.3-17.3,3.3c-6.1-1.9-9.1-6.6-9.6-12.7c-0.5-6.1,1.3-11.5,6.9-14.7
		c5-2.9,10.4-3.1,15.6-0.6c4.8,2.2,6.4,6.7,6.8,11.7c0.3,4.6,0.2,4.6-4.3,4.6C545.3,937.6,542.9,937.6,540.5,937.6z M537.6,932.8
		c2,0,4.1,0,6.1,0c2.6,0,2.8-0.4,1.9-2.8c-1.2-3.3-4.4-5.1-8.3-4.8c-3.8,0.3-6.9,2.9-7.7,6.2c-0.3,1.3,0.2,1.4,1.2,1.4
		C533,932.8,535.3,932.8,537.6,932.8z"/>
	<path class="st4" d="M915.4,937.6c-3.1,0-6.3,0.1-9.4,0c-1.6,0-1.9,0.5-1.3,1.9c2.2,5.4,9.4,7.1,14.9,3.6c0.7-0.5,1.4-1.8,2.2-1.3
		c1.2,0.7,2.1,1.9,3,3c0.6,0.8-0.4,1.2-0.8,1.6c-5.2,4.8-15,5.3-20.8,1.1c-5.5-3.9-7.5-12.4-4.5-19.2c2.9-6.5,9.9-9.8,17.6-8.2
		c7.3,1.5,12.3,9.4,10.4,16.6c-0.3,1.2-1.1,0.9-1.8,0.9C921.9,937.6,918.7,937.6,915.4,937.6z M912.4,932.8c2.1,0,4.2-0.1,6.3,0
		c2.3,0.2,2.3-1,1.8-2.6c-1.1-3.3-4.3-5.3-8.2-5.1c-3.9,0.2-7.2,2.9-8,6.3c-0.3,1.2,0.1,1.5,1.2,1.5
		C907.9,932.8,910.2,932.8,912.4,932.8z"/>
	<path class="st4" d="M1095.2,937.6c-3.1,0-6.3,0.1-9.4,0c-1.9-0.1-1.9,0.8-1.3,2.1c1.2,3.2,5.1,5.5,8.8,5.3c2.1-0.1,4.1-0.7,6-1.9
		c0.8-0.5,1.4-1.8,2.3-1.3c1.1,0.7,1.9,1.8,2.8,2.9c0.5,0.6,0,1-0.5,1.5c-3.7,3.9-12,5.3-17.9,3c-5.2-2-8.7-7.2-8.9-13.1
		c-0.3-11.3,8-18.3,19-16c6.5,1.3,9.9,5.9,10.3,13.8c0.2,3.7,0.2,3.7-3.4,3.7C1100.4,937.6,1097.8,937.6,1095.2,937.6z
		 M1092.2,932.8c2.2,0,4.4-0.1,6.6,0c1.6,0.1,1.9-0.6,1.5-2c-0.9-3.6-4.1-5.9-8.2-5.8c-4.1,0.1-7.4,2.8-8.1,6.4
		c-0.2,1.1,0.2,1.3,1.1,1.3C1087.4,932.8,1089.8,932.8,1092.2,932.8z"/>
	<path class="st4" d="M805.3,937.6c-3,0-6.1,0.1-9.1,0c-2.1-0.1-2,0.7-1.3,2.1c2.6,5.4,9.5,6.9,15,3.2c0.7-0.4,1.3-1.7,2-1.2
		c1.2,0.8,2.1,2,3,3.1c0.5,0.6-0.3,1-0.6,1.4c-3.8,3.9-12,5.3-17.9,2.9c-5.5-2.2-8.6-7.1-8.9-13.3c-0.6-11.8,9.3-18.5,20.4-15.4
		c5.9,1.6,8.2,6.2,8.8,12c0.5,5.1,0.5,5.1-4.6,5.1C809.9,937.6,807.6,937.6,805.3,937.6z M802.5,932.8c2.3,0,4.6-0.1,6.8,0
		c1.3,0,1.8-0.2,1.5-1.7c-0.9-3.8-4.1-6.2-8.2-6c-4,0.1-7.6,2.9-8.2,6.3c-0.2,1.2,0.3,1.4,1.4,1.4
		C797.9,932.8,800.2,932.8,802.5,932.8z"/>
	<path class="st4" d="M610.9,937.6c-3,0-6.1,0.1-9.1,0c-2.1-0.1-2,0.7-1.3,2.2c2.5,5.3,9.6,6.8,15.1,3.1c0.6-0.4,1.2-1.7,2-1.1
		c1.1,0.8,2.1,2,2.9,3.1c0.4,0.6-0.4,1-0.8,1.4c-4.4,4.4-13.7,5.3-19.7,1.9c-5.7-3.2-8.3-10.5-6.4-17.7c1.8-6.6,7.3-10.6,14.5-10.7
		c11.6-0.1,14.4,7.9,14.3,16.2c0,1.3-0.7,1.7-1.9,1.7C617.4,937.5,614.1,937.6,610.9,937.6z M607.9,932.8c2.3,0,4.6-0.1,6.8,0
		c1.5,0.1,2-0.4,1.6-1.9c-0.8-3.5-4.1-6-8.1-5.9c-4.1,0.1-7.8,3-8.4,6.5c-0.2,1.2,0.4,1.3,1.2,1.2
		C603.3,932.8,605.6,932.8,607.9,932.8z"/>
	<path class="st4" d="M565.3,925c3.7-5,8.5-5.9,13.8-4.9c5,1,8,4.5,8.2,9.9c0.2,6.2,0,12.3,0.1,18.5c0,1.2-0.4,1.6-1.6,1.6
		c-5,0.3-5,0.3-5-4.8c0-3.7,0-7.4,0-11.2c0-5.4-2.2-8-6.8-8.1c-4.8-0.1-8.5,3.3-8.6,8.1c-0.1,4.6-0.1,9.1,0,13.7
		c0,1.7-0.4,2.3-2.2,2.3c-4.4-0.1-4.4,0-4.4-4.3c0-7.8,0.1-15.6-0.1-23.3c0-2.2,0.6-2.7,2.7-2.6C565.1,920,565.1,919.9,565.3,925z"
		/>
	<path class="st4" d="M483.7,942.4c2.2-5.9,4.2-11.4,6.3-16.9c0.3-0.7,0.5-1.4,0.8-2.1c1.2-3.2,3.7-4.4,6.9-3.4
		c1.5,0.5,0.4,1.4,0.2,2c-2.8,7.2-5.7,14.4-8.6,21.6c-1.5,3.8-3,7.7-4.7,11.5c-2.6,5.9-9.1,8-14.6,5c-1.5-0.8-2-1.6-0.8-3.1
		c0.5-0.7,0.9-1.5,1.2-2.2c0.4-0.9,0.8-0.9,1.8-0.5c4,1.7,6.9,0.2,8-4.1c0.3-1-0.2-1.6-0.5-2.4c-3.6-8.6-7.1-17.1-10.8-25.7
		c-0.8-1.8-0.5-2.3,1.5-2.2c4.5,0.1,4.5,0,6.2,4.3C478.8,930.1,481.2,936,483.7,942.4z"/>
	<path class="st4" d="M696,737.7c0,6.2,0,12.3,0,18.5c0,1.5-0.4,2.2-2,2c-0.4-0.1-0.8,0-1.3,0c-6.8,0-6.7,0-6.6-6.7
		c0.1-10.6,0.2-21.1,0.1-31.7c0-2.2,0.4-3.3,2.9-3c2.2,0.3,5.2-0.5,6.6,0.7c1.3,1.1,0.3,4.1,0.4,6.3c0.1,2.4,0,4.7,0,7.1
		c0,2.3,0,4.6,0,6.8C696.1,737.7,696,737.7,696,737.7z"/>
	<path class="st4" d="M671.2,950.3c-4.7,0-8.2-1-11.4-3.1c-2.7-1.8,0-3.2,0.4-4.7c0.6-1.9,1.6-0.4,2.2,0c2.8,1.7,5.9,2.7,9.2,2.5
		c1.7-0.1,3.5-0.5,3.9-2.6c0.4-2.2-1.2-3.2-2.9-3.8c-2.1-0.8-4.4-1.4-6.5-2.2c-4.5-1.7-6.4-4.5-6.1-8.5c0.3-4.2,2.7-6.7,7.4-7.8
		c4.4-1,8.5-0.2,12.6,1.6c1.6,0.7,1.5,1.4,0.9,2.9c-1,2.5-2.1,3.1-4.6,1.7c-2.1-1.2-4.6-1.6-7.1-1.2c-1.4,0.2-2.6,0.8-2.9,2.4
		c-0.2,1.5,0.8,2.3,2,2.9c2.9,1.5,6.1,1.8,9,3.3c2.7,1.4,4.5,3.4,4.7,6.7c0.3,4.3-1.7,7.3-5.7,8.8
		C674.4,950.1,672.4,950.3,671.2,950.3z"/>
	<path class="st4" d="M879,935.4c0-2.4-0.1-4.7,0-7.1c0.1-1.8-0.6-2.5-2.3-2.2c-2.2,0.3-2-1.1-2-2.5c0-1.4-0.2-2.8,2-2.5
		c2,0.3,2.6-0.7,2.3-2.5c0-0.3,0-0.7,0-1c0-5.1,0-5.1,5.1-4.7c1.1,0.1,1.5,0.5,1.4,1.5c0,0.1,0,0.2,0,0.3c0.2,2.1-1,4.9,0.6,6
		c1.4,1,4.1,0.5,6.2,0.3c2.3-0.3,2.1,1.1,2.2,2.6c0.1,1.7-0.1,2.7-2.2,2.5c-2.1-0.2-4.8-0.9-6.1,0.3c-1.5,1.4-0.4,4.2-0.5,6.3
		c-0.1,2.4-0.1,4.9,0,7.4c0.1,3.9,1.7,5,5.4,3.8c1.2-0.4,2.5-1.4,2.9,0.9c0.3,1.8,1.9,3.5-1.2,4.5c-2.3,0.7-4.6,1.1-7,0.9
		c-3.7-0.4-6.4-3.3-6.6-7.2C878.9,940.5,879,937.9,879,935.4C879,935.4,879,935.4,879,935.4z"/>
	<path class="st4" d="M962.5,924.9c2.2-3.1,4.9-4.6,8.2-5.1c1.3-0.2,2,0.1,1.8,1.6c0,0.3,0,0.7,0,1c0.3,2.5-0.1,3.8-3.2,4.1
		c-4.2,0.3-6.9,3.8-7.1,8.3c-0.2,4.3-0.1,8.6,0,12.9c0,1.8-0.3,2.6-2.3,2.5c-4.4-0.1-4.4,0-4.4-4.5c0-7.8,0.1-15.6-0.1-23.3
		c0-2.1,0.6-2.6,2.6-2.5c3.9,0.1,3.9,0,4.2,3.9C962.2,924,962.3,924.2,962.5,924.9z"/>
	<path class="st4" d="M510.1,924.8c2.3-2.8,4.8-4.5,8-5c1.5-0.2,2.2,0.2,2.1,1.8c-0.1,0.7-0.1,1.4,0,2c0.2,1.7-0.3,2.3-2.1,2.6
		c-5.6,0.7-8.3,3.9-8.3,9.6c0,4.1-0.1,8.3,0,12.4c0,1.4-0.4,1.8-1.9,1.9c-4.8,0.1-4.8,0.1-4.8-4.8c0-7.7,0.1-15.4,0-23.1
		c0-1.9,0.4-2.5,2.4-2.4C509.6,920,509.6,919.8,510.1,924.8z"/>
	<path class="st2" d="M722.7,779c5.1,0,8.9,4,9,9.3c0,5.2-3.9,9.3-9,9.3c-5.1,0.1-9-4-9-9.2C713.6,782.9,717.4,779,722.7,779z"/>
	<path class="st2" d="M1015,788.4c0,5.3-3.9,9.3-9,9.3c-5.1,0-9-4-9-9.3c0-5.3,3.7-9.3,8.9-9.3C1011.2,779,1015,782.8,1015,788.4z"
		/>
	<path class="st2" d="M940.1,925.3c2.2-3.2,4.8-4.9,8.1-5.4c1.4-0.2,2.4-0.1,2.1,1.7c-0.1,0.7-0.1,1.4,0,2c0.3,1.8-0.3,2.5-2.2,2.7
		c-5.2,0.6-8,4-8,9.3c0,4.1-0.1,8.3,0,12.4c0,1.6-0.3,2.2-2.1,2.2c-4.6,0-4.6,0-4.6-4.4c0-7.8,0.1-15.5,0-23.3c0-2,0.5-2.8,2.5-2.5
		c0.1,0,0.2,0,0.3,0c3.8,0,3.8,0,3.9,3.8C940,924,940.1,924.3,940.1,925.3z"/>
	<path class="st4" d="M868.3,935.1c0,4.3-0.1,8.6,0,12.9c0,1.7-0.5,2.1-2.2,2.1c-4.4,0-4.4,0.1-4.4-4.3c0-7.9,0.1-15.7,0-23.6
		c0-1.9,0.5-2.4,2.4-2.4c4.2,0.1,4.2,0,4.2,4.1C868.3,927.7,868.3,931.4,868.3,935.1z"/>
	<path class="st2" d="M621.8,704.3c-3.4,2.7-6.5,5.2-9.7,7.5c-1.3,0.9-3,0.3-4.5,0.4c-1.4,0.1-2.8,0-4.8,0c3-4.2,5.7-8,8.5-11.8
		c0.6-0.9,1.2-0.1,1.8,0.1C615.8,701.6,618.6,702.9,621.8,704.3z"/>
	<path class="st2" d="M691,711.6c-3.2,0-5.4-2.4-5.4-5.7c0-3.3,2.3-5.6,5.5-5.6c3.3,0,5.7,2.5,5.6,5.8
		C696.6,709.3,694.2,711.6,691,711.6z"/>
	<path class="st4" d="M708.5,935.2c-1.4,0-2.9-0.2-4.3,0c-2.3,0.3-2.6-0.7-2.6-2.7c0.1-1.5,0.4-2.1,2-2c3.5,0.1,6.9,0.1,10.4,0
		c2-0.1,1.6,1.2,1.6,2.3c0,1,0.6,2.5-1.5,2.4C712.2,935.1,710.4,935.2,708.5,935.2z"/>
	<path class="st4" d="M546.5,910.2c-3.9,2.9-6.7,7.2-12.7,5.3c1.8-2.5,3.6-5,5.3-7.5c0.4-0.5,0.8-0.6,1.3-0.4
		C542.4,908.5,544.3,909.3,546.5,910.2z"/>
	<path class="st4" d="M811.3,910.2c-3.9,3-6.8,7.3-12.6,5.2c1.8-2.5,3.5-4.8,5.2-7.2c0.5-0.6,0.9-0.9,1.7-0.5
		C807.3,908.6,809.2,909.3,811.3,910.2z"/>
	<path class="st4" d="M616.9,910.2c-3.9,3-6.8,7.3-12.6,5.3c1.8-2.5,3.6-5,5.3-7.5c0.4-0.6,0.9-0.5,1.5-0.2
		C612.9,908.5,614.7,909.3,616.9,910.2z"/>
	<path class="st4" d="M1055.2,915.5c1.8-2.5,3.4-4.8,5.1-7.1c0.5-0.7,1-1.1,1.9-0.7c1.7,0.8,3.5,1.5,5.7,2.5
		C1064,913.2,1061.1,917.4,1055.2,915.5z"/>
	<path class="st4" d="M864.9,907.5c2.3-0.1,4,1.6,4,4c0,2.1-1.7,4-3.7,4.1c-2.2,0.1-3.9-1.7-4-4
		C861.2,909.2,862.7,907.6,864.9,907.5z"/>
	<path class="st1" d="M485.1,800.2c19.7,0,35.3,15.5,35.3,35.2c0,19.7-15.8,35.3-35.9,35.2c-19.6,0-35.6-15.9-35.6-35.4
		C449,815.9,465.2,800.2,485.1,800.2z"/>
	<path class="st1" d="M849,851c3.7,0,7.5,0.1,11.2,0c1.7-0.1,2,0.6,2.1,2.2c0.3,5.4-0.5,10.2-4.8,14.1c-7.2,6.5-21.9,7.6-28.5,1.8
		c-3.2-2.8-3.8-6.3-3.1-10.2c0.6-3.6,3.1-5.6,6.5-6.8c2.5-0.8,5.1-1.1,7.7-1.1C843,850.9,846,851,849,851z"/>
	<path class="st1" d="M1070.6,842c-6.6,0-13.2,0-19.8,0c-1.5,0-1.9-0.5-1.6-1.9c1.8-7.8,5.6-14,13.4-16.8c8.1-2.9,16-2.5,23,3
		c4.5,3.6,6.3,8.6,6.9,14.2c0.2,1.7-0.9,1.5-1.9,1.5C1084,842,1077.3,842,1070.6,842z"/>
	<path class="st1" d="M547.9,723c0-2.8,0-5.6,0-8.4c0-1.1,0.3-1.5,1.4-1.5c4.7,0.1,9.5-0.2,14.2,0.4c5.8,0.8,8.8,4,8.9,9.5
		c0,5.7-3,9-8.7,9.9c-4.8,0.8-9.6-0.1-14.4,0.2c-1.2,0.1-1.4-0.5-1.4-1.5C547.9,728.7,547.9,725.8,547.9,723z"/>
	<path class="st1" d="M643.4,736.4c0-6.8,4.8-11.7,11.3-11.7c6.4,0,11.1,5.1,11.1,11.9c-0.1,6.8-4.9,11.9-11.2,11.9
		C648,748.5,643.3,743.4,643.4,736.4z"/>
	<path class="st1" d="M608.8,733.9c-3.1,0-6.3,0-9.4,0c-0.9,0-1.3-0.1-1.1-1.3c1.1-4.3,5.3-7.8,10-8c5.6-0.2,9.3,2,10.8,6.5
		c0.9,2.6,0.7,2.8-2,2.8C614.4,734,611.6,734,608.8,733.9C608.8,733.9,608.8,733.9,608.8,733.9z"/>
	<path class="st1" d="M486.8,750.6c-1.2,0.1-2.4-0.1-3.6-0.5c-2.5-0.9-3.8-3-3.6-5.5c0.2-2.7,2.1-3.9,4.5-4
		c4.2-0.2,8.5-0.1,12.7-0.1c1,0,1.1,0.5,1.1,1.3c0.2,3.2-1.2,5.6-3.9,7.2C491.8,750.1,489.4,750.7,486.8,750.6z"/>
	<path class="st1" d="M713.8,737.7c0-7.4,4.7-12.5,11.7-12.5c6.9,0,11.9,5.1,11.9,12.4c0.1,7.4-4.9,12.7-11.9,12.7
		C718.4,750.2,713.8,745.2,713.8,737.7z"/>
	<path class="st1" d="M827.2,935.1c0-5.6,3.9-9.7,9.2-9.7c5.3,0,9.2,4.1,9.1,9.8c-0.1,5.6-3.8,9.6-9,9.6
		C831.1,944.8,827.2,940.8,827.2,935.1z"/>
	<path class="st1" d="M447.3,916.7c1.9,0.1,4.1-0.2,6.3,0.5c3.6,1,5.4,3.3,5.5,6.9c0.1,3.8-1.7,6.4-5.2,7.4
		c-3.9,1.1-7.9,0.5-11.8,0.6c-1,0-1-0.7-1-1.4c0-4.2,0-8.4,0-12.7c0-1.2,0.5-1.4,1.5-1.4C444,916.7,445.5,916.7,447.3,916.7z"/>
	<path class="st1" d="M988.8,936.9c1,0,2,0,3,0c2.7,0,3.1,0.5,2.5,3.1c-0.7,2.8-2.8,4.1-5.4,4.7c-2.7,0.7-5.4,0.8-7.6-1.3
		c-2.2-2.2-1.1-5.6,1.9-6.2C985.1,936.8,987,936.9,988.8,936.9C988.8,936.8,988.8,936.8,988.8,936.9z"/>
	<path class="st1" d="M1059.1,932.8c-2.4,0-4.7,0-7.1,0c-1.2,0-1.4-0.4-1.2-1.5c0.8-3.5,4.4-6.2,8.3-6.2c4-0.1,7,2.1,8,5.7
		c0.4,1.5,0.3,2.2-1.5,2.1C1063.5,932.7,1061.3,932.8,1059.1,932.8z"/>
	<path class="st1" d="M641.1,932.8c-2.4,0-4.7,0-7.1,0c-1,0-1.3-0.3-1.1-1.3c0.8-3.5,4.2-6.2,8.2-6.4c3.9-0.2,7.2,2,8.2,5.5
		c0.4,1.5,0.4,2.4-1.6,2.3C645.5,932.7,643.3,932.8,641.1,932.8z"/>
	<path class="st1" d="M537.6,932.8c-2.3,0-4.6,0-6.9,0c-1,0-1.5-0.1-1.2-1.4c0.8-3.4,3.9-5.9,7.7-6.2c3.9-0.3,7.1,1.6,8.3,4.8
		c0.9,2.4,0.7,2.8-1.9,2.8C541.7,932.8,539.6,932.8,537.6,932.8z"/>
	<path class="st1" d="M912.4,932.8c-2.3,0-4.6,0-6.9,0c-1.1,0-1.5-0.2-1.2-1.5c0.8-3.4,4.1-6.1,8-6.3c3.9-0.2,7.1,1.8,8.2,5.1
		c0.5,1.6,0.6,2.8-1.8,2.6C916.7,932.7,914.6,932.8,912.4,932.8z"/>
	<path class="st1" d="M1092.2,932.8c-2.4,0-4.7,0-7.1,0c-1,0-1.3-0.2-1.1-1.3c0.7-3.6,4-6.3,8.1-6.4c4.1-0.1,7.3,2.2,8.2,5.8
		c0.4,1.4,0.1,2-1.5,2C1096.6,932.7,1094.4,932.8,1092.2,932.8z"/>
	<path class="st1" d="M802.5,932.8c-2.3,0-4.6,0-6.8,0c-1,0-1.6-0.2-1.4-1.4c0.6-3.4,4.2-6.2,8.2-6.3c4.2-0.1,7.4,2.3,8.2,6
		c0.3,1.5-0.1,1.8-1.5,1.7C807,932.7,804.8,932.8,802.5,932.8z"/>
	<path class="st1" d="M607.9,932.8c-2.3,0-4.6,0-6.8,0c-0.9,0-1.4-0.1-1.2-1.2c0.6-3.5,4.3-6.4,8.4-6.5c4-0.1,7.3,2.3,8.1,5.9
		c0.4,1.5-0.1,2-1.6,1.9C612.4,932.7,610.2,932.8,607.9,932.8z"/>
</g>
</svg>
