<?xml version="1.0" encoding="utf-8"?>
<!-- Generator: Adobe Illustrator 25.2.1, SVG Export Plug-In . SVG Version: 6.00 Build 0)  -->
<svg version="1.1" id="Layer_1" xmlns="http://www.w3.org/2000/svg" xmlns:xlink="http://www.w3.org/1999/xlink" x="0px" y="0px"
	 viewBox="0 0 35 35" style="enable-background:new 0 0 35 35;" xml:space="preserve">
<style type="text/css">
	.st0{fill:#00AEEF;}
</style>
<path class="st0" d="M17.5,0c2.42,0,4.69,0.46,6.82,1.39s3.98,2.18,5.57,3.77c1.59,1.59,2.84,3.44,3.75,5.56
	c0.91,2.12,1.37,4.39,1.37,6.81c0,2.42-0.46,4.69-1.37,6.81c-0.91,2.12-2.16,3.96-3.75,5.53c-1.59,1.57-3.44,2.82-5.57,3.75
	C22.19,34.54,19.92,35,17.5,35c-2.42,0-4.69-0.46-6.82-1.39c-2.12-0.93-3.98-2.17-5.57-3.75c-1.59-1.57-2.84-3.41-3.75-5.53
	S0,19.94,0,17.52c0-2.42,0.46-4.69,1.37-6.81C2.28,8.6,3.53,6.74,5.12,5.16c1.59-1.59,3.44-2.84,5.57-3.77
	C12.81,0.46,15.08,0,17.5,0z M19.95,24.31c1.04,0,1.99-0.22,2.85-0.66c0.86-0.44,1.61-1.06,2.24-1.86c0.63-0.8,1.12-1.75,1.49-2.85
	c0.36-1.1,0.54-2.29,0.54-3.58c0-0.91-0.19-1.81-0.57-2.71c-0.38-0.89-0.92-1.7-1.63-2.4c-0.71-0.71-1.58-1.28-2.62-1.72
	c-1.04-0.44-2.2-0.66-3.49-0.66c-1.48,0-2.79,0.24-3.94,0.71c-1.15,0.47-2.12,1.09-2.92,1.86c-0.8,0.77-1.42,1.64-1.84,2.61
	c-0.43,0.97-0.64,1.96-0.64,2.97c0,1.22,0.24,2.28,0.73,3.18c0.49,0.9,1.16,1.52,2,1.86c0.19,0.09,0.37,0.1,0.54,0.02
	c0.17-0.08,0.29-0.23,0.35-0.45l0.24-1.04c0.06-0.19,0.08-0.34,0.05-0.45c-0.03-0.11-0.11-0.24-0.24-0.4
	c-0.54-0.63-0.8-1.43-0.8-2.4c0-0.72,0.13-1.44,0.4-2.14c0.27-0.71,0.66-1.34,1.18-1.91c0.52-0.57,1.16-1.02,1.91-1.37
	c0.76-0.35,1.63-0.52,2.64-0.52c1.57,0,2.82,0.42,3.75,1.27c0.93,0.85,1.39,1.99,1.39,3.44c0,0.94-0.1,1.81-0.31,2.61
	c-0.2,0.8-0.48,1.5-0.83,2.1c-0.35,0.6-0.75,1.06-1.23,1.39c-0.47,0.33-0.99,0.49-1.56,0.49c-0.69,0-1.2-0.24-1.51-0.71
	c-0.35-0.47-0.46-0.97-0.33-1.51c0.06-0.31,0.14-0.61,0.24-0.89c0.09-0.28,0.19-0.58,0.28-0.9c0.16-0.53,0.3-1.04,0.42-1.51
	c0.13-0.47,0.19-0.89,0.19-1.27c0-0.66-0.17-1.18-0.52-1.55c-0.35-0.38-0.8-0.57-1.37-0.57c-0.75,0-1.38,0.34-1.89,1.01
	c-0.5,0.68-0.75,1.5-0.75,2.47c0,0.53,0.05,0.98,0.14,1.34c0.09,0.36,0.17,0.59,0.24,0.68c-0.03,0.16-0.13,0.57-0.28,1.22
	c-0.16,0.66-0.32,1.37-0.5,2.12c-0.17,0.75-0.35,1.48-0.52,2.17c-0.17,0.69-0.28,1.16-0.31,1.41c-0.19,0.75-0.28,1.65-0.28,2.69
	l2.03,0.75c0.53-0.91,0.93-1.77,1.18-2.59c0.03-0.09,0.08-0.27,0.14-0.54c0.06-0.27,0.13-0.56,0.21-0.87
	c0.08-0.31,0.16-0.63,0.24-0.94c0.08-0.31,0.15-0.57,0.21-0.75c0.31,0.38,0.75,0.69,1.3,0.94C18.78,24.18,19.36,24.31,19.95,24.31z"
	/>
</svg>
