<?xml version="1.0" encoding="utf-8"?>
<!-- Generator: Adobe Illustrator 25.2.1, SVG Export Plug-In . SVG Version: 6.00 Build 0)  -->
<svg version="1.1" id="Layer_1" xmlns="http://www.w3.org/2000/svg" xmlns:xlink="http://www.w3.org/1999/xlink" x="0px" y="0px"
	 viewBox="0 0 35 35" style="enable-background:new 0 0 35 35;" xml:space="preserve">
<style type="text/css">
	.st0{fill:#00AEEF;}
</style>
<path class="st0" d="M17.5,0c2.42,0,4.7,0.45,6.82,1.37s3.98,2.16,5.57,3.75c1.59,1.58,2.84,3.44,3.74,5.56S35,15.08,35,17.5
	s-0.45,4.69-1.37,6.81c-0.92,2.12-2.16,3.98-3.74,5.56c-1.59,1.58-3.45,2.84-5.57,3.75C22.2,34.55,19.92,35,17.5,35
	c-2.42,0-4.7-0.45-6.82-1.37c-2.12-0.91-3.98-2.16-5.57-3.75c-1.59-1.58-2.84-3.44-3.74-5.56S0,19.91,0,17.49s0.45-4.69,1.37-6.81
	C2.28,8.55,3.53,6.7,5.11,5.11s3.45-2.84,5.57-3.75C12.8,0.45,15.08,0,17.5,0z M22.3,14.55h-3.35v-1.41c0-0.41,0.12-0.76,0.36-1.06
	c0.24-0.3,0.45-0.45,0.63-0.45h1.93v-3l-3.06-0.05c-0.88,0-1.6,0.15-2.15,0.45c-0.55,0.3-0.98,0.67-1.3,1.11
	c-0.31,0.44-0.52,0.92-0.63,1.43c-0.11,0.51-0.17,0.98-0.17,1.38v1.6h-1.42v4.37h1.42v10.2h4.39v-10.2h2.97L22.3,14.55z"/>
</svg>
