<?xml version="1.0" encoding="utf-8"?>
<!-- Generator: Adobe Illustrator 25.2.1, SVG Export Plug-In . SVG Version: 6.00 Build 0)  -->
<svg version="1.1" id="Layer_1" xmlns="http://www.w3.org/2000/svg" xmlns:xlink="http://www.w3.org/1999/xlink" x="0px" y="0px"
	 viewBox="0 0 35 35" style="enable-background:new 0 0 35 35;" xml:space="preserve">
<style type="text/css">
	.st0{fill:#00AEEF;}
</style>
<path class="st0" d="M17.5,0c2.41,0,4.68,0.46,6.8,1.39c2.12,0.93,3.97,2.18,5.55,3.76c1.58,1.58,2.84,3.43,3.76,5.55
	c0.92,2.12,1.39,4.38,1.39,6.8c0,2.42-0.46,4.68-1.39,6.8c-0.93,2.12-2.18,3.97-3.76,5.55c-1.58,1.58-3.43,2.84-5.55,3.76
	C22.18,34.54,19.91,35,17.5,35c-2.42,0-4.68-0.46-6.8-1.39c-2.12-0.92-3.97-2.18-5.55-3.76c-1.58-1.58-2.84-3.43-3.76-5.55
	S0,19.92,0,17.5c0-2.41,0.46-4.68,1.39-6.8c0.93-2.12,2.18-3.97,3.76-5.55c1.58-1.58,3.43-2.84,5.55-3.76S15.08,0,17.5,0z
	 M29.83,26.91c0.03-0.38,0.05-0.68,0.07-0.92c0.02-0.24,0.03-0.46,0.05-0.68c0.02-0.22,0.02-0.45,0.02-0.68s0-0.54,0-0.92
	s0-0.68,0-0.92c0-0.24-0.01-0.46-0.02-0.68c-0.02-0.22-0.03-0.45-0.05-0.68c-0.02-0.24-0.04-0.54-0.07-0.92c0-1-0.34-1.79-1.03-2.35
	c-0.69-0.56-1.54-0.85-2.54-0.85c-1.38-0.06-2.75-0.05-4.12,0.05c-1.36,0.09-2.75,0.14-4.16,0.14h-0.42h-0.42
	c-1.41,0-2.8-0.05-4.16-0.14c-1.36-0.09-2.74-0.11-4.12-0.05c-1,0-1.85,0.31-2.54,0.94c-0.69,0.63-1.03,1.44-1.03,2.45
	c-0.03,0.38-0.06,0.68-0.09,0.92s-0.05,0.45-0.07,0.64c-0.02,0.19-0.02,0.4-0.02,0.64c0,0.24,0,0.54,0,0.92s0,0.68,0,0.92
	s0.01,0.46,0.02,0.66c0.02,0.2,0.04,0.42,0.07,0.66s0.06,0.54,0.09,0.92c0,1,0.34,1.84,1.03,2.52c0.69,0.67,1.54,1.01,2.54,1.01
	c1.44,0.06,2.88,0.1,4.3,0.12c1.43,0.02,2.89,0.02,4.4,0.02c2.92,0,5.82-0.05,8.7-0.14c1,0,1.85-0.34,2.54-1.04
	C29.48,28.76,29.83,27.91,29.83,26.91z M11.67,20.42h-1.46v8.75H8.75v-8.75H7.29v-1.46h4.37V20.42z M8.8,4.05l1.79,7.29v4.89h2.3
	v-4.89l1.98-7.29h-2.26l-0.85,3.76l-0.85-3.76H8.8z M14.58,21.88h1.46v7.29h-1.46h-1.46h-1.46v-1.46v-5.83h1.46v5.83h1.46V21.88z
	 M18.49,7.86c-0.25-0.25-0.5-0.43-0.75-0.54c-0.25-0.11-0.56-0.16-0.94-0.16c-0.38,0-0.7,0.06-0.97,0.16
	c-0.27,0.11-0.52,0.28-0.78,0.49c-0.5,0.47-0.75,1.07-0.75,1.79v4.19c0,0.85,0.22,1.49,0.66,1.93c0.47,0.47,1.07,0.71,1.79,0.71
	c0.41,0,0.74-0.05,0.99-0.16c0.25-0.11,0.5-0.29,0.75-0.54c0.25-0.25,0.39-0.52,0.42-0.82c0.03-0.3,0.05-0.65,0.05-1.06V9.64
	c0-0.34-0.02-0.67-0.05-0.96C18.88,8.38,18.74,8.11,18.49,7.86z M16.7,8.94c0.22,0,0.41,0.05,0.56,0.14
	c0.06,0.06,0.12,0.13,0.16,0.21c0.05,0.08,0.07,0.15,0.07,0.21v4.42c0,0.19-0.08,0.36-0.23,0.52c-0.13,0.13-0.31,0.19-0.56,0.19
	c-0.22,0-0.38-0.06-0.47-0.19c-0.13-0.12-0.19-0.3-0.19-0.52V9.5c0-0.09,0.06-0.24,0.19-0.42C16.35,8.99,16.51,8.94,16.7,8.94z
	 M21.87,21.88v1.46v5.83h-1.46h-1.46H17.5v-1.46v-8.75h1.46v2.92h1.46H21.87z M20.42,23.33h-1.46v4.38h1.46V23.33z M22.63,16.37
	c0.56,0,0.99-0.07,1.27-0.21c0.28-0.14,0.5-0.29,0.66-0.45c0.13-0.19,0.2-0.41,0.24-0.66V6.96h-1.46v6.82
	c0,0.13-0.03,0.25-0.09,0.38c-0.06,0.09-0.13,0.17-0.21,0.24c-0.08,0.06-0.21,0.09-0.4,0.09c-0.35,0-0.57-0.08-0.66-0.24
	c-0.06-0.09-0.09-0.19-0.09-0.28V6.96h-1.46v7.57c0,0.35,0.08,0.66,0.23,0.94c0.16,0.25,0.38,0.46,0.68,0.63
	C21.63,16.28,22.06,16.37,22.63,16.37z M24.79,26.25v1.46h2.92v1.46h-1.46h-1.46h-1.46v-1.46v-5.83h4.37v4.37H24.79z M24.79,24.79
	h1.46v-1.46h-1.46V24.79z"/>
</svg>
